<?xml version="1.0" encoding="utf-8"?>
<!-- Generator: Adobe Illustrator 26.0.0, SVG Export Plug-In . SVG Version: 6.00 Build 0)  -->
<svg version="1.1" id="Layer_1" xmlns="http://www.w3.org/2000/svg" xmlns:xlink="http://www.w3.org/1999/xlink" x="0px" y="0px"
	 viewBox="0 0 448 512" style="enable-background:new 0 0 448 512;" xml:space="preserve">
<path d="M191.3,271.3c0,16.8-12.2,22.2-27.2,22.2h-39.3v-46.1h40.1C181.1,247.4,191.3,254.1,191.3,271.3L191.3,271.3z M184.6,199.5
	c0-15.4-12-19.1-25.2-19.1h-34.5v39.1h37.2C175.2,219.5,184.6,213.7,184.6,199.5L184.6,199.5z M300,219.7c-16,0-26.6,9.9-27.7,25.9
	h54.3C325.1,229.5,316.7,219.7,300,219.7L300,219.7z M419.4,85.5v307.1c0,23.1-18.8,41.9-41.9,41.9H70.5
	c-23.1,0-41.9-18.8-41.9-41.9V85.5c0-23.1,18.8-41.9,41.9-41.9h307.1C400.6,43.6,419.4,62.3,419.4,85.5z M265.6,177.1h67.9v-16.5
	h-67.9V177.1z M228.1,273.3c0-21-9.9-39.2-30.5-45c15-7.2,22.9-15.4,22.9-32.3c0-33.3-24.9-41.4-53.6-41.4H87.9V322h81.2
	C199.6,321.9,228.1,307.3,228.1,273.3z M360.1,260.4c0-35.9-21-65.8-59-65.8c-37,0-62,27.7-62,64.2c0,37.8,23.8,63.7,62,63.7
	c29,0,47.7-13,56.8-40.8h-29.4c-3.2,10.4-16.2,15.8-26.3,15.8c-19.5,0-29.7-11.4-29.7-30.8h87.4
	C359.9,264.6,360.1,262.5,360.1,260.4L360.1,260.4z"/>
</svg>
