<svg xmlns="http://www.w3.org/2000/svg"  viewBox="0 0 30 29" fill="none">
  <mask id="mask0_147_1308" style="mask-type:luminance" maskUnits="userSpaceOnUse" x="1" y="1" width="27" height="27">
    <path d="M26.7414 14.4637C26.7434 16.0507 26.4325 17.6223 25.8267 19.0878C25.2209 20.5533 24.3321 21.8836 23.2118 23.0018C22.1007 24.1167 20.7818 25.0005 19.3307 25.6028C17.8795 26.2052 16.3245 26.5141 14.7545 26.5121C8.13412 26.5121 2.76759 21.118 2.76759 14.4637C2.7634 11.3744 3.94402 8.40228 6.06398 6.16541C7.18256 4.979 8.53023 4.0345 10.0245 3.38969C11.5188 2.74489 13.1283 2.41335 14.7545 2.41535C16.3245 2.41331 17.8795 2.72228 19.3307 3.32459C20.7818 3.92691 22.1007 4.81076 23.2118 5.92564C24.3321 7.04387 25.2209 8.37416 25.8267 9.83964C26.4325 11.3051 26.7434 12.8768 26.7414 14.4637Z" fill="white" stroke="white" stroke-width="2.27174" stroke-linecap="round" stroke-linejoin="round"/>
    <path d="M26.7406 14.4638C24.9917 14.4638 20.167 13.8011 15.8487 15.7066C11.1576 17.7771 7.76114 20.9886 6.28076 22.9862" stroke="black" stroke-width="2.27174" stroke-linecap="round" stroke-linejoin="round"/>
    <path d="M10.2593 3.29132C12.1352 5.03171 16.2287 9.46249 17.7511 13.8613C19.2734 18.2602 19.8368 23.6687 20.1844 25.2079" stroke="black" stroke-width="2.27174" stroke-linecap="round" stroke-linejoin="round"/>
    <path d="M2.85938 12.9577C5.1237 13.0951 11.1177 13.2186 14.9535 11.5721C18.7893 9.92573 22.0899 6.89738 23.2221 5.93652" stroke="black" stroke-width="2.27174" stroke-linecap="round" stroke-linejoin="round"/>
    <path d="M3.66661 19.0499C4.72284 21.6198 6.62779 23.7453 9.0607 25.0687M2.76759 14.4637C2.7634 11.3744 3.94402 8.40228 6.06398 6.16541C7.18256 4.979 8.53023 4.0345 10.0245 3.38969C11.5188 2.74489 13.1283 2.41335 14.7545 2.41535M19.5492 3.41778C20.9143 4.01811 22.1563 4.86854 23.2118 5.92564C24.3321 7.04387 25.2209 8.37416 25.8267 9.83964C26.4325 11.3051 26.7434 12.8768 26.7414 14.4637C26.7414 15.9469 26.4747 17.368 25.9862 18.6806M14.7545 26.5121C16.3245 26.5141 17.8795 26.2051 19.3307 25.6028C20.7818 25.0005 22.1007 24.1167 23.2118 23.0018" stroke="white" stroke-width="2.27174" stroke-linecap="round" stroke-linejoin="round"/>
  </mask>
  <g mask="url(#mask0_147_1308)">
    <path d="M0.369629 0.0057373H29.1382V28.9218H0.369629V0.0057373Z" fill="#1F1F1F"/>
  </g>
</svg>