<?xml version="1.0" encoding="utf-8"?>
<!-- Generator: Adobe Illustrator 26.0.0, SVG Export Plug-In . SVG Version: 6.00 Build 0)  -->
<svg version="1.1" id="Layer_1" xmlns="http://www.w3.org/2000/svg" xmlns:xlink="http://www.w3.org/1999/xlink" x="0px" y="0px"
	 viewBox="0 0 512 512" style="enable-background:new 0 0 512 512;" xml:space="preserve">
<path d="M335.2,256c0,18.4-1,35.9-2.7,52.7h-153c-1.7-16.8-3.5-34.5-3.5-52.7s1.7-35.9,3.5-52.7h152.9
	C334.2,220.1,335.2,237.6,335.2,256z M460.5,203.3c4.3,16.9,6.7,34.6,6.7,52.7c0,18.2-2.3,35.8-6.7,52.7H359
	c1.7-17,2.6-35.4,2.6-52.7c0-18.2-0.9-35.8-2.6-52.7H460.5z M451.8,176.8h-96.3c-8.2-52.6-24.5-96.8-45.6-125
	C374.6,68.8,427.1,115.8,451.8,176.8z M328.8,176.8H183.2c5-30,12.7-56.6,22.3-78c8.7-19.5,18.4-33.6,27.6-42.5
	c9.3-8.8,16.9-11.4,22.9-11.4s13.7,2.6,22.9,11.4c9.3,8.9,18.9,23,27.6,42.5C316.1,120.2,323.8,146.8,328.8,176.8L328.8,176.8z
	 M60.2,176.8c24.7-61,77.2-108,141.9-125c-21.1,28.2-37.4,72.3-45.6,125H60.2z M153,203.3c-1.7,17-3.4,34.7-3.4,52.7
	c0,17.4,1.6,35.8,3.4,52.7H51.5c-4.3-16.9-6.7-34.6-6.7-52.7s2.3-35.8,6.7-52.7H153z M205.5,413.3c-9.5-21.4-17.2-48-22.3-78h145.7
	c-5,30-12.7,56.6-22.3,78c-8.7,19.5-18.4,33.6-27.6,42.6c-9.3,8.8-16.9,11.4-23.7,11.4c-5.3,0-12.9-2.6-22.2-11.4
	C223.7,446.9,214.1,432.8,205.5,413.3L205.5,413.3z M202.1,460.2c-64.7-17-117.2-63.9-141.9-125h96.2
	C164.7,387.8,181,432,202.1,460.2L202.1,460.2z M309.9,460.2c21.1-28.2,37.4-72.3,45.6-125.1h96.3
	C427.1,396.3,374.6,443.2,309.9,460.2L309.9,460.2z"/>
</svg>
