<?xml version="1.0" encoding="utf-8"?>
<!-- Generator: Adobe Illustrator 26.0.0, SVG Export Plug-In . SVG Version: 6.00 Build 0)  -->
<svg version="1.1" id="Layer_1" xmlns="http://www.w3.org/2000/svg" xmlns:xlink="http://www.w3.org/1999/xlink" x="0px" y="0px"
	 viewBox="0 0 512 512" style="enable-background:new 0 0 512 512;" xml:space="preserve">
<path d="M338,256c0,19-1,37.2-2.8,54.6H176.8c-1.8-17.4-3.6-35.7-3.6-54.6s1.8-37.2,3.6-54.6h158.3C337,218.8,338,237,338,256z
	 M467.7,201.4c4.5,17.5,6.9,35.8,6.9,54.6s-2.4,37.1-6.9,54.6H362.6c1.8-17.6,2.7-36.6,2.7-54.6c0-18.8-0.9-37.1-2.7-54.6H467.7z
	 M458.7,174h-99.7c-8.5-54.5-25.4-100.2-47.2-129.4C378.8,62.2,433.1,110.8,458.7,174z M331.4,174H180.6
	c5.2-31.1,13.2-58.6,23.1-80.8c9-20.2,19-34.8,28.6-44c9.6-9.1,17.5-11.8,23.7-11.8c6.2,0,14.2,2.7,23.7,11.8
	c9.6,9.2,19.6,23.8,28.6,44C318.2,115.4,326.2,142.9,331.4,174L331.4,174z M53.3,174c25.6-63.2,79.9-111.8,146.9-129.4
	c-21.8,29.2-38.7,74.9-47.2,129.4H53.3z M149.4,201.4c-1.8,17.6-3.5,35.9-3.5,54.6c0,18,1.7,37.1,3.5,54.6H44.3
	c-4.5-17.5-6.9-35.8-6.9-54.6s2.4-37.1,6.9-54.6H149.4z M203.7,418.8c-9.8-22.2-17.8-49.7-23.1-80.8h150.8
	c-5.2,31.1-13.2,58.6-23.1,80.8c-9,20.2-19,34.8-28.6,44.1c-9.6,9.1-17.5,11.8-24.5,11.8c-5.5,0-13.4-2.7-23-11.8
	C222.6,453.6,212.6,439,203.7,418.8L203.7,418.8z M200.2,467.4C133.2,449.8,78.9,401.2,53.3,338h99.6
	C161.5,392.5,178.4,438.2,200.2,467.4L200.2,467.4z M311.8,467.4c21.8-29.2,38.7-74.9,47.2-129.5h99.7
	C433.1,401.2,378.8,449.8,311.8,467.4L311.8,467.4z"/>
</svg>
