<svg width="72" height="78" viewBox="0 0 72 78" fill="none" xmlns="http://www.w3.org/2000/svg">
<mask id="path-1-inside-1_1923_1232" fill="white">
<path fill-rule="evenodd" clip-rule="evenodd" d="M25.7143 34.7143C25.7143 35.4227 26.2903 36 27 36C27.7097 36 28.2857 35.4227 28.2857 34.7143C28.2857 34.0059 27.7097 33.4286 27 33.4286C26.2903 33.4286 25.7143 34.0059 25.7143 34.7143ZM28.2857 57.8571C28.2857 57.1487 27.7097 56.5714 27 56.5714C26.2903 56.5714 25.7143 57.1487 25.7143 57.8571C25.7143 58.5656 26.2903 59.1429 27 59.1429C27.7097 59.1429 28.2857 58.5656 28.2857 57.8571ZM18 34.7143C18 34.0059 17.424 33.4286 16.7143 33.4286C16.0046 33.4286 15.4286 34.0059 15.4286 34.7143C15.4286 35.4227 16.0046 36 16.7143 36C17.424 36 18 35.4227 18 34.7143ZM18 50.1429C18 49.4344 17.424 48.8571 16.7143 48.8571C16.0046 48.8571 15.4286 49.4344 15.4286 50.1429C15.4286 50.8513 16.0046 51.4286 16.7143 51.4286C17.424 51.4286 18 50.8513 18 50.1429ZM25.7143 21.8571C25.7143 22.5656 26.2903 23.1429 27 23.1429C27.7097 23.1429 28.2857 22.5656 28.2857 21.8571C28.2857 21.1487 27.7097 20.5714 27 20.5714C26.2903 20.5714 25.7143 21.1487 25.7143 21.8571ZM18 23.1429V31.0937C19.0903 31.482 19.9466 32.3396 20.3336 33.4286H23.3807C23.913 31.9346 25.326 30.8571 27 30.8571C29.1266 30.8571 30.8571 32.5877 30.8571 34.7143C30.8571 36.3883 29.7784 37.8013 28.2857 38.3349V54.2366C29.7784 54.7701 30.8571 56.1831 30.8571 57.8571C30.8571 59.5311 29.7784 60.9441 28.2857 61.4777V65.5714C28.2857 66.2811 27.711 66.8571 27 66.8571C26.289 66.8571 25.7143 66.2811 25.7143 65.5714V61.4764C24.4016 61.0097 23.4231 59.8603 23.2033 58.4486L18.3767 53.6233C18.3729 53.6207 18.3729 53.6156 18.369 53.6117C17.8663 53.8534 17.3096 54 16.7143 54C14.5877 54 12.8571 52.2694 12.8571 50.1429C12.8571 48.0163 14.5877 46.2857 16.7143 46.2857C18.8409 46.2857 20.5714 48.0163 20.5714 50.1429C20.5714 50.7369 20.4249 51.2949 20.1831 51.7976C20.187 51.8014 20.1909 51.8027 20.1947 51.8053L23.9323 55.5441C24.3836 54.9476 24.9981 54.4924 25.7143 54.2366V38.3336C24.624 37.9466 23.7677 37.089 23.3807 36H20.3336C19.8013 37.494 18.3883 38.5714 16.7143 38.5714C14.5877 38.5714 12.8571 36.8409 12.8571 34.7143C12.8571 33.0403 13.9359 31.6273 15.4286 31.0937V21.8571C15.4286 21.1474 16.0033 20.5714 16.7143 20.5714H23.3807C23.7677 19.4824 24.624 18.6249 25.7143 18.2366V14.1429C25.7143 13.4331 26.289 12.8571 27 12.8571C27.711 12.8571 28.2857 13.4331 28.2857 14.1429V18.2366C29.7784 18.7701 30.8571 20.1831 30.8571 21.8571C30.8571 23.9837 29.1266 25.7143 27 25.7143C25.326 25.7143 23.913 24.6369 23.3807 23.1429H18ZM68.9567 47.8864C70.8711 46.2034 72 43.7683 72 41.1429C72 38.3914 70.7773 35.8637 68.6764 34.1666C69.1714 33.1341 69.4286 32.0091 69.4286 30.8571C69.4286 28.2034 68.0361 25.7593 65.8389 24.3643C66.5023 23.2084 66.8571 21.9047 66.8571 20.5714C66.8571 17.2543 64.7499 14.3704 61.7001 13.3059C61.7091 13.1554 61.7143 13.0063 61.7143 12.8571C61.7143 8.60271 58.2544 5.14286 54 5.14286C52.9624 5.14286 51.9519 5.35371 51.0081 5.76C49.9024 2.412 46.7229 0 43.0714 0C37.6611 0 35.2556 4.88057 34.74 7.46229C34.731 7.50471 34.7426 7.54586 34.74 7.58957C34.7361 7.63329 34.7143 7.66929 34.7143 7.71429V68.0657C34.4237 71.7159 31.3239 74.5714 27.6429 74.5714C23.9747 74.5714 20.8839 71.7056 20.6049 68.0451C20.5534 67.3753 19.9569 66.8571 19.2857 66.8571C18.8846 66.8571 18.5066 67.0449 18.2623 67.3637C17.2646 68.6764 15.7629 69.4286 14.1429 69.4286C11.3066 69.4286 9 67.122 9 64.2857C9 63.1183 9.40629 62.0023 10.1777 61.0573C10.5249 60.6317 10.5634 60.0313 10.2716 59.5646C9.981 59.0979 9.43071 58.8664 8.88814 58.9937C8.45743 59.094 8.073 59.1429 7.71429 59.1429C4.878 59.1429 2.57143 56.8363 2.57143 54C2.57143 51.8799 3.91757 49.9513 5.91943 49.2004C6.39643 49.0217 6.723 48.5794 6.75257 48.0729C6.78214 47.565 6.50957 47.0867 6.05957 46.854C3.90729 45.7444 2.57143 43.5549 2.57143 41.1429C2.57143 38.8749 3.73757 36.8177 5.69186 35.64C5.99657 35.4561 6.21129 35.154 6.28586 34.8056C6.35914 34.4559 6.28457 34.0933 6.08014 33.8014C5.46686 32.9259 5.14286 31.9089 5.14286 30.8571C5.14286 28.7216 6.50314 26.7891 8.52557 26.0473C8.92543 25.9007 9.22757 25.5651 9.33171 25.1524C9.43457 24.7384 9.32529 24.3 9.04114 23.9824C8.18486 23.0271 7.71429 21.816 7.71429 20.5714C7.71429 18.0797 9.50014 15.957 11.9584 15.5224C12.303 15.4607 12.6103 15.2614 12.8044 14.9696C12.9986 14.6777 13.0654 14.319 12.9909 13.977C12.9009 13.5759 12.8571 13.2094 12.8571 12.8571C12.8571 10.0209 15.1637 7.71429 18 7.71429C19.1134 7.71429 20.187 8.08586 21.1063 8.78914C21.4804 9.07457 21.9806 9.13371 22.4087 8.94343C22.8394 8.75186 23.13 8.34171 23.1699 7.87371C23.4141 4.90114 25.9444 2.57143 28.9286 2.57143C30.3609 2.57143 31.545 3.03171 32.5479 3.978C33.066 4.46529 33.8799 4.44086 34.3659 3.924C34.8531 3.40714 34.83 2.59457 34.3131 2.10729C32.8307 0.708429 31.0191 0 28.9286 0C25.2771 0 22.0976 2.412 20.9919 5.76C20.0481 5.35371 19.0376 5.14286 18 5.14286C13.7456 5.14286 10.2857 8.60271 10.2857 12.8571C10.2857 13.0063 10.2909 13.1554 10.2999 13.3059C7.25014 14.3704 5.14286 17.2543 5.14286 20.5714C5.14286 21.9047 5.49771 23.2084 6.16114 24.3643C3.96386 25.7593 2.57143 28.2034 2.57143 30.8571C2.57143 32.0091 2.82857 33.1341 3.32357 34.1666C1.22271 35.8637 0 38.3914 0 41.1429C0 43.7683 1.12886 46.2034 3.04329 47.8864C1.16486 49.3226 0 51.5777 0 54C0 57.9767 3.02529 61.2604 6.89529 61.6706C6.58671 62.5037 6.42857 63.3831 6.42857 64.2857C6.42857 68.5401 9.88843 72 14.1429 72C15.7397 72 17.2594 71.5153 18.5349 70.6269C19.8463 74.4249 23.4707 77.1429 27.6429 77.1429C32.6674 77.1429 36.9013 73.2317 37.2819 68.2406C37.2831 68.2239 37.2754 68.2084 37.2754 68.1917C37.2767 68.1737 37.2857 68.1609 37.2857 68.1429V7.85571C37.476 7.06629 38.745 2.57143 43.0714 2.57143C46.0556 2.57143 48.5859 4.90114 48.8301 7.87371C48.87 8.34171 49.1606 8.75186 49.5913 8.94343C50.0194 9.13371 50.5196 9.07457 50.8937 8.78914C51.813 8.08586 52.8866 7.71429 54 7.71429C56.8363 7.71429 59.1429 10.0209 59.1429 12.8571C59.1429 13.2094 59.0991 13.5759 59.0091 13.977C58.9346 14.319 59.0014 14.6777 59.1956 14.9696C59.3897 15.2614 59.697 15.4607 60.0416 15.5224C62.4999 15.957 64.2857 18.0797 64.2857 20.5714C64.2857 21.816 63.8151 23.0271 62.9589 23.9824C62.6747 24.3 62.5654 24.7384 62.6683 25.1524C62.7724 25.5651 63.0746 25.9007 63.4744 26.0473C65.4969 26.7891 66.8571 28.7216 66.8571 30.8571C66.8571 31.9089 66.5331 32.9259 65.9199 33.8014C65.7154 34.0933 65.6409 34.4559 65.7141 34.8056C65.7887 35.154 66.0034 35.4561 66.3081 35.64C68.2624 36.8177 69.4286 38.8749 69.4286 41.1429C69.4286 43.5549 68.0927 45.7444 65.9404 46.854C65.4904 47.0867 65.2179 47.565 65.2474 48.0729C65.277 48.5794 65.6036 49.0217 66.0806 49.2004C68.0824 49.9513 69.4286 51.8799 69.4286 54C69.4286 56.8363 67.122 59.1429 64.2857 59.1429C63.927 59.1429 63.5426 59.094 63.1119 58.9937C62.5719 58.8664 62.0203 59.0979 61.7284 59.5646C61.4366 60.0313 61.4751 60.6317 61.8223 61.0573C62.5937 62.0023 63 63.1183 63 64.2857C63 67.122 60.6934 69.4286 57.8571 69.4286C56.232 69.4286 54.7329 68.6674 53.7454 67.3393C53.4137 66.8957 52.8364 66.7144 52.3106 66.8867C52.1203 66.9497 51.9531 67.0539 51.8181 67.1863C51.579 67.3997 51.4209 67.7031 51.3951 68.0451C51.1161 71.7056 48.0253 74.5714 44.3571 74.5714C42.741 74.5714 41.2161 74.0404 39.9471 73.0363C39.3879 72.5953 38.5817 72.6904 38.1407 73.2459C37.6997 73.8026 37.7949 74.6113 38.3503 75.0523C40.0539 76.3997 42.1881 77.1429 44.3571 77.1429C48.5319 77.1429 52.1589 74.4197 53.4677 70.6179C54.7393 71.5127 56.2564 72 57.8571 72C62.1116 72 65.5714 68.5401 65.5714 64.2857C65.5714 63.3831 65.4133 62.5037 65.1047 61.6706C68.9747 61.2604 72 57.9767 72 54C72 51.5777 70.8351 49.3226 68.9567 47.8864ZM46.2857 57.8571C46.2857 58.5669 46.8604 59.1429 47.5714 59.1429C49.446 59.1429 51.4286 61.1254 51.4286 63C51.4286 63.7097 52.0033 64.2857 52.7143 64.2857C53.4253 64.2857 54 63.7097 54 63C54 59.6957 50.8757 56.5714 47.5714 56.5714C46.8604 56.5714 46.2857 57.1474 46.2857 57.8571ZM57.8571 23.1429C55.9826 23.1429 54 21.1603 54 19.2857C54 18.576 53.4253 18 52.7143 18C52.0033 18 51.4286 18.576 51.4286 19.2857C51.4286 22.59 54.5529 25.7143 57.8571 25.7143C58.5681 25.7143 59.1429 25.1383 59.1429 24.4286C59.1429 23.7189 58.5681 23.1429 57.8571 23.1429ZM42.4286 51.4286C43.1396 51.4286 43.7143 50.8526 43.7143 50.1429C43.7143 48.2683 45.6969 46.2857 47.5714 46.2857C48.2824 46.2857 48.8571 45.7097 48.8571 45C48.8571 44.2903 48.2824 43.7143 47.5714 43.7143C44.2671 43.7143 41.1429 46.8386 41.1429 50.1429C41.1429 50.8526 41.7176 51.4286 42.4286 51.4286ZM47.5714 36C48.2824 36 48.8571 35.424 48.8571 34.7143C48.8571 34.0046 48.2824 33.4286 47.5714 33.4286C45.6969 33.4286 43.7143 31.446 43.7143 29.5714C43.7143 28.8617 43.1396 28.2857 42.4286 28.2857C41.7176 28.2857 41.1429 28.8617 41.1429 29.5714C41.1429 32.8757 44.2671 36 47.5714 36ZM60.4286 30.8571C59.7176 30.8571 59.1429 31.4331 59.1429 32.1429C59.1429 34.0174 57.1603 36 55.2857 36C54.5747 36 54 36.576 54 37.2857C54 37.9954 54.5747 38.5714 55.2857 38.5714C58.59 38.5714 61.7143 35.4471 61.7143 32.1429C61.7143 31.4331 61.1396 30.8571 60.4286 30.8571ZM55.2857 46.2857C54.5747 46.2857 54 46.8617 54 47.5714C54 48.2811 54.5747 48.8571 55.2857 48.8571C57.1603 48.8571 59.1429 50.8397 59.1429 52.7143C59.1429 53.424 59.7176 54 60.4286 54C61.1396 54 61.7143 53.424 61.7143 52.7143C61.7143 49.41 58.59 46.2857 55.2857 46.2857ZM41.1429 18C41.1429 14.6957 44.2671 11.5714 47.5714 11.5714C48.2824 11.5714 48.8571 12.1474 48.8571 12.8571C48.8571 13.5669 48.2824 14.1429 47.5714 14.1429C45.6969 14.1429 43.7143 16.1254 43.7143 18C43.7143 18.7097 43.1396 19.2857 42.4286 19.2857C41.7176 19.2857 41.1429 18.7097 41.1429 18Z"/>
</mask>
<path fill-rule="evenodd" clip-rule="evenodd" d="M25.7143 34.7143C25.7143 35.4227 26.2903 36 27 36C27.7097 36 28.2857 35.4227 28.2857 34.7143C28.2857 34.0059 27.7097 33.4286 27 33.4286C26.2903 33.4286 25.7143 34.0059 25.7143 34.7143ZM28.2857 57.8571C28.2857 57.1487 27.7097 56.5714 27 56.5714C26.2903 56.5714 25.7143 57.1487 25.7143 57.8571C25.7143 58.5656 26.2903 59.1429 27 59.1429C27.7097 59.1429 28.2857 58.5656 28.2857 57.8571ZM18 34.7143C18 34.0059 17.424 33.4286 16.7143 33.4286C16.0046 33.4286 15.4286 34.0059 15.4286 34.7143C15.4286 35.4227 16.0046 36 16.7143 36C17.424 36 18 35.4227 18 34.7143ZM18 50.1429C18 49.4344 17.424 48.8571 16.7143 48.8571C16.0046 48.8571 15.4286 49.4344 15.4286 50.1429C15.4286 50.8513 16.0046 51.4286 16.7143 51.4286C17.424 51.4286 18 50.8513 18 50.1429ZM25.7143 21.8571C25.7143 22.5656 26.2903 23.1429 27 23.1429C27.7097 23.1429 28.2857 22.5656 28.2857 21.8571C28.2857 21.1487 27.7097 20.5714 27 20.5714C26.2903 20.5714 25.7143 21.1487 25.7143 21.8571ZM18 23.1429V31.0937C19.0903 31.482 19.9466 32.3396 20.3336 33.4286H23.3807C23.913 31.9346 25.326 30.8571 27 30.8571C29.1266 30.8571 30.8571 32.5877 30.8571 34.7143C30.8571 36.3883 29.7784 37.8013 28.2857 38.3349V54.2366C29.7784 54.7701 30.8571 56.1831 30.8571 57.8571C30.8571 59.5311 29.7784 60.9441 28.2857 61.4777V65.5714C28.2857 66.2811 27.711 66.8571 27 66.8571C26.289 66.8571 25.7143 66.2811 25.7143 65.5714V61.4764C24.4016 61.0097 23.4231 59.8603 23.2033 58.4486L18.3767 53.6233C18.3729 53.6207 18.3729 53.6156 18.369 53.6117C17.8663 53.8534 17.3096 54 16.7143 54C14.5877 54 12.8571 52.2694 12.8571 50.1429C12.8571 48.0163 14.5877 46.2857 16.7143 46.2857C18.8409 46.2857 20.5714 48.0163 20.5714 50.1429C20.5714 50.7369 20.4249 51.2949 20.1831 51.7976C20.187 51.8014 20.1909 51.8027 20.1947 51.8053L23.9323 55.5441C24.3836 54.9476 24.9981 54.4924 25.7143 54.2366V38.3336C24.624 37.9466 23.7677 37.089 23.3807 36H20.3336C19.8013 37.494 18.3883 38.5714 16.7143 38.5714C14.5877 38.5714 12.8571 36.8409 12.8571 34.7143C12.8571 33.0403 13.9359 31.6273 15.4286 31.0937V21.8571C15.4286 21.1474 16.0033 20.5714 16.7143 20.5714H23.3807C23.7677 19.4824 24.624 18.6249 25.7143 18.2366V14.1429C25.7143 13.4331 26.289 12.8571 27 12.8571C27.711 12.8571 28.2857 13.4331 28.2857 14.1429V18.2366C29.7784 18.7701 30.8571 20.1831 30.8571 21.8571C30.8571 23.9837 29.1266 25.7143 27 25.7143C25.326 25.7143 23.913 24.6369 23.3807 23.1429H18ZM68.9567 47.8864C70.8711 46.2034 72 43.7683 72 41.1429C72 38.3914 70.7773 35.8637 68.6764 34.1666C69.1714 33.1341 69.4286 32.0091 69.4286 30.8571C69.4286 28.2034 68.0361 25.7593 65.8389 24.3643C66.5023 23.2084 66.8571 21.9047 66.8571 20.5714C66.8571 17.2543 64.7499 14.3704 61.7001 13.3059C61.7091 13.1554 61.7143 13.0063 61.7143 12.8571C61.7143 8.60271 58.2544 5.14286 54 5.14286C52.9624 5.14286 51.9519 5.35371 51.0081 5.76C49.9024 2.412 46.7229 0 43.0714 0C37.6611 0 35.2556 4.88057 34.74 7.46229C34.731 7.50471 34.7426 7.54586 34.74 7.58957C34.7361 7.63329 34.7143 7.66929 34.7143 7.71429V68.0657C34.4237 71.7159 31.3239 74.5714 27.6429 74.5714C23.9747 74.5714 20.8839 71.7056 20.6049 68.0451C20.5534 67.3753 19.9569 66.8571 19.2857 66.8571C18.8846 66.8571 18.5066 67.0449 18.2623 67.3637C17.2646 68.6764 15.7629 69.4286 14.1429 69.4286C11.3066 69.4286 9 67.122 9 64.2857C9 63.1183 9.40629 62.0023 10.1777 61.0573C10.5249 60.6317 10.5634 60.0313 10.2716 59.5646C9.981 59.0979 9.43071 58.8664 8.88814 58.9937C8.45743 59.094 8.073 59.1429 7.71429 59.1429C4.878 59.1429 2.57143 56.8363 2.57143 54C2.57143 51.8799 3.91757 49.9513 5.91943 49.2004C6.39643 49.0217 6.723 48.5794 6.75257 48.0729C6.78214 47.565 6.50957 47.0867 6.05957 46.854C3.90729 45.7444 2.57143 43.5549 2.57143 41.1429C2.57143 38.8749 3.73757 36.8177 5.69186 35.64C5.99657 35.4561 6.21129 35.154 6.28586 34.8056C6.35914 34.4559 6.28457 34.0933 6.08014 33.8014C5.46686 32.9259 5.14286 31.9089 5.14286 30.8571C5.14286 28.7216 6.50314 26.7891 8.52557 26.0473C8.92543 25.9007 9.22757 25.5651 9.33171 25.1524C9.43457 24.7384 9.32529 24.3 9.04114 23.9824C8.18486 23.0271 7.71429 21.816 7.71429 20.5714C7.71429 18.0797 9.50014 15.957 11.9584 15.5224C12.303 15.4607 12.6103 15.2614 12.8044 14.9696C12.9986 14.6777 13.0654 14.319 12.9909 13.977C12.9009 13.5759 12.8571 13.2094 12.8571 12.8571C12.8571 10.0209 15.1637 7.71429 18 7.71429C19.1134 7.71429 20.187 8.08586 21.1063 8.78914C21.4804 9.07457 21.9806 9.13371 22.4087 8.94343C22.8394 8.75186 23.13 8.34171 23.1699 7.87371C23.4141 4.90114 25.9444 2.57143 28.9286 2.57143C30.3609 2.57143 31.545 3.03171 32.5479 3.978C33.066 4.46529 33.8799 4.44086 34.3659 3.924C34.8531 3.40714 34.83 2.59457 34.3131 2.10729C32.8307 0.708429 31.0191 0 28.9286 0C25.2771 0 22.0976 2.412 20.9919 5.76C20.0481 5.35371 19.0376 5.14286 18 5.14286C13.7456 5.14286 10.2857 8.60271 10.2857 12.8571C10.2857 13.0063 10.2909 13.1554 10.2999 13.3059C7.25014 14.3704 5.14286 17.2543 5.14286 20.5714C5.14286 21.9047 5.49771 23.2084 6.16114 24.3643C3.96386 25.7593 2.57143 28.2034 2.57143 30.8571C2.57143 32.0091 2.82857 33.1341 3.32357 34.1666C1.22271 35.8637 0 38.3914 0 41.1429C0 43.7683 1.12886 46.2034 3.04329 47.8864C1.16486 49.3226 0 51.5777 0 54C0 57.9767 3.02529 61.2604 6.89529 61.6706C6.58671 62.5037 6.42857 63.3831 6.42857 64.2857C6.42857 68.5401 9.88843 72 14.1429 72C15.7397 72 17.2594 71.5153 18.5349 70.6269C19.8463 74.4249 23.4707 77.1429 27.6429 77.1429C32.6674 77.1429 36.9013 73.2317 37.2819 68.2406C37.2831 68.2239 37.2754 68.2084 37.2754 68.1917C37.2767 68.1737 37.2857 68.1609 37.2857 68.1429V7.85571C37.476 7.06629 38.745 2.57143 43.0714 2.57143C46.0556 2.57143 48.5859 4.90114 48.8301 7.87371C48.87 8.34171 49.1606 8.75186 49.5913 8.94343C50.0194 9.13371 50.5196 9.07457 50.8937 8.78914C51.813 8.08586 52.8866 7.71429 54 7.71429C56.8363 7.71429 59.1429 10.0209 59.1429 12.8571C59.1429 13.2094 59.0991 13.5759 59.0091 13.977C58.9346 14.319 59.0014 14.6777 59.1956 14.9696C59.3897 15.2614 59.697 15.4607 60.0416 15.5224C62.4999 15.957 64.2857 18.0797 64.2857 20.5714C64.2857 21.816 63.8151 23.0271 62.9589 23.9824C62.6747 24.3 62.5654 24.7384 62.6683 25.1524C62.7724 25.5651 63.0746 25.9007 63.4744 26.0473C65.4969 26.7891 66.8571 28.7216 66.8571 30.8571C66.8571 31.9089 66.5331 32.9259 65.9199 33.8014C65.7154 34.0933 65.6409 34.4559 65.7141 34.8056C65.7887 35.154 66.0034 35.4561 66.3081 35.64C68.2624 36.8177 69.4286 38.8749 69.4286 41.1429C69.4286 43.5549 68.0927 45.7444 65.9404 46.854C65.4904 47.0867 65.2179 47.565 65.2474 48.0729C65.277 48.5794 65.6036 49.0217 66.0806 49.2004C68.0824 49.9513 69.4286 51.8799 69.4286 54C69.4286 56.8363 67.122 59.1429 64.2857 59.1429C63.927 59.1429 63.5426 59.094 63.1119 58.9937C62.5719 58.8664 62.0203 59.0979 61.7284 59.5646C61.4366 60.0313 61.4751 60.6317 61.8223 61.0573C62.5937 62.0023 63 63.1183 63 64.2857C63 67.122 60.6934 69.4286 57.8571 69.4286C56.232 69.4286 54.7329 68.6674 53.7454 67.3393C53.4137 66.8957 52.8364 66.7144 52.3106 66.8867C52.1203 66.9497 51.9531 67.0539 51.8181 67.1863C51.579 67.3997 51.4209 67.7031 51.3951 68.0451C51.1161 71.7056 48.0253 74.5714 44.3571 74.5714C42.741 74.5714 41.2161 74.0404 39.9471 73.0363C39.3879 72.5953 38.5817 72.6904 38.1407 73.2459C37.6997 73.8026 37.7949 74.6113 38.3503 75.0523C40.0539 76.3997 42.1881 77.1429 44.3571 77.1429C48.5319 77.1429 52.1589 74.4197 53.4677 70.6179C54.7393 71.5127 56.2564 72 57.8571 72C62.1116 72 65.5714 68.5401 65.5714 64.2857C65.5714 63.3831 65.4133 62.5037 65.1047 61.6706C68.9747 61.2604 72 57.9767 72 54C72 51.5777 70.8351 49.3226 68.9567 47.8864ZM46.2857 57.8571C46.2857 58.5669 46.8604 59.1429 47.5714 59.1429C49.446 59.1429 51.4286 61.1254 51.4286 63C51.4286 63.7097 52.0033 64.2857 52.7143 64.2857C53.4253 64.2857 54 63.7097 54 63C54 59.6957 50.8757 56.5714 47.5714 56.5714C46.8604 56.5714 46.2857 57.1474 46.2857 57.8571ZM57.8571 23.1429C55.9826 23.1429 54 21.1603 54 19.2857C54 18.576 53.4253 18 52.7143 18C52.0033 18 51.4286 18.576 51.4286 19.2857C51.4286 22.59 54.5529 25.7143 57.8571 25.7143C58.5681 25.7143 59.1429 25.1383 59.1429 24.4286C59.1429 23.7189 58.5681 23.1429 57.8571 23.1429ZM42.4286 51.4286C43.1396 51.4286 43.7143 50.8526 43.7143 50.1429C43.7143 48.2683 45.6969 46.2857 47.5714 46.2857C48.2824 46.2857 48.8571 45.7097 48.8571 45C48.8571 44.2903 48.2824 43.7143 47.5714 43.7143C44.2671 43.7143 41.1429 46.8386 41.1429 50.1429C41.1429 50.8526 41.7176 51.4286 42.4286 51.4286ZM47.5714 36C48.2824 36 48.8571 35.424 48.8571 34.7143C48.8571 34.0046 48.2824 33.4286 47.5714 33.4286C45.6969 33.4286 43.7143 31.446 43.7143 29.5714C43.7143 28.8617 43.1396 28.2857 42.4286 28.2857C41.7176 28.2857 41.1429 28.8617 41.1429 29.5714C41.1429 32.8757 44.2671 36 47.5714 36ZM60.4286 30.8571C59.7176 30.8571 59.1429 31.4331 59.1429 32.1429C59.1429 34.0174 57.1603 36 55.2857 36C54.5747 36 54 36.576 54 37.2857C54 37.9954 54.5747 38.5714 55.2857 38.5714C58.59 38.5714 61.7143 35.4471 61.7143 32.1429C61.7143 31.4331 61.1396 30.8571 60.4286 30.8571ZM55.2857 46.2857C54.5747 46.2857 54 46.8617 54 47.5714C54 48.2811 54.5747 48.8571 55.2857 48.8571C57.1603 48.8571 59.1429 50.8397 59.1429 52.7143C59.1429 53.424 59.7176 54 60.4286 54C61.1396 54 61.7143 53.424 61.7143 52.7143C61.7143 49.41 58.59 46.2857 55.2857 46.2857ZM41.1429 18C41.1429 14.6957 44.2671 11.5714 47.5714 11.5714C48.2824 11.5714 48.8571 12.1474 48.8571 12.8571C48.8571 13.5669 48.2824 14.1429 47.5714 14.1429C45.6969 14.1429 43.7143 16.1254 43.7143 18C43.7143 18.7097 43.1396 19.2857 42.4286 19.2857C41.7176 19.2857 41.1429 18.7097 41.1429 18Z" fill="#3b82f6" stroke="#3b82f6" stroke-width="16" mask="url(#path-1-inside-1_1923_1232)"/>
</svg>
