<svg width="73" height="78" viewBox="0 0 73 78" fill="none" xmlns="http://www.w3.org/2000/svg">
<g id="Frame" clip-path="url(#clip0_1047_493)">
<g id="People">
<g id="Icon-9">
<path id="android-brain" fill-rule="evenodd" clip-rule="evenodd" d="M26.1865 34.7143C26.1865 35.4227 26.7625 36 27.4722 36C28.1819 36 28.7579 35.4227 28.7579 34.7143C28.7579 34.0059 28.1819 33.4286 27.4722 33.4286C26.7625 33.4286 26.1865 34.0059 26.1865 34.7143ZM28.7579 57.8571C28.7579 57.1487 28.1819 56.5714 27.4722 56.5714C26.7625 56.5714 26.1865 57.1487 26.1865 57.8571C26.1865 58.5656 26.7625 59.1429 27.4722 59.1429C28.1819 59.1429 28.7579 58.5656 28.7579 57.8571ZM18.4722 34.7143C18.4722 34.0059 17.8962 33.4286 17.1865 33.4286C16.4768 33.4286 15.9008 34.0059 15.9008 34.7143C15.9008 35.4227 16.4768 36 17.1865 36C17.8962 36 18.4722 35.4227 18.4722 34.7143ZM18.4722 50.1429C18.4722 49.4344 17.8962 48.8571 17.1865 48.8571C16.4768 48.8571 15.9008 49.4344 15.9008 50.1429C15.9008 50.8513 16.4768 51.4286 17.1865 51.4286C17.8962 51.4286 18.4722 50.8513 18.4722 50.1429ZM26.1865 21.8571C26.1865 22.5656 26.7625 23.1429 27.4722 23.1429C28.1819 23.1429 28.7579 22.5656 28.7579 21.8571C28.7579 21.1487 28.1819 20.5714 27.4722 20.5714C26.7625 20.5714 26.1865 21.1487 26.1865 21.8571ZM18.4722 23.1429V31.0937C19.5625 31.482 20.4188 32.3396 20.8058 33.4286H23.8529C24.3852 31.9346 25.7982 30.8571 27.4722 30.8571C29.5988 30.8571 31.3294 32.5877 31.3294 34.7143C31.3294 36.3883 30.2507 37.8013 28.7579 38.3349V54.2366C30.2507 54.7701 31.3294 56.1831 31.3294 57.8571C31.3294 59.5311 30.2507 60.9441 28.7579 61.4777V65.5714C28.7579 66.2811 28.1832 66.8571 27.4722 66.8571C26.7612 66.8571 26.1865 66.2811 26.1865 65.5714V61.4764C24.8738 61.0097 23.8954 59.8603 23.6755 58.4486L18.8489 53.6233C18.8451 53.6207 18.8451 53.6156 18.8412 53.6117C18.3385 53.8534 17.7818 54 17.1865 54C15.0599 54 13.3294 52.2694 13.3294 50.1429C13.3294 48.0163 15.0599 46.2857 17.1865 46.2857C19.3131 46.2857 21.0437 48.0163 21.0437 50.1429C21.0437 50.7369 20.8971 51.2949 20.6554 51.7976C20.6592 51.8014 20.6631 51.8027 20.6669 51.8053L24.4045 55.5441C24.8558 54.9476 25.4704 54.4924 26.1865 54.2366V38.3336C25.0962 37.9466 24.2399 37.089 23.8529 36H20.8058C20.2735 37.494 18.8605 38.5714 17.1865 38.5714C15.0599 38.5714 13.3294 36.8409 13.3294 34.7143C13.3294 33.0403 14.4081 31.6273 15.9008 31.0937V21.8571C15.9008 21.1474 16.4755 20.5714 17.1865 20.5714H23.8529C24.2399 19.4824 25.0962 18.6249 26.1865 18.2366V14.1429C26.1865 13.4331 26.7612 12.8571 27.4722 12.8571C28.1832 12.8571 28.7579 13.4331 28.7579 14.1429V18.2366C30.2507 18.7701 31.3294 20.1831 31.3294 21.8571C31.3294 23.9837 29.5988 25.7143 27.4722 25.7143C25.7982 25.7143 24.3852 24.6369 23.8529 23.1429H18.4722ZM69.4289 47.8864C71.3434 46.2034 72.4722 43.7683 72.4722 41.1429C72.4722 38.3914 71.2495 35.8637 69.1487 34.1666C69.6437 33.1341 69.9008 32.0091 69.9008 30.8571C69.9008 28.2034 68.5084 25.7593 66.3111 24.3643C66.9745 23.2084 67.3294 21.9047 67.3294 20.5714C67.3294 17.2543 65.2221 14.3704 62.1724 13.3059C62.1814 13.1554 62.1865 13.0063 62.1865 12.8571C62.1865 8.60271 58.7267 5.14286 54.4722 5.14286C53.4347 5.14286 52.4241 5.35371 51.4804 5.76C50.3747 2.412 47.1951 0 43.5437 0C38.1334 0 35.7278 4.88057 35.2122 7.46229C35.2032 7.50471 35.2148 7.54586 35.2122 7.58957C35.2084 7.63329 35.1865 7.66929 35.1865 7.71429V68.0657C34.8959 71.7159 31.7961 74.5714 28.1151 74.5714C24.4469 74.5714 21.3561 71.7056 21.0771 68.0451C21.0257 67.3753 20.4291 66.8571 19.7579 66.8571C19.3568 66.8571 18.9788 67.0449 18.7345 67.3637C17.7368 68.6764 16.2351 69.4286 14.6151 69.4286C11.7788 69.4286 9.47223 67.122 9.47223 64.2857C9.47223 63.1183 9.87852 62.0023 10.6499 61.0573C10.9971 60.6317 11.0357 60.0313 10.7438 59.5646C10.4532 59.0979 9.90294 58.8664 9.36037 58.9937C8.92966 59.094 8.54523 59.1429 8.18651 59.1429C5.35023 59.1429 3.04366 56.8363 3.04366 54C3.04366 51.8799 4.3898 49.9513 6.39166 49.2004C6.86866 49.0217 7.19523 48.5794 7.2248 48.0729C7.25437 47.565 6.9818 47.0867 6.5318 46.854C4.37951 45.7444 3.04366 43.5549 3.04366 41.1429C3.04366 38.8749 4.2098 36.8177 6.16409 35.64C6.4688 35.4561 6.68351 35.154 6.75809 34.8056C6.83137 34.4559 6.7568 34.0933 6.55237 33.8014C5.93909 32.9259 5.61509 31.9089 5.61509 30.8571C5.61509 28.7216 6.97537 26.7891 8.9978 26.0473C9.39766 25.9007 9.6998 25.5651 9.80394 25.1524C9.9068 24.7384 9.79751 24.3 9.51337 23.9824C8.65709 23.0271 8.18651 21.816 8.18651 20.5714C8.18651 18.0797 9.97237 15.957 12.4307 15.5224C12.7752 15.4607 13.0825 15.2614 13.2767 14.9696C13.4708 14.6777 13.5377 14.319 13.4631 13.977C13.3731 13.5759 13.3294 13.2094 13.3294 12.8571C13.3294 10.0209 15.6359 7.71429 18.4722 7.71429C19.5857 7.71429 20.6592 8.08586 21.5785 8.78914C21.9527 9.07457 22.4528 9.13371 22.8809 8.94343C23.3117 8.75186 23.6022 8.34171 23.6421 7.87371C23.8864 4.90114 26.4167 2.57143 29.4008 2.57143C30.8331 2.57143 32.0172 3.03171 33.0201 3.978C33.5382 4.46529 34.3521 4.44086 34.8381 3.924C35.3254 3.40714 35.3022 2.59457 34.7854 2.10729C33.3029 0.708429 31.4914 0 29.4008 0C25.7494 0 22.5698 2.412 21.4641 5.76C20.5204 5.35371 19.5098 5.14286 18.4722 5.14286C14.2178 5.14286 10.7579 8.60271 10.7579 12.8571C10.7579 13.0063 10.7631 13.1554 10.7721 13.3059C7.72237 14.3704 5.61509 17.2543 5.61509 20.5714C5.61509 21.9047 5.96994 23.2084 6.63337 24.3643C4.43609 25.7593 3.04366 28.2034 3.04366 30.8571C3.04366 32.0091 3.3008 33.1341 3.7958 34.1666C1.69494 35.8637 0.472229 38.3914 0.472229 41.1429C0.472229 43.7683 1.60109 46.2034 3.51551 47.8864C1.63709 49.3226 0.472229 51.5777 0.472229 54C0.472229 57.9767 3.49751 61.2604 7.36751 61.6706C7.05894 62.5037 6.9008 63.3831 6.9008 64.2857C6.9008 68.5401 10.3607 72 14.6151 72C16.2119 72 17.7317 71.5153 19.0071 70.6269C20.3185 74.4249 23.9429 77.1429 28.1151 77.1429C33.1397 77.1429 37.3735 73.2317 37.7541 68.2406C37.7554 68.2239 37.7477 68.2084 37.7477 68.1917C37.7489 68.1737 37.7579 68.1609 37.7579 68.1429V7.85571C37.9482 7.06629 39.2172 2.57143 43.5437 2.57143C46.5278 2.57143 49.0581 4.90114 49.3024 7.87371C49.3422 8.34171 49.6328 8.75186 50.0635 8.94343C50.4917 9.13371 50.9918 9.07457 51.3659 8.78914C52.2852 8.08586 53.3588 7.71429 54.4722 7.71429C57.3085 7.71429 59.6151 10.0209 59.6151 12.8571C59.6151 13.2094 59.5714 13.5759 59.4814 13.977C59.4068 14.319 59.4737 14.6777 59.6678 14.9696C59.8619 15.2614 60.1692 15.4607 60.5138 15.5224C62.9721 15.957 64.7579 18.0797 64.7579 20.5714C64.7579 21.816 64.2874 23.0271 63.4311 23.9824C63.1469 24.3 63.0377 24.7384 63.1405 25.1524C63.2447 25.5651 63.5468 25.9007 63.9467 26.0473C65.9691 26.7891 67.3294 28.7216 67.3294 30.8571C67.3294 31.9089 67.0054 32.9259 66.3921 33.8014C66.1877 34.0933 66.1131 34.4559 66.1864 34.8056C66.2609 35.154 66.4757 35.4561 66.7804 35.64C68.7347 36.8177 69.9008 38.8749 69.9008 41.1429C69.9008 43.5549 68.5649 45.7444 66.4127 46.854C65.9627 47.0867 65.6901 47.565 65.7197 48.0729C65.7492 48.5794 66.0758 49.0217 66.5528 49.2004C68.5547 49.9513 69.9008 51.8799 69.9008 54C69.9008 56.8363 67.5942 59.1429 64.7579 59.1429C64.3992 59.1429 64.0148 59.094 63.5841 58.9937C63.0441 58.8664 62.4925 59.0979 62.2007 59.5646C61.9088 60.0313 61.9474 60.6317 62.2945 61.0573C63.0659 62.0023 63.4722 63.1183 63.4722 64.2857C63.4722 67.122 61.1657 69.4286 58.3294 69.4286C56.7042 69.4286 55.2051 68.6674 54.2177 67.3393C53.8859 66.8957 53.3087 66.7144 52.7828 66.8867C52.5925 66.9497 52.4254 67.0539 52.2904 67.1863C52.0512 67.3997 51.8931 67.7031 51.8674 68.0451C51.5884 71.7056 48.4975 74.5714 44.8294 74.5714C43.2132 74.5714 41.6884 74.0404 40.4194 73.0363C39.8601 72.5953 39.0539 72.6904 38.6129 73.2459C38.1719 73.8026 38.2671 74.6113 38.8225 75.0523C40.5261 76.3997 42.6604 77.1429 44.8294 77.1429C49.0041 77.1429 52.6311 74.4197 53.9399 70.6179C55.2115 71.5127 56.7287 72 58.3294 72C62.5838 72 66.0437 68.5401 66.0437 64.2857C66.0437 63.3831 65.8855 62.5037 65.5769 61.6706C69.4469 61.2604 72.4722 57.9767 72.4722 54C72.4722 51.5777 71.3074 49.3226 69.4289 47.8864ZM46.7579 57.8571C46.7579 58.5669 47.3327 59.1429 48.0437 59.1429C49.9182 59.1429 51.9008 61.1254 51.9008 63C51.9008 63.7097 52.4755 64.2857 53.1865 64.2857C53.8975 64.2857 54.4722 63.7097 54.4722 63C54.4722 59.6957 51.3479 56.5714 48.0437 56.5714C47.3327 56.5714 46.7579 57.1474 46.7579 57.8571ZM58.3294 23.1429C56.4548 23.1429 54.4722 21.1603 54.4722 19.2857C54.4722 18.576 53.8975 18 53.1865 18C52.4755 18 51.9008 18.576 51.9008 19.2857C51.9008 22.59 55.0251 25.7143 58.3294 25.7143C59.0404 25.7143 59.6151 25.1383 59.6151 24.4286C59.6151 23.7189 59.0404 23.1429 58.3294 23.1429ZM42.9008 51.4286C43.6118 51.4286 44.1865 50.8526 44.1865 50.1429C44.1865 48.2683 46.1691 46.2857 48.0437 46.2857C48.7547 46.2857 49.3294 45.7097 49.3294 45C49.3294 44.2903 48.7547 43.7143 48.0437 43.7143C44.7394 43.7143 41.6151 46.8386 41.6151 50.1429C41.6151 50.8526 42.1898 51.4286 42.9008 51.4286ZM48.0437 36C48.7547 36 49.3294 35.424 49.3294 34.7143C49.3294 34.0046 48.7547 33.4286 48.0437 33.4286C46.1691 33.4286 44.1865 31.446 44.1865 29.5714C44.1865 28.8617 43.6118 28.2857 42.9008 28.2857C42.1898 28.2857 41.6151 28.8617 41.6151 29.5714C41.6151 32.8757 44.7394 36 48.0437 36ZM60.9008 30.8571C60.1898 30.8571 59.6151 31.4331 59.6151 32.1429C59.6151 34.0174 57.6325 36 55.7579 36C55.0469 36 54.4722 36.576 54.4722 37.2857C54.4722 37.9954 55.0469 38.5714 55.7579 38.5714C59.0622 38.5714 62.1865 35.4471 62.1865 32.1429C62.1865 31.4331 61.6118 30.8571 60.9008 30.8571ZM55.7579 46.2857C55.0469 46.2857 54.4722 46.8617 54.4722 47.5714C54.4722 48.2811 55.0469 48.8571 55.7579 48.8571C57.6325 48.8571 59.6151 50.8397 59.6151 52.7143C59.6151 53.424 60.1898 54 60.9008 54C61.6118 54 62.1865 53.424 62.1865 52.7143C62.1865 49.41 59.0622 46.2857 55.7579 46.2857ZM41.6151 18C41.6151 14.6957 44.7394 11.5714 48.0437 11.5714C48.7547 11.5714 49.3294 12.1474 49.3294 12.8571C49.3294 13.5669 48.7547 14.1429 48.0437 14.1429C46.1691 14.1429 44.1865 16.1254 44.1865 18C44.1865 18.7097 43.6118 19.2857 42.9008 19.2857C42.1898 19.2857 41.6151 18.7097 41.6151 18Z" fill="#F6F6F6"/>
</g>
</g>
</g>
<defs>
<clipPath id="clip0_1047_493">
<rect width="72" height="77.1429" fill="white" transform="translate(0.472229)"/>
</clipPath>
</defs>
</svg>
