<svg xmlns="http://www.w3.org/2000/svg" viewBox="0 0 365.38 314.47"><defs><style>.cls-1{fill:#1e293b;}.cls-2{fill:#334155;}.cls-3{fill:#bfdbfe;}.cls-4{fill:#cbd5e1;}</style></defs><g id="Layer_2" data-name="Layer 2"><g id="Layer_1-2" data-name="Layer 1"><path class="cls-1" d="M250.81,57c15.73.55,28.62,6.87,36.11,20.9,15.17,28.4,30,57,44.15,85.93,9.88,20.14,1.2,43.81-19.25,54.55-24.46,12.84-49.11,25.31-73.69,37.92q-51.19,26.28-102.39,52.53c-23.55,12.05-47.49,4.37-59.59-19.13Q56,250.58,36,211.38c-11.81-23.09-4.07-47.16,18.93-59q87.47-45,174.93-89.87C236.4,59.14,243.24,56.82,250.81,57ZM116.15,289.64a57.37,57.37,0,0,0,8.12-3q87.31-44.7,174.56-89.55c11-5.67,14-14.81,8.4-25.75q-20-39-40-77.9c-6-11.65-14.94-14.45-26.7-8.41l-97,49.8q-39,20-77.9,40c-9.19,4.74-13,14-8.58,22.66,14,27.86,28.33,55.59,42.69,83.28C102.71,286.63,108,289.35,116.15,289.64Z"/><path class="cls-2" d="M13.58,0H37.93V125.33H13.58Z"/><path class="cls-1" d="M66.43,31.3H90.54v71.5H66.43Z"/><path class="cls-2" d="M312.7,81.46l22.14-11.4,30.54,59.46-22.14,11.39C333.05,121.06,323,101.51,312.7,81.46Z"/><path class="cls-2" d="M52.68,290.06,30.54,301.44C20.39,281.68,10.29,262,0,242l22.14-11.39Z"/><path class="cls-1" d="M119.49,58.05h24.25V87.22H119.49Z"/><path class="cls-3" d="M259.16,146.11,280.31,153l-7.55,23.59-21.25-6.71-7,21.19L221,183.51c2.29-7.23,4.43-14,6.71-21.24l-21.19-6.94,7.6-23.6,21.22,6.7c2.35-7.13,4.61-14,7-21.17l23.54,7.57Z"/><path class="cls-4" d="M114,220.62l-21.17-6.94,7.58-23.59,21.24,6.72c2.26-6.9,4.51-13.75,7-21.17l23.6,7.54c-2.27,7.2-4.43,14.08-6.69,21.28l21.18,6.94c-2.56,8-5,15.54-7.6,23.58l-21.25-6.69c-2.34,7.14-4.6,14-7,21.17l-23.56-7.57C109.51,234.77,111.68,227.89,114,220.62Z"/></g></g></svg>