<?xml version="1.0" encoding="utf-8"?>
<!-- Generator: Adobe Illustrator 26.0.0, SVG Export Plug-In . SVG Version: 6.00 Build 0)  -->
<svg version="1.1" id="Layer_1" xmlns="http://www.w3.org/2000/svg" xmlns:xlink="http://www.w3.org/1999/xlink" x="0px" y="0px"
	 viewBox="0 0 90.1 87" style="enable-background:new 0 0 90.1 87;" xml:space="preserve">
<style type="text/css">
	.st0{fill-rule:evenodd;clip-rule:evenodd;fill:#F6F6F6;}
</style>
<path class="st0" d="M59.7,2.7c-9.7-2.2-19.8-2.2-29.5,0C16.2,5.8,5.3,16.3,2,29.7C-0.3,39-0.3,48.7,2,58
	c3.3,13.4,14.2,23.9,28.2,27c9.7,2.2,19.8,2.2,29.5,0c14-3.1,24.9-13.6,28.2-27c2.3-9.3,2.3-19,0-28.2C84.6,16.3,73.7,5.8,59.7,2.7z
	 M23.8,30.7c1-1.2,2.8-1.3,4-0.3l9.9,7.9c3.6,2.9,3.6,8.3,0,11.2l-9.9,7.9c-1.2,1-3,0.8-4-0.3c-1-1.2-0.8-2.9,0.4-3.8l9.9-7.9
	c0.9-0.7,0.9-2.1,0-2.8l-9.9-7.9C22.9,33.6,22.8,31.9,23.8,30.7z M47.3,52.5c-1.6,0-2.8,1.2-2.8,2.7c0,1.5,1.3,2.7,2.8,2.7h16.6
	c1.6,0,2.8-1.2,2.8-2.7c0-1.5-1.3-2.7-2.8-2.7H47.3z"/>
</svg>
