<svg width="69" height="67" viewBox="0 0 69 67" fill="none" xmlns="http://www.w3.org/2000/svg">
<path fill-rule="evenodd" clip-rule="evenodd" d="M45.256 2.11385C37.8696 0.453585 30.1827 0.453585 22.7966 2.11385C12.13 4.51146 3.80149 12.4924 1.29943 22.7138C-0.433144 29.7918 -0.433144 37.1579 1.29943 44.2359C3.80149 54.4572 12.13 62.4381 22.7966 64.8358C30.1827 66.4962 37.8696 66.4962 45.256 64.8358C55.9224 62.4381 64.2509 54.4572 66.753 44.2359C68.4856 37.1579 68.4856 29.7918 66.753 22.7139C64.2509 12.4925 55.9224 4.51146 45.256 2.11385ZM17.8811 23.4722C18.6489 22.5893 20.0181 22.47 20.9395 23.2057L28.4606 29.2117C31.2387 31.4304 31.2387 35.5192 28.4606 37.7375L20.9395 43.7436C20.0181 44.4794 18.6489 44.3602 17.8811 43.4773C17.1133 42.5944 17.2378 41.2822 18.1591 40.5464L25.6803 34.5403C26.3748 33.9856 26.3748 32.9636 25.6803 32.409L18.1591 26.4029C17.2378 25.6672 17.1133 24.3551 17.8811 23.4722ZM35.8356 40.0642C34.6364 40.0642 33.664 40.996 33.664 42.1452C33.664 43.2943 34.6364 44.2262 35.8356 44.2262H48.5028C49.7021 44.2262 50.6745 43.2943 50.6745 42.1452C50.6745 40.996 49.7021 40.0642 48.5028 40.0642H35.8356Z" fill="#3b82f6"/>
</svg>
