<svg width="62" height="75" viewBox="0 0 62 75" fill="none" xmlns="http://www.w3.org/2000/svg">
<path d="M60.8017 30.6818H59.0772C58.9344 25.0634 57.1015 19.6185 53.8176 15.0575C50.5336 10.4964 45.9512 7.03113 40.6681 5.11367H54.9568C55.1643 5.91707 55.6576 6.61724 56.3443 7.08293C57.0311 7.54862 57.8641 7.74787 58.6872 7.64331C59.5104 7.53876 60.2671 7.13759 60.8156 6.515C61.3641 5.89241 61.6668 5.09114 61.6668 4.26139C61.6668 3.43164 61.3641 2.63038 60.8156 2.00779C60.2671 1.3852 59.5104 0.984027 58.6872 0.879475C57.8641 0.774923 57.0311 0.974166 56.3443 1.43986C55.6576 1.90555 55.1643 2.60572 54.9568 3.40912H34.3813V1.70458C34.3813 1.47854 34.2915 1.26176 34.1316 1.10193C33.9718 0.942096 33.755 0.852303 33.529 0.852303H28.4154C28.1893 0.852303 27.9725 0.942096 27.8127 1.10193C27.6529 1.26176 27.5631 1.47854 27.5631 1.70458V3.40912H6.98752C6.78008 2.60572 6.28675 1.90555 5.60001 1.43986C4.91327 0.974166 4.08026 0.774923 3.25712 0.879475C2.43398 0.984027 1.67723 1.3852 1.12872 2.00779C0.580206 2.63038 0.277588 3.43164 0.277588 4.26139C0.277588 5.09114 0.580206 5.89241 1.12872 6.515C1.67723 7.13759 2.43398 7.53876 3.25712 7.64331C4.08026 7.74787 4.91327 7.54862 5.60001 7.08293C6.28675 6.61724 6.78008 5.91707 6.98752 5.11367H21.276C15.993 7.03113 11.4106 10.4964 8.12664 15.0575C4.8427 19.6185 3.00975 25.0634 2.86695 30.6818H1.14263C0.916594 30.6818 0.699815 30.7716 0.539983 30.9315C0.380151 31.0913 0.290358 31.3081 0.290358 31.5341V36.6478C0.290358 36.8738 0.380151 37.0906 0.539983 37.2504C0.699815 37.4102 0.916594 37.5 1.14263 37.5H6.25627C6.4823 37.5 6.69908 37.4102 6.85891 37.2504C7.01875 37.0906 7.10854 36.8738 7.10854 36.6478V31.5341C7.10854 31.3081 7.01875 31.0913 6.85891 30.9315C6.69908 30.7716 6.4823 30.6818 6.25627 30.6818H4.57166C4.74269 24.4069 7.15561 18.4007 11.3733 13.7515C15.591 9.10227 21.3344 6.11748 27.5631 5.3379V6.81821C27.5631 7.04425 27.6529 7.26103 27.8127 7.42086C27.9725 7.58069 28.1893 7.67048 28.4154 7.67048H33.529C33.755 7.67048 33.9718 7.58069 34.1316 7.42086C34.2915 7.26103 34.3813 7.04425 34.3813 6.81821V5.3379C40.6099 6.11748 46.3534 9.10227 50.5711 13.7515C54.7887 18.4007 57.2017 24.4069 57.3727 30.6818H55.6881C55.4621 30.6818 55.2453 30.7716 55.0854 30.9315C54.9256 31.0913 54.8358 31.3081 54.8358 31.5341V36.6478C54.8358 36.8738 54.9256 37.0906 55.0854 37.2504C55.2453 37.4102 55.4621 37.5 55.6881 37.5H60.8017C61.0278 37.5 61.2445 37.4102 61.4044 37.2504C61.5642 37.0906 61.654 36.8738 61.654 36.6478V31.5341C61.654 31.3081 61.5642 31.0913 61.4044 30.9315C61.2445 30.7716 61.0278 30.6818 60.8017 30.6818Z" fill="#3b82f6"/>
<path d="M33.4391 11.4712C33.3532 11.2995 33.2119 11.1617 33.038 11.0804C32.8641 10.999 32.6678 10.9787 32.4809 11.0228C32.294 11.0669 32.1275 11.1729 32.0084 11.3235C31.8892 11.474 31.8244 11.6605 31.8245 11.8525V39.4746C31.8245 39.6396 31.8724 39.801 31.9624 39.9393C32.0523 40.0776 32.1805 40.1867 32.3313 40.2536C33.05 40.566 33.6391 41.1165 33.9994 41.8123C34.3598 42.5082 34.4694 43.3069 34.3099 44.0742C34.1503 44.8414 33.7313 45.5302 33.1234 46.0247C32.5155 46.5192 31.7558 46.7892 30.9722 46.7892C30.1886 46.7892 29.4289 46.5192 28.8209 46.0247C28.213 45.5302 27.7941 44.8414 27.6345 44.0742C27.475 43.3069 27.5846 42.5082 27.945 41.8123C28.3053 41.1165 28.8944 40.566 29.6131 40.2536C29.7639 40.1867 29.892 40.0776 29.982 39.9393C30.072 39.801 30.1199 39.6396 30.1199 39.4746V11.8525C30.12 11.6605 30.0552 11.474 29.936 11.3235C29.8169 11.1729 29.6504 11.0669 29.4635 11.0228C29.2766 10.9787 29.0803 10.999 28.9064 11.0804C28.7325 11.1617 28.5911 11.2995 28.5053 11.4712L12.3121 43.8576C12.253 43.976 12.2222 44.1065 12.2222 44.2388C12.2222 44.3712 12.253 44.5017 12.3121 44.6201L18.5135 57.0229H43.4309L49.6323 44.6201C49.6914 44.5017 49.7222 44.3712 49.7222 44.2388C49.7222 44.1065 49.6914 43.976 49.6323 43.8576L33.4391 11.4712Z" fill="#3b82f6"/>
<path d="M45.4609 58.8069H16.4836C16.0129 58.8069 15.6313 59.1885 15.6313 59.6592V64.7728C15.6313 65.2435 16.0129 65.6251 16.4836 65.6251H45.4609C45.9316 65.6251 46.3132 65.2435 46.3132 64.7728V59.6592C46.3132 59.1885 45.9316 58.8069 45.4609 58.8069Z" fill="#3b82f6"/>
<path d="M18.188 73.2162C18.188 73.4422 18.2778 73.659 18.4376 73.8188C18.5974 73.9786 18.8142 74.0684 19.0403 74.0684H42.9039C43.1299 74.0684 43.3467 73.9786 43.5065 73.8188C43.6664 73.659 43.7562 73.4422 43.7562 73.2162V67.2502H18.188V73.2162Z" fill="#3b82f6"/>
</svg>
