<svg width="76" height="75" viewBox="0 0 76 75" fill="none" xmlns="http://www.w3.org/2000/svg">
<g id="Frame">
<g id="Pentool">
<path id="Vector" d="M67.8018 30.6818H66.0773C65.9345 25.0634 64.1015 19.6185 60.8176 15.0575C57.5337 10.4964 52.9512 7.03113 47.6682 5.11367H61.9569C62.1643 5.91707 62.6577 6.61724 63.3444 7.08293C64.0311 7.54862 64.8642 7.74787 65.6873 7.64331C66.5104 7.53876 67.2672 7.13759 67.8157 6.515C68.3642 5.89241 68.6668 5.09114 68.6668 4.26139C68.6668 3.43164 68.3642 2.63038 67.8157 2.00779C67.2672 1.3852 66.5104 0.984027 65.6873 0.879475C64.8642 0.774923 64.0311 0.974166 63.3444 1.43986C62.6577 1.90555 62.1643 2.60572 61.9569 3.40912H41.3813V1.70458C41.3813 1.47854 41.2915 1.26176 41.1317 1.10193C40.9719 0.942096 40.7551 0.852303 40.5291 0.852303H35.4154C35.1894 0.852303 34.9726 0.942096 34.8128 1.10193C34.6529 1.26176 34.5631 1.47854 34.5631 1.70458V3.40912H13.9876C13.7801 2.60572 13.2868 1.90555 12.6001 1.43986C11.9133 0.974166 11.0803 0.774923 10.2572 0.879475C9.43404 0.984027 8.67729 1.3852 8.12878 2.00779C7.58027 2.63038 7.27765 3.43164 7.27765 4.26139C7.27765 5.09114 7.58027 5.89241 8.12878 6.515C8.67729 7.13759 9.43404 7.53876 10.2572 7.64331C11.0803 7.74787 11.9133 7.54862 12.6001 7.08293C13.2868 6.61724 13.7801 5.91707 13.9876 5.11367H28.2761C22.9931 7.03113 18.4106 10.4964 15.1267 15.0575C11.8428 19.6185 10.0098 25.0634 9.86701 30.6818H8.14269C7.91665 30.6818 7.69988 30.7716 7.54004 30.9315C7.38021 31.0913 7.29042 31.3081 7.29042 31.5341V36.6478C7.29042 36.8738 7.38021 37.0906 7.54004 37.2504C7.69988 37.4102 7.91665 37.5 8.14269 37.5H13.2563C13.4824 37.5 13.6991 37.4102 13.859 37.2504C14.0188 37.0906 14.1086 36.8738 14.1086 36.6478V31.5341C14.1086 31.3081 14.0188 31.0913 13.859 30.9315C13.6991 30.7716 13.4824 30.6818 13.2563 30.6818H11.5717C11.7427 24.4069 14.1557 18.4007 18.3733 13.7515C22.591 9.10227 28.3345 6.11748 34.5631 5.3379V6.81821C34.5631 7.04425 34.6529 7.26103 34.8128 7.42086C34.9726 7.58069 35.1894 7.67048 35.4154 7.67048H40.5291C40.7551 7.67048 40.9719 7.58069 41.1317 7.42086C41.2915 7.26103 41.3813 7.04425 41.3813 6.81821V5.3379C47.61 6.11748 53.3535 9.10227 57.5711 13.7515C61.7888 18.4007 64.2017 24.4069 64.3727 30.6818H62.6881C62.4621 30.6818 62.2453 30.7716 62.0855 30.9315C61.9257 31.0913 61.8359 31.3081 61.8359 31.5341V36.6478C61.8359 36.8738 61.9257 37.0906 62.0855 37.2504C62.2453 37.4102 62.4621 37.5 62.6881 37.5H67.8018C68.0278 37.5 68.2446 37.4102 68.4044 37.2504C68.5643 37.0906 68.6541 36.8738 68.6541 36.6478V31.5341C68.6541 31.3081 68.5643 31.0913 68.4044 30.9315C68.2446 30.7716 68.0278 30.6818 67.8018 30.6818Z" fill="#F6F6F6"/>
<path id="Vector_2" d="M40.4391 11.5506C40.3533 11.3788 40.212 11.2411 40.0381 11.1597C39.8641 11.0783 39.6678 11.058 39.481 11.1022C39.2941 11.1463 39.1276 11.2522 39.0084 11.4028C38.8893 11.5534 38.8245 11.7398 38.8245 11.9318V39.554C38.8245 39.7189 38.8725 39.8804 38.9624 40.0186C39.0524 40.1569 39.1806 40.2661 39.3314 40.333C40.05 40.6454 40.6391 41.1958 40.9995 41.8917C41.3598 42.5875 41.4695 43.3863 41.3099 44.1535C41.1504 44.9207 40.7314 45.6095 40.1235 46.104C39.5156 46.5985 38.7559 46.8685 37.9722 46.8685C37.1886 46.8685 36.4289 46.5985 35.821 46.104C35.2131 45.6095 34.7941 44.9207 34.6346 44.1535C34.475 43.3863 34.5847 42.5875 34.945 41.8917C35.3054 41.1958 35.8945 40.6454 36.6131 40.333C36.7639 40.2661 36.8921 40.1569 36.9821 40.0186C37.072 39.8804 37.1199 39.7189 37.12 39.554V11.9318C37.12 11.7398 37.0552 11.5534 36.9361 11.4028C36.8169 11.2522 36.6504 11.1463 36.4635 11.1022C36.2767 11.058 36.0804 11.0783 35.9064 11.1597C35.7325 11.2411 35.5912 11.3788 35.5053 11.5506L19.3122 43.937C19.253 44.0553 19.2222 44.1859 19.2222 44.3182C19.2222 44.4505 19.253 44.581 19.3122 44.6994L25.5136 57.1023H50.4309L56.6323 44.6994C56.6915 44.581 56.7223 44.4505 56.7223 44.3182C56.7223 44.1859 56.6915 44.0553 56.6323 43.937L40.4391 11.5506Z" fill="#F6F6F6"/>
<path id="Vector_3" d="M52.4609 58.8068H23.4836C23.0129 58.8068 22.6313 59.1884 22.6313 59.6591V64.7727C22.6313 65.2434 23.0129 65.625 23.4836 65.625H52.4609C52.9316 65.625 53.3132 65.2434 53.3132 64.7727V59.6591C53.3132 59.1884 52.9316 58.8068 52.4609 58.8068Z" fill="#F6F6F6"/>
<path id="Vector_4" d="M25.1881 73.2954C25.1881 73.5215 25.2779 73.7383 25.4377 73.8981C25.5976 74.0579 25.8143 74.1477 26.0404 74.1477H49.904C50.1301 74.1477 50.3468 74.0579 50.5067 73.8981C50.6665 73.7383 50.7563 73.5215 50.7563 73.2954V67.3295H25.1881V73.2954Z" fill="#F6F6F6"/>
</g>
</g>
</svg>
