<svg width="91" height="96" viewBox="0 0 91 96" fill="none" xmlns="http://www.w3.org/2000/svg">
<path d="M21.6507 91.3337C20.5014 91.3337 19.3992 90.8771 18.5866 90.0645C17.7739 89.2518 17.3174 88.1496 17.3174 87.0003V74.0003C17.3174 72.8511 17.7739 71.7489 18.5866 70.9362C19.3992 70.1235 20.5014 69.667 21.6507 69.667C22.8 69.667 23.9022 70.1235 24.7148 70.9362C25.5275 71.7489 25.984 72.8511 25.984 74.0003V87.0003C25.984 88.1496 25.5275 89.2518 24.7148 90.0645C23.9022 90.8771 22.8 91.3337 21.6507 91.3337Z" fill="#3b82f6"/>
<path d="M30.3174 52.3333H17.3174C13.8696 52.3333 10.563 50.9637 8.125 48.5257C5.68702 46.0877 4.31738 42.7811 4.31738 39.3333V22C4.31738 18.5522 5.68702 15.2456 8.125 12.8076C10.563 10.3696 13.8696 9 17.3174 9H51.9841C55.4319 9 58.7385 10.3696 61.1764 12.8076C63.6144 15.2456 64.9841 18.5522 64.9841 22V26.3333C64.9841 27.4826 64.5275 28.5848 63.7148 29.3975C62.9022 30.2101 61.8 30.6667 60.6507 30.6667C59.5014 30.6667 58.3992 30.2101 57.5866 29.3975C56.7739 28.5848 56.3174 27.4826 56.3174 26.3333V22C56.3174 20.8507 55.8608 19.7485 55.0482 18.9359C54.2355 18.1232 53.1333 17.6667 51.9841 17.6667H17.3174C16.1681 17.6667 15.0659 18.1232 14.2533 18.9359C13.4406 19.7485 12.984 20.8507 12.984 22V39.3333C12.984 40.4826 13.4406 41.5848 14.2533 42.3975C15.0659 43.2101 16.1681 43.6667 17.3174 43.6667H30.3174C31.4667 43.6667 32.5689 44.1232 33.3815 44.9359C34.1942 45.7485 34.6507 46.8507 34.6507 48C34.6507 49.1493 34.1942 50.2515 33.3815 51.0641C32.5689 51.8768 31.4667 52.3333 30.3174 52.3333Z" fill="#3b82f6"/>
<path d="M25.9842 35.0001C24.8369 34.9842 23.738 34.5353 22.9075 33.7434C22.513 33.3313 22.2038 32.8454 21.9975 32.3134C21.7755 31.7925 21.6577 31.2331 21.6509 30.6668C21.6668 29.5195 22.1157 28.4205 22.9075 27.5901C23.3287 27.2073 23.8124 26.8996 24.3375 26.6801C25.1267 26.3483 25.9964 26.2576 26.8371 26.4196C27.6777 26.5815 28.4515 26.9888 29.0609 27.5901C29.467 27.993 29.7894 28.4722 30.0094 29.0003C30.2294 29.5283 30.3427 30.0947 30.3427 30.6668C30.3427 31.2388 30.2294 31.8052 30.0094 32.3333C29.7894 32.8613 29.467 33.3406 29.0609 33.7434L28.4109 34.2634L27.6309 34.6534L26.8509 35.0001H25.9842Z" fill="#3b82f6"/>
<path d="M43.3175 35.0001C42.1702 34.9842 41.0713 34.5353 40.2409 33.7434L39.7209 33.0935C39.5569 32.8519 39.4257 32.5896 39.3309 32.3134C39.1757 32.0729 39.0588 31.8098 38.9842 31.5334C38.9649 31.2449 38.9649 30.9553 38.9842 30.6668C39.0001 29.5195 39.449 28.4205 40.2409 27.5901C40.653 27.1956 41.1389 26.8864 41.6709 26.6801C42.46 26.3483 43.3298 26.2576 44.1704 26.4196C45.011 26.5815 45.7848 26.9888 46.3942 27.5901C47.186 28.4205 47.6349 29.5195 47.6509 30.6668C47.6701 30.9553 47.6701 31.2449 47.6509 31.5334C47.6034 31.8049 47.5158 32.0678 47.3909 32.3134C47.296 32.5896 47.1649 32.8519 47.0009 33.0935L46.4809 33.7434C45.6287 34.5558 44.4948 35.0063 43.3175 35.0001Z" fill="#3b82f6"/>
<path d="M34.6507 13.3335C33.5014 13.3335 32.3992 12.877 31.5866 12.0643C30.7739 11.2516 30.3174 10.1494 30.3174 9.00016V4.66683C30.3174 3.51756 30.7739 2.41536 31.5866 1.6027C32.3992 0.790042 33.5014 0.333496 34.6507 0.333496C35.8 0.333496 36.9022 0.790042 37.7148 1.6027C38.5275 2.41536 38.984 3.51756 38.984 4.66683V9.00016C38.984 10.1494 38.5275 11.2516 37.7148 12.0643C36.9022 12.877 35.8 13.3335 34.6507 13.3335Z" fill="#3b82f6"/>
<path d="M30.3174 78.3337H21.6507C20.5014 78.3337 19.3992 77.8771 18.5866 77.0645C17.7739 76.2518 17.3174 75.1496 17.3174 74.0003V48.0003C17.3174 46.8511 17.7739 45.7489 18.5866 44.9362C19.3992 44.1235 20.5014 43.667 21.6507 43.667C22.8 43.667 23.9022 44.1235 24.7148 44.9362C25.5275 45.7489 25.984 46.8511 25.984 48.0003V69.667H30.3174C31.4667 69.667 32.5689 70.1235 33.3815 70.9362C34.1942 71.7489 34.6507 72.8511 34.6507 74.0003C34.6507 75.1496 34.1942 76.2518 33.3815 77.0645C32.5689 77.8771 31.4667 78.3337 30.3174 78.3337Z" fill="#3b82f6"/>
<path d="M4.31762 69.6667C3.51739 69.6643 2.73347 69.4403 2.05273 69.0196C1.372 68.599 0.82105 67.998 0.46095 67.2834C-0.0530336 66.26 -0.141001 65.0747 0.216273 63.9867C0.573547 62.8986 1.34701 61.9962 2.36762 61.4767L19.7009 52.81C20.711 52.3894 21.8428 52.3665 22.8691 52.7458C23.8954 53.1251 24.7402 53.8787 25.2339 54.8551C25.7276 55.8315 25.8336 56.9586 25.5308 58.01C25.2279 59.0614 24.5385 59.9593 23.6009 60.5234L6.26762 69.19C5.66823 69.5109 4.99742 69.6748 4.31762 69.6667Z" fill="#3b82f6"/>
<path d="M64.9844 95.6671C64.2253 95.6724 63.4782 95.4781 62.8177 95.1038L41.1511 82.6671C40.4898 82.2853 39.9411 81.7356 39.5606 81.0736C39.1802 80.4115 38.9814 79.6607 38.9844 78.8971V53.8071C38.9814 53.0435 39.1802 52.2927 39.5606 51.6307C39.9411 50.9686 40.4898 50.4189 41.1511 50.0371L62.8177 37.5571C63.4765 37.1768 64.2237 36.9766 64.9844 36.9766C65.7451 36.9766 66.4923 37.1768 67.1511 37.5571L88.8177 50.0371C89.479 50.4189 90.0277 50.9686 90.4082 51.6307C90.7886 52.2927 90.9874 53.0435 90.9844 53.8071V78.8105C90.9874 79.574 90.7886 80.3248 90.4082 80.9869C90.0277 81.6489 89.479 82.1987 88.8177 82.5805L67.1511 95.1038C66.4907 95.4781 65.7435 95.6724 64.9844 95.6671ZM47.6511 76.3405L64.9844 86.3505L82.3177 76.3405V56.3205L64.9844 46.3105L47.6511 56.3205V76.3405Z" fill="#3b82f6"/>
<path d="M64.9844 59.8301C63.6988 59.8301 62.4421 60.2113 61.3732 60.9255C60.3043 61.6398 59.4711 62.6549 58.9792 63.8426C58.4872 65.0304 58.3585 66.3373 58.6093 67.5982C58.8601 68.859 59.4791 70.0172 60.3882 70.9263C61.2972 71.8353 62.4554 72.4544 63.7163 72.7052C64.9772 72.956 66.2841 72.8273 67.4718 72.3353C68.6595 71.8433 69.6747 71.0102 70.3889 69.9413C71.1032 68.8724 71.4844 67.6157 71.4844 66.3301C71.4844 64.6062 70.7996 62.9529 69.5806 61.7339C68.3616 60.5149 66.7083 59.8301 64.9844 59.8301Z" fill="#3b82f6"/>
</svg>
