<svg width="105" height="104" viewBox="0 0 105 104" fill="none" xmlns="http://www.w3.org/2000/svg">
<g id="_025_SCIENCE">
<path id="Vector" d="M35.1389 56.3333H22.1389C18.6911 56.3333 15.3845 54.9637 12.9465 52.5257C10.5086 50.0877 9.13892 46.7811 9.13892 43.3333V26C9.13892 22.5522 10.5086 19.2456 12.9465 16.8076C15.3845 14.3696 18.6911 13 22.1389 13H56.8056C60.2534 13 63.56 14.3696 65.998 16.8076C68.4359 19.2456 69.8056 22.5522 69.8056 26V30.3333C69.8056 31.4826 69.349 32.5848 68.5364 33.3975C67.7237 34.2101 66.6215 34.6667 65.4723 34.6667C64.323 34.6667 63.2208 34.2101 62.4081 33.3975C61.5955 32.5848 61.1389 31.4826 61.1389 30.3333V26C61.1389 24.8507 60.6824 23.7485 59.8697 22.9359C59.0571 22.1232 57.9549 21.6667 56.8056 21.6667H22.1389C20.9896 21.6667 19.8874 22.1232 19.0748 22.9359C18.2621 23.7485 17.8056 24.8507 17.8056 26V43.3333C17.8056 44.4826 18.2621 45.5848 19.0748 46.3975C19.8874 47.2101 20.9896 47.6667 22.1389 47.6667H35.1389C36.2882 47.6667 37.3904 48.1232 38.203 48.9359C39.0157 49.7485 39.4722 50.8507 39.4722 52C39.4722 53.1493 39.0157 54.2515 38.203 55.0641C37.3904 55.8768 36.2882 56.3333 35.1389 56.3333Z" fill="#F6F6F6"/>
<path id="Vector_2" d="M30.8056 39.0001C29.6582 38.9842 28.5593 38.5353 27.7289 37.7434C27.3344 37.3313 27.0251 36.8454 26.8189 36.3134C26.5969 35.7925 26.4791 35.2331 26.4722 34.6668C26.4882 33.5195 26.937 32.4205 27.7289 31.5901C28.1501 31.2073 28.6338 30.8996 29.1589 30.6801C29.948 30.3483 30.8178 30.2576 31.6584 30.4196C32.499 30.5815 33.2729 30.9888 33.8822 31.5901C34.2884 31.993 34.6108 32.4722 34.8308 33.0003C35.0508 33.5283 35.164 34.0947 35.164 34.6668C35.164 35.2388 35.0508 35.8052 34.8308 36.3333C34.6108 36.8613 34.2884 37.3406 33.8822 37.7434L33.2322 38.2634L32.4522 38.6535L31.6722 39.0001H30.8056Z" fill="#F6F6F6"/>
<path id="Vector_3" d="M48.1389 39.0001C46.9916 38.9842 45.8927 38.5353 45.0623 37.7434L44.5423 37.0935C44.3783 36.8519 44.2471 36.5896 44.1523 36.3134C43.9972 36.0729 43.8802 35.8098 43.8056 35.5334C43.7863 35.2449 43.7863 34.9553 43.8056 34.6668C43.8216 33.5195 44.2704 32.4205 45.0623 31.5901C45.4744 31.1956 45.9603 30.8864 46.4923 30.6801C47.2814 30.3483 48.1512 30.2576 48.9918 30.4196C49.8324 30.5815 50.6062 30.9888 51.2156 31.5901C52.0074 32.4205 52.4563 33.5195 52.4723 34.6668C52.4915 34.9553 52.4915 35.2449 52.4723 35.5334C52.4248 35.8049 52.3372 36.0678 52.2123 36.3134C52.1174 36.5896 51.9863 36.8519 51.8223 37.0935L51.3023 37.7434C50.4501 38.5558 49.3162 39.0063 48.1389 39.0001Z" fill="#F6F6F6"/>
<path id="Vector_4" d="M39.4722 17.3333C38.323 17.3333 37.2208 16.8768 36.4081 16.0641C35.5955 15.2515 35.1389 14.1493 35.1389 13V8.66665C35.1389 7.51737 35.5955 6.41517 36.4081 5.60252C37.2208 4.78986 38.323 4.33331 39.4722 4.33331C40.6215 4.33331 41.7237 4.78986 42.5364 5.60252C43.349 6.41517 43.8056 7.51737 43.8056 8.66665V13C43.8056 14.1493 43.349 15.2515 42.5364 16.0641C41.7237 16.8768 40.6215 17.3333 39.4722 17.3333Z" fill="#F6F6F6"/>
<path id="Vector_5" d="M26.4722 95.3334C25.323 95.3334 24.2208 94.8768 23.4081 94.0642C22.5955 93.2515 22.1389 92.1493 22.1389 91V78C22.1389 76.8507 22.5955 75.7485 23.4081 74.9359C24.2208 74.1232 25.323 73.6667 26.4722 73.6667C27.6215 73.6667 28.7237 74.1232 29.5364 74.9359C30.349 75.7485 30.8056 76.8507 30.8056 78V91C30.8056 92.1493 30.349 93.2515 29.5364 94.0642C28.7237 94.8768 27.6215 95.3334 26.4722 95.3334Z" fill="#F6F6F6"/>
<path id="Vector_6" d="M35.1389 82.3334H26.4722C25.323 82.3334 24.2208 81.8768 23.4081 81.0642C22.5955 80.2515 22.1389 79.1493 22.1389 78V52C22.1389 50.8507 22.5955 49.7485 23.4081 48.9359C24.2208 48.1232 25.323 47.6667 26.4722 47.6667C27.6215 47.6667 28.7237 48.1232 29.5364 48.9359C30.349 49.7485 30.8056 50.8507 30.8056 52V73.6667H35.1389C36.2882 73.6667 37.3904 74.1232 38.203 74.9359C39.0157 75.7485 39.4722 76.8507 39.4722 78C39.4722 79.1493 39.0157 80.2515 38.203 81.0642C37.3904 81.8768 36.2882 82.3334 35.1389 82.3334Z" fill="#F6F6F6"/>
<path id="Vector_7" d="M9.13897 73.6666C8.33874 73.6642 7.55482 73.4403 6.87408 73.0196C6.19335 72.5989 5.6424 71.9979 5.2823 71.2833C4.76832 70.2599 4.68035 69.0747 5.03762 67.9866C5.3949 66.8985 6.16836 65.9961 7.18897 65.4766L24.5223 56.81C25.5324 56.3894 26.6642 56.3664 27.6905 56.7457C28.7167 57.1251 29.5615 57.8786 30.0552 58.855C30.5489 59.8315 30.655 60.9585 30.3521 62.0099C30.0492 63.0613 29.3598 63.9592 28.4223 64.5233L11.089 73.19C10.4896 73.5108 9.81877 73.6748 9.13897 73.6666Z" fill="#F6F6F6"/>
<path id="Vector_8" d="M69.8056 99.6668C69.0465 99.6721 68.2993 99.4778 67.6389 99.1035L45.9722 86.6668C45.311 86.285 44.7623 85.7353 44.3818 85.0732C44.0013 84.4112 43.8025 83.6604 43.8056 82.8968V57.8068C43.8025 57.0432 44.0013 56.2924 44.3818 55.6304C44.7623 54.9683 45.311 54.4186 45.9722 54.0368L67.6389 41.5568C68.2977 41.1765 69.0449 40.9763 69.8056 40.9763C70.5662 40.9763 71.3135 41.1765 71.9722 41.5568L93.6389 54.0368C94.3002 54.4186 94.8489 54.9683 95.2293 55.6304C95.6098 56.2924 95.8086 57.0432 95.8056 57.8068V82.8102C95.8086 83.5737 95.6098 84.3245 95.2293 84.9866C94.8489 85.6486 94.3002 86.1984 93.6389 86.5801L71.9722 99.1035C71.3118 99.4778 70.5647 99.6721 69.8056 99.6668ZM52.4722 80.3402L69.8056 90.3502L87.1389 80.3402V60.3202L69.8056 50.3101L52.4722 60.3202V80.3402Z" fill="#F6F6F6"/>
<path id="Vector_9" d="M69.8055 63.8299C68.52 63.8299 67.2633 64.2111 66.1943 64.9253C65.1254 65.6396 64.2923 66.6547 63.8003 67.8425C63.3084 69.0302 63.1796 70.3371 63.4304 71.598C63.6812 72.8589 64.3003 74.0171 65.2094 74.9261C66.1184 75.8351 67.2766 76.4542 68.5375 76.705C69.7983 76.9558 71.1053 76.8271 72.293 76.3351C73.4807 75.8431 74.4959 75.01 75.2101 73.9411C75.9243 72.8722 76.3055 71.6155 76.3055 70.3299C76.3055 68.606 75.6207 66.9527 74.4017 65.7337C73.1827 64.5147 71.5295 63.8299 69.8055 63.8299Z" fill="#F6F6F6"/>
</g>
</svg>
