<svg width="623" height="766" viewBox="0 0 623 766" fill="none" xmlns="http://www.w3.org/2000/svg">
<path fill-rule="evenodd" clip-rule="evenodd" d="M563.135 516.349C561.149 518.016 559.083 519.591 557.008 521.156C549.777 526.625 542.089 527.515 534.124 525.504C528.79 524.159 525.678 520.464 522.544 516.743L522.543 516.742L522.542 516.741L522.54 516.739C522.381 516.55 522.222 516.361 522.063 516.173C521.941 516.028 521.823 515.889 521.711 515.755C521.574 515.591 521.443 515.434 521.319 515.285C520.116 513.842 519.477 513.075 518.748 512.976C517.921 512.863 516.977 513.607 514.963 515.195L514.955 515.202L514.923 515.228L514.908 515.24L514.539 515.53L514.316 515.705C514.208 515.79 514.096 515.878 513.981 515.968C495.942 530.108 477.905 544.261 459.869 558.413C450.868 565.476 441.867 572.539 432.866 579.6C420.974 588.929 409.079 598.276 397.202 607.623C394.334 609.889 394.346 609.926 395.33 612.793L395.353 612.861C395.524 613.361 395.704 613.86 395.885 614.358C396.707 616.624 397.529 618.892 397.406 621.441C397.029 629.107 394.84 636.232 388.604 642.448C380.672 650.369 371.427 653.742 360.814 652.718C353.513 652.009 348.234 648.437 343.833 643.366C338.771 637.55 337.387 630.596 339.151 623.15C342.064 610.892 349.897 603.283 362.465 599.47C371.037 596.874 378.93 598.162 386.008 602.131C389.036 603.823 389.085 603.816 392.105 601.447C431.405 570.617 470.694 539.796 509.979 508.947C513.438 506.234 513.436 506.189 510.79 503.106C504.566 495.882 498.33 488.665 492.084 481.458C489.219 478.142 489.197 478.16 485.261 481.216L485.26 481.216L483.46 482.629C478.258 486.713 473.055 490.797 467.853 494.881L467.739 494.971C452.077 507.266 436.414 519.562 420.758 531.878C420.209 532.309 419.593 532.712 418.975 533.117C417.445 534.119 415.903 535.129 415.336 536.584C414.796 537.956 415.462 539.274 416.135 540.603C416.467 541.261 416.801 541.922 416.991 542.593C420.572 555.351 413.871 568.555 401.021 575.519C386.27 583.522 368.501 579.121 361.693 566.167C354.172 551.856 364.358 531.618 382.596 526.286C391.708 523.611 399.956 524.776 407.326 529.17C410.11 530.835 410.167 530.837 412.975 528.65C414.976 527.1 416.96 525.531 418.943 523.962C421.751 521.741 424.559 519.521 427.409 517.358C436.368 510.576 445.01 503.439 453.654 496.3C462.517 488.981 471.38 481.661 480.588 474.722C483.993 472.159 483.946 472.041 481.501 469.19C475.376 462.059 469.218 454.953 463.059 447.848C462.832 447.586 462.622 447.34 462.426 447.111L462.234 446.886C461.068 445.516 460.446 444.785 459.74 444.692C458.935 444.586 458.021 445.307 456.064 446.851L456.06 446.855C455.831 447.035 455.588 447.227 455.329 447.43C431.654 466.002 407.982 484.576 384.309 503.15C360.636 521.725 336.964 540.299 313.289 558.871C312.455 559.525 311.639 560.18 310.813 560.844L310.779 560.871C309.832 561.63 309.474 562.409 310.06 563.429C310.52 564.238 310.831 565.131 311.123 566.024C315.504 579.494 310.208 592.874 295.725 600.932C280.399 609.464 264.075 605.627 256.639 592.075C247.888 576.127 259.317 557.563 277.363 551.837C286.3 549.002 294.415 550.163 301.672 554.489C304.701 556.289 304.753 556.264 307.608 554.024C355.561 516.407 403.496 478.788 451.441 441.162C454.867 438.474 454.887 438.412 452.487 435.635C446.274 428.401 440.038 421.185 433.781 413.986C431.29 411.125 431.236 411.105 427.923 413.689C398.362 436.878 368.802 460.067 339.257 483.275C336.315 485.583 336.191 485.696 337.59 488.509C343.144 499.627 337.81 516.994 322.839 524.764C307.69 532.627 289.937 529.118 283.141 514.175C279.66 506.543 280.341 498.483 285.246 490.257C291.842 479.192 305.831 472.395 318.255 474.491C322.309 475.175 326.041 476.252 329.182 478.587C330.664 479.684 332.215 479.901 333.849 478.23C334.209 477.863 334.63 477.556 335.053 477.248C335.251 477.104 335.449 476.959 335.641 476.808C349.973 465.558 364.303 454.313 378.632 443.068L378.924 442.839C393.332 431.533 407.739 420.227 422.143 408.92C422.248 408.837 422.352 408.755 422.455 408.672C422.591 408.563 422.725 408.453 422.859 408.344C423.332 407.96 423.802 407.577 424.306 407.223C425.878 406.099 426.088 404.999 424.921 403.733C424.342 403.105 423.803 402.441 423.266 401.777L423.265 401.776L423.265 401.776L423.264 401.775L423.264 401.775L423.264 401.775L423.264 401.775L423.264 401.775L423.264 401.774L423.263 401.774L423.263 401.774L423.263 401.774L423.263 401.773L423.263 401.773L423.262 401.773L423.262 401.773L423.262 401.773L423.262 401.772L423.262 401.772L423.262 401.772L423.261 401.772L423.261 401.772L423.261 401.771C422.445 400.764 421.63 399.757 420.675 398.883C414.867 393.591 415.214 381.242 419.687 374.585C421.727 371.544 424.426 369.394 427.166 367.212L427.166 367.212C427.595 366.87 428.025 366.528 428.454 366.181C428.865 365.848 429.24 365.549 429.582 365.276L429.584 365.274L429.586 365.273L429.587 365.272C431.314 363.895 432.169 363.213 432.234 362.462C432.298 361.726 431.601 360.923 430.221 359.333L430.209 359.32L430.186 359.293L430.043 359.128L429.882 358.942L429.799 358.846C425.02 353.319 420.24 347.793 415.46 342.268C393.173 316.502 370.889 290.741 348.703 264.891C346.531 262.356 344.493 261.852 340.964 262.906C334.108 264.977 327.234 266.969 320.36 268.962C312.655 271.195 304.95 273.428 297.269 275.772C292.992 277.07 290.46 276.315 287.903 273.334C269.881 252.272 251.743 231.312 233.601 210.348L233.601 210.347L233.6 210.346L233.599 210.345L233.598 210.344L233.598 210.344L233.597 210.343L233.596 210.342L233.596 210.341L233.595 210.34L233.594 210.339L233.593 210.338L233.593 210.337L233.592 210.336L233.591 210.336L233.59 210.335L233.59 210.334L233.589 210.333L233.588 210.332L233.587 210.331L233.587 210.33L233.586 210.329C229.317 205.397 225.049 200.464 220.782 195.53C220.394 195.081 220.052 194.675 219.744 194.311L219.741 194.306L219.741 194.306C218.464 192.792 217.798 192.002 217.047 191.911C216.227 191.811 215.306 192.545 213.379 194.081C212.997 194.385 212.576 194.721 212.109 195.088C145.645 247.211 79.1888 299.343 12.7409 351.485C12.3062 351.826 11.8614 352.16 11.4162 352.495C10.2646 353.361 9.11009 354.229 8.11926 355.219C2.98704 360.367 0.0929157 366.144 0.467018 372.909C0.746014 378.051 3.05648 382.004 6.32569 385.766C49.1711 435.247 91.9551 484.766 134.742 534.288L134.742 534.288L134.743 534.289L134.753 534.301C145.443 546.674 156.134 559.047 166.825 571.42L238.225 654.048C246.35 663.451 254.489 672.843 262.627 682.235L262.628 682.236L262.629 682.236L262.629 682.237L262.63 682.238L262.63 682.238L262.631 682.239L262.632 682.24L262.632 682.241L262.633 682.241L262.633 682.242L262.634 682.243L262.635 682.243L262.635 682.244L262.636 682.245L262.636 682.245L262.637 682.246L262.638 682.247L262.638 682.247L262.639 682.248L262.639 682.249L262.64 682.25C284.674 707.677 306.706 733.102 328.465 758.735C335.076 766.513 351.591 767.395 361.04 759.951C423.924 710.416 486.922 661.015 549.921 611.614C568.292 597.208 586.663 582.802 605.031 568.393C605.876 567.73 606.703 567.066 607.532 566.384C608.527 565.573 608.641 564.704 607.933 563.842C607.337 563.109 606.738 562.395 606.12 561.68L568.442 518.076C568.295 517.906 568.142 517.739 567.99 517.573C567.687 517.241 567.385 516.91 567.126 516.553C566.051 515.075 564.811 514.941 563.135 516.349ZM452.891 6.17114C448.628 9.7518 444.202 13.164 439.776 16.5759C437.784 18.1112 435.793 19.6464 433.816 21.1968C433.133 21.7327 432.455 22.2741 431.777 22.8155C430.307 23.9886 428.837 25.1618 427.319 26.2784C425.503 27.6095 424.913 28.8671 426.509 30.3731C426.912 30.7523 427.263 31.1807 427.614 31.6105C427.775 31.8062 427.935 32.0022 428.101 32.194L464.728 74.5808C465.316 75.2623 465.912 75.9381 466.508 76.6138C467.869 78.1571 469.229 79.6992 470.5 81.3034C472.808 84.2301 472.753 84.6783 470.802 88.1564C470.728 88.2843 470.637 88.4026 470.546 88.5209C470.455 88.6392 470.364 88.7575 470.29 88.8855C468.325 92.3769 466.367 95.8706 464.41 99.364L464.409 99.3655L464.408 99.3671L464.408 99.3686L464.407 99.3702L464.406 99.3718L464.405 99.3733L464.404 99.3749L464.403 99.3764L464.402 99.378L464.402 99.3796L464.401 99.3811L464.4 99.3827L464.399 99.3842L464.398 99.3858L464.397 99.3874L464.396 99.3889L464.396 99.3905L464.395 99.392L464.394 99.3936L464.393 99.3952L464.392 99.3962L464.392 99.3972L464.391 99.3982L464.391 99.3992L464.39 99.4002L464.39 99.4013L464.389 99.4023L464.388 99.4033L464.388 99.4043L464.387 99.4053L464.387 99.4063L464.386 99.4074L464.385 99.4084L464.385 99.4094L464.384 99.4104L464.384 99.4114L464.383 99.4124L464.382 99.4134L464.382 99.4145L464.381 99.4155L464.381 99.4165C459.247 108.579 454.116 117.74 448.853 126.848C447.112 129.865 447.371 131.765 449.434 134.152C477.804 166.833 506.1 199.573 534.396 232.312L534.397 232.313L534.397 232.313L534.397 232.313L534.398 232.314L534.398 232.314L534.398 232.315L534.398 232.315L534.399 232.315L534.399 232.316L534.399 232.316L534.4 232.316L534.4 232.317L534.4 232.317L534.401 232.318L534.401 232.318L534.401 232.318L534.402 232.319L534.402 232.319L534.402 232.32L534.403 232.32L534.403 232.32C542.118 241.247 549.832 250.173 557.549 259.098C558.167 259.813 558.788 260.51 559.438 261.2C560.21 262.028 561.133 262.052 562.148 261.287C562.617 260.933 563.082 260.572 563.548 260.211C564.17 259.73 564.791 259.249 565.42 258.783C566.199 258.195 566.961 257.563 567.724 256.93C569.461 255.49 571.201 254.046 573.161 253.115C583.282 248.324 594.539 249.326 601.124 257.607C602.297 259.071 603.536 260.484 604.815 261.88C606.711 263.945 607.596 264.031 609.71 261.702C611.565 259.67 613.624 257.915 615.776 256.227L661.566 220.306C661.77 220.146 661.965 219.994 662.152 219.848L662.478 219.595C664.429 218.078 665.356 217.357 665.411 216.574C665.461 215.865 664.796 215.106 663.529 213.659L663.323 213.423L663.134 213.207C662.989 213.041 662.838 212.867 662.681 212.684C643.06 189.964 623.43 167.251 603.8 144.539C594.006 133.207 584.213 121.876 574.42 110.543C566.645 101.546 558.862 92.5552 551.079 83.5644L551.078 83.5634L551.078 83.5624C529.144 58.2254 507.211 32.8883 485.463 7.40582C479.01 -0.169176 462.943 -2.25972 452.891 6.17114ZM761.988 327.586L785.164 354.407C787.421 357.019 789.671 359.636 791.921 362.254C797.546 368.799 803.175 375.347 808.915 381.807C817.175 391.175 812.758 405.828 803.723 412.729C788.597 424.284 773.662 436.061 758.727 447.837C752.689 452.599 746.65 457.36 740.599 462.107C740.357 462.297 740.111 462.482 739.864 462.666L739.864 462.667L739.863 462.668L739.862 462.668C739.372 463.035 738.884 463.401 738.436 463.804C736.844 465.224 735.549 465.196 734.426 463.662C734.051 463.157 733.63 462.694 733.209 462.23C732.998 461.998 732.786 461.765 732.58 461.526L695.977 419.167L695.447 418.554C695.378 418.474 695.31 418.396 695.244 418.319C695.142 418.202 695.043 418.089 694.948 417.979L694.943 417.973C693.704 416.55 693.058 415.808 693.109 415.118C693.165 414.366 694.049 413.675 695.897 412.232C696.029 412.129 696.166 412.023 696.308 411.912C696.452 411.799 696.601 411.682 696.755 411.56C697.067 411.315 697.378 411.07 697.688 410.825L698.201 410.419L698.203 410.418C699.16 409.66 700.114 408.905 701.082 408.166C710.311 401.129 712.718 386.26 705.883 378.798C704.811 377.626 703.79 376.42 702.768 375.215C701.882 374.169 700.996 373.124 700.078 372.101C698.913 370.817 699.131 369.726 700.692 368.611C701.191 368.251 701.663 367.87 702.137 367.488L702.138 367.487C702.376 367.296 702.613 367.104 702.855 366.914L754.015 326.781C754.176 326.655 754.336 326.528 754.495 326.401L754.497 326.4C754.813 326.148 755.127 325.898 755.453 325.653C756.97 324.529 757.687 323.998 758.331 324.075C758.907 324.144 759.425 324.701 760.407 325.756C760.774 326.153 761.118 326.56 761.463 326.969L761.465 326.971C761.638 327.176 761.811 327.381 761.988 327.586ZM444.915 353.268C452.972 346.963 461.021 340.649 469.062 334.326C469.37 334.084 469.658 333.861 469.925 333.653C471.679 332.291 472.54 331.622 472.606 330.883C472.669 330.17 471.992 329.391 470.664 327.863C470.514 327.69 470.356 327.509 470.19 327.317C457.939 313.146 445.688 298.973 433.437 284.8L432.99 284.283C408.238 255.649 383.486 227.013 358.728 198.39C358.548 198.182 358.379 197.964 358.208 197.743L358.207 197.742L358.207 197.742L358.207 197.742L358.206 197.741L358.206 197.741L358.206 197.74C357.557 196.904 356.878 196.028 355.509 195.539C355.344 195.74 355.195 195.908 355.063 196.059C354.82 196.334 354.632 196.547 354.501 196.781C352.639 200.08 350.789 203.383 348.938 206.687C344.624 214.391 340.309 222.096 335.849 229.738C334.089 232.755 334.281 234.661 336.374 237.04C347.077 249.235 357.665 261.512 368.256 273.792L368.274 273.812L368.291 273.833L368.309 273.854L368.327 273.874L368.345 273.895L368.363 273.916L368.38 273.936L368.398 273.957L368.416 273.977L368.433 273.997L368.451 274.018L368.468 274.038L368.486 274.058L368.503 274.079L368.521 274.099L368.538 274.119L368.556 274.139L368.573 274.16L368.591 274.18C372.01 278.144 375.429 282.109 378.853 286.071L378.947 286.18C398.144 308.396 417.349 330.621 436.557 352.828C436.931 353.257 437.262 353.646 437.559 353.995C438.791 355.444 439.438 356.203 440.166 356.292C440.968 356.391 441.87 355.676 443.766 354.174C444.114 353.899 444.495 353.597 444.915 353.268ZM509.8 302.368C501.276 309.07 492.744 315.763 484.204 322.447C480.525 325.333 480.487 325.332 477.713 322.1L433.976 271.485L433.954 271.502C430.016 266.945 426.076 262.389 422.137 257.833L422.136 257.833L422.136 257.833L422.136 257.832L422.135 257.832L422.135 257.832L422.135 257.831L422.135 257.831L422.134 257.831L422.134 257.83L422.134 257.83L422.133 257.83L422.133 257.829L422.133 257.829L422.133 257.828L422.132 257.828L422.132 257.828L422.132 257.827L422.131 257.827C412.279 246.435 402.427 235.042 392.603 223.628C391.022 221.788 389.263 220.102 387.505 218.417L387.505 218.416C385.082 216.093 382.66 213.772 380.705 211.052C380.52 210.785 380.298 210.541 380.076 210.296L380.075 210.295C379.936 210.141 379.796 209.987 379.665 209.827C377.666 207.343 377.783 206.924 381.072 205.933C385.87 204.492 390.685 203.114 395.501 201.736C398.004 201.018 400.511 200.316 403.02 199.614L403.021 199.613L403.023 199.613L403.024 199.613L403.025 199.612L403.027 199.612L403.028 199.611L403.03 199.611L403.031 199.611L403.033 199.61L403.034 199.61L403.035 199.609L403.037 199.609L403.038 199.608L403.04 199.608L403.041 199.608L403.043 199.607L403.044 199.607L403.046 199.606C408.563 198.062 414.082 196.517 419.558 194.8C421.907 194.064 423.234 194.363 424.405 195.953C424.726 196.398 425.097 196.81 425.471 197.224L425.471 197.224L425.471 197.225L425.472 197.225L425.472 197.225L425.472 197.226L425.473 197.226L425.473 197.227L425.474 197.227L425.474 197.228L425.474 197.228L425.475 197.229L425.475 197.229L425.475 197.23L425.476 197.23L425.476 197.231L425.477 197.231L425.477 197.231L425.477 197.232C425.644 197.417 425.812 197.603 425.975 197.792C454.112 230.353 482.252 262.897 510.4 295.45L510.566 295.643L510.831 295.949C513.701 299.292 513.709 299.301 509.8 302.368ZM435.709 196.349L435.826 196.484C436.447 197.205 437.073 197.931 437.762 198.596C438.505 199.307 439.36 199.103 439.991 198.234C440.358 197.727 440.645 197.181 440.935 196.631C441.003 196.502 441.072 196.372 441.141 196.243L441.174 196.182C441.2 196.133 441.227 196.083 441.254 196.034C441.272 196.003 441.289 195.971 441.307 195.94C442.934 193.036 444.557 190.13 446.181 187.224L446.181 187.223L446.182 187.223L446.182 187.222L446.182 187.221L446.183 187.221L446.183 187.22L446.184 187.219L446.184 187.219L446.184 187.218L446.185 187.217L446.185 187.217L446.185 187.216L446.186 187.215L446.186 187.215L446.187 187.214L446.187 187.213L446.187 187.213C450.5 179.494 454.814 171.772 459.194 164.082C460.379 161.999 460.435 160.443 458.94 158.842C457.531 157.33 456.193 155.755 454.854 154.178L454.852 154.176L454.851 154.175C454.278 153.5 453.704 152.824 453.124 152.154C441.099 138.237 429.07 124.322 417.042 110.407C405.013 96.4926 392.985 82.5779 380.959 68.661C380.79 68.4651 380.63 68.2792 380.479 68.1034L380.477 68.1012C379.241 66.6602 378.588 65.8993 377.851 65.8066C377.027 65.7029 376.097 66.4355 374.128 67.9876C373.924 68.148 373.71 68.3173 373.483 68.4953L348.985 87.7133C348.562 88.0449 348.146 88.3791 347.73 88.7132C347.314 89.0473 346.898 89.3815 346.475 89.7131C345.278 90.652 345.179 91.6028 346.048 92.5879C346.396 92.9901 346.74 93.399 347.084 93.8078L347.089 93.8132C347.434 94.2238 347.78 94.6344 348.129 95.0384L391.577 145.319L391.599 145.302C406.266 162.297 420.928 179.265 435.593 196.215L435.709 196.349ZM518.817 291.524C517.107 290.356 515.697 288.937 514.381 287.414L508.262 280.327L508.25 280.312C487.834 256.665 467.413 233.011 446.915 209.445C445.179 207.457 444.844 205.833 446.313 203.247C451.041 194.922 455.661 186.561 460.331 178.109C462.172 174.779 464.02 171.434 465.885 168.073C467.493 168.609 468.204 169.523 468.87 170.378L468.871 170.379L468.872 170.38L468.873 170.381L468.874 170.383L468.878 170.388L468.882 170.393C468.927 170.451 468.972 170.508 469.016 170.565C469.048 170.605 469.08 170.646 469.112 170.685C469.191 170.785 469.271 170.882 469.353 170.977C496.324 202.147 523.272 233.333 550.221 264.52C550.388 264.712 550.546 264.895 550.696 265.068L550.697 265.068C552.029 266.601 552.709 267.383 552.646 268.1C552.581 268.845 551.712 269.521 549.941 270.898L549.937 270.901L549.932 270.905C549.682 271.099 549.415 271.307 549.13 271.53L548.365 272.13L545.877 274.083L542.892 276.426L542.813 276.488L542.811 276.489L542.81 276.49L542.809 276.491L542.807 276.493L542.806 276.494L542.805 276.495L542.803 276.496L542.801 276.498L542.799 276.499L542.797 276.501L542.795 276.502L542.793 276.504L542.791 276.505L542.789 276.507L542.787 276.508L542.785 276.51C536.494 281.448 530.207 286.383 523.899 291.307C521.367 293.279 521.308 293.238 519.063 291.693L518.817 291.524ZM298.24 267.515C303.336 266.012 308.436 264.522 313.537 263.031C317.167 261.971 320.797 260.91 324.426 259.845C325.613 259.497 326.803 259.152 327.992 258.807C331.028 257.928 334.065 257.048 337.077 256.106C339.355 255.395 339.567 254.808 338.388 253.146C337.949 252.533 337.441 251.967 336.934 251.402L336.934 251.402C336.723 251.167 336.513 250.933 336.308 250.695L298.645 207.111L298.623 207.128L260.696 163.236C260.503 163.012 260.321 162.801 260.151 162.602L260.15 162.601C258.881 161.12 258.217 160.345 257.47 160.254C256.649 160.154 255.727 160.88 253.793 162.402L253.793 162.402C253.624 162.535 253.447 162.675 253.262 162.82L228.752 182.047C228.437 182.294 228.142 182.524 227.867 182.737C225.987 184.198 225.066 184.914 224.997 185.704C224.931 186.462 225.648 187.288 227.052 188.908L227.053 188.908L227.064 188.921L227.086 188.946C227.205 189.083 227.328 189.226 227.457 189.374C248.354 213.558 269.244 237.733 290.13 261.925C290.201 262.007 290.271 262.088 290.342 262.169L290.492 262.341C291.424 263.412 292.347 264.471 293.016 265.755C294.382 268.36 295.025 268.464 298.24 267.515ZM391.638 194.867C386.203 196.431 380.767 197.995 375.346 199.627C372.588 200.465 371.02 199.951 369.405 198.039C355.048 181.336 340.641 164.667 326.235 147.999L326.231 147.994L326.227 147.989L326.187 147.943L326.148 147.898L326.108 147.851L326.068 147.805L326.027 147.758L325.988 147.713L325.949 147.667L325.909 147.621L325.87 147.576C319.582 140.301 313.295 133.027 307.012 125.75C304.412 122.741 304.429 122.696 307.979 119.896C316.857 112.9 325.741 105.931 334.651 98.9726C338.14 96.2512 338.197 96.2532 340.846 99.318L341.007 99.5051L341.009 99.5073L341.012 99.5101L341.014 99.513L341.016 99.5154L341.019 99.5182L341.021 99.5206L341.022 99.5222L341.024 99.5244L341.027 99.5272L341.029 99.53L341.032 99.5328L341.034 99.5356L341.036 99.5385L341.039 99.5413C365.475 127.821 389.912 156.1 414.337 184.388C414.472 184.544 414.618 184.695 414.765 184.848C415.362 185.466 415.985 186.112 416.035 187.248C414.27 188.565 412.387 188.996 410.56 189.414C409.882 189.569 409.212 189.722 408.559 189.918C402.931 191.618 397.285 193.243 391.638 194.867ZM328.278 226.499C329.805 224.898 330.778 223.001 331.744 221.118C332.161 220.307 332.575 219.498 333.032 218.718C336.141 213.384 339.131 208 342.121 202.615C344.25 198.782 346.378 194.949 348.55 191.133C349.749 189.024 349.661 187.472 348.076 185.958C347.273 185.19 346.568 184.332 345.862 183.475L345.861 183.474C345.544 183.088 345.226 182.702 344.9 182.325L300.433 130.865C297.857 127.883 297.808 127.891 294.231 130.681L294.23 130.682C285.339 137.641 276.459 144.592 267.6 151.588C264.786 153.811 264.831 153.885 266.698 156.238C266.919 156.521 267.155 156.785 267.393 157.051L267.394 157.052C267.513 157.185 267.632 157.318 267.749 157.454C274.051 164.74 280.352 172.027 286.654 179.315L286.888 179.587C299.636 194.329 312.384 209.072 325.138 223.804C325.316 224.019 325.48 224.247 325.646 224.476C326.259 225.328 326.889 226.202 328.278 226.499ZM431.364 113.166C425.625 106.611 419.887 100.057 414.354 93.3416C410.177 88.2735 405.662 83.4861 401.148 78.6986L401.147 78.6976C396.632 73.9105 392.118 69.1235 387.942 64.0558C387.875 63.9743 387.809 63.8926 387.743 63.8109C387.215 63.1594 386.687 62.5087 386.096 61.9198C384.769 60.5764 385.027 59.4241 386.726 58.1068C396.237 50.6921 405.714 43.2582 415.177 35.7877C416.805 34.4949 418.074 34.2788 419.243 35.8237C419.625 36.3229 420.043 36.7874 420.462 37.2532C420.672 37.4869 420.882 37.7209 421.089 37.9598C423.981 41.3065 426.872 44.6537 429.763 48.0009C438.45 58.0573 447.136 68.1136 455.841 78.1554C456.207 78.5748 456.562 79.0038 456.916 79.4326C458.178 80.9602 459.437 82.4853 461.237 83.5683C462.74 84.4768 462.742 85.7373 461.747 87.4846C457.893 94.2665 454.115 101.073 450.339 107.877L450.338 107.879L450.324 107.903L450.322 107.907C448.703 110.824 447.084 113.74 445.46 116.654C444.745 117.931 444.022 119.206 443.269 120.533C442.679 121.57 442.072 122.64 441.437 123.768C439.814 123.083 439.032 122.089 438.299 121.157C438.115 120.925 437.935 120.696 437.746 120.477C435.626 118.034 433.495 115.6 431.364 113.166ZM667.58 328.033C674.163 322.892 680.738 317.731 687.311 312.572C689.503 310.851 691.695 309.131 693.887 307.411L693.871 307.393C696.121 305.628 698.372 303.863 700.623 302.098C707.379 296.801 714.137 291.503 720.887 286.184C723.998 283.728 724.009 283.657 721.674 280.954C715.204 273.424 708.711 265.91 702.189 258.405C699.835 255.702 699.762 255.681 696.654 258.119C678.758 272.142 660.859 286.183 642.996 300.243C640.075 302.534 640.068 302.633 642.248 305.177C648.807 312.81 655.376 320.434 661.998 328.033C664.221 330.606 664.308 330.6 667.58 328.033ZM714.927 348.145L714.851 348.205L714.824 348.226L714.798 348.247L714.771 348.268C708.98 352.813 703.188 357.36 697.394 361.895C693.76 364.747 693.722 364.745 691.172 361.837C684.746 354.443 678.334 347.023 671.951 339.594C669.507 336.744 669.508 336.681 672.857 334.053C690.498 320.183 708.136 306.331 725.801 292.489C729.238 289.793 729.295 289.795 731.706 292.563C738.228 300.069 744.721 307.582 751.191 315.113C753.491 317.796 753.479 317.868 750.347 320.34C743.731 325.553 737.109 330.746 730.487 335.937L730.47 335.95L730.457 335.961L730.443 335.971L730.43 335.982L730.417 335.993L730.403 336.003L730.359 336.038L727.93 337.942C726.518 339.05 725.105 340.157 723.693 341.265C721.91 342.664 720.126 344.064 718.342 345.464L714.927 348.145ZM626.991 508.734C625.112 506.56 623.235 504.384 621.358 502.208L621.341 502.189L621.336 502.183L621.332 502.178L621.327 502.172L621.322 502.167L621.318 502.162L621.313 502.156L621.308 502.151L621.304 502.145C616.624 496.721 611.943 491.296 607.23 485.887C605.173 483.528 605.051 483.514 602.32 485.641C593.171 492.772 584.045 499.93 574.944 507.116C572.054 509.399 572.039 509.489 574.235 512.052C587.294 527.207 600.367 542.336 613.47 557.457C615.653 559.983 615.759 559.978 618.699 557.687C627.727 550.651 636.731 543.588 645.722 536.488C648.833 534.032 648.845 533.96 646.512 531.24C641.659 525.591 636.783 519.952 631.909 514.316L631.905 514.311C630.282 512.435 628.66 510.558 627.038 508.682C627.026 508.705 627.007 508.722 626.995 508.731L626.991 508.734ZM642.693 453.985C645.436 451.849 645.55 451.853 647.607 454.213C653.118 460.538 658.597 466.899 664.077 473.261L664.089 473.275L665.639 475.074C666.214 475.742 666.789 476.41 667.365 477.078L667.387 477.061L686.35 499.007C686.615 499.313 686.875 499.619 687.135 499.926C687.395 500.232 687.656 500.538 687.92 500.845C688.774 501.811 688.712 502.763 687.504 503.711C687.356 503.827 687.208 503.944 687.06 504.061C686.935 504.16 686.811 504.259 686.686 504.358C686.57 504.45 686.455 504.542 686.339 504.635C686.19 504.753 686.041 504.872 685.893 504.991C685.356 505.42 684.819 505.849 684.281 506.271L682.354 507.783L680.276 509.413L678.08 511.138L678.078 511.138L678.077 511.139L678.076 511.14L678.075 511.141L678.074 511.142L678.072 511.143L678.071 511.144L678.07 511.145C671.852 516.026 665.633 520.907 659.402 525.772C656.118 528.348 656.02 528.362 653.813 525.808C640.71 510.688 627.618 495.558 614.548 480.411C612.357 477.876 612.383 477.778 615.307 475.468C624.408 468.282 633.544 461.115 642.693 453.985ZM687.295 423.064C685.246 420.714 685.132 420.71 682.367 422.862C673.449 429.812 664.554 436.789 655.695 443.786C652.76 446.104 652.745 446.193 654.917 448.728C667.995 463.884 681.076 479.022 694.187 494.152C696.37 496.678 696.476 496.673 699.416 494.383C708.214 487.528 716.988 480.645 725.737 473.735C728.87 471.262 728.882 471.19 726.565 468.488C721.774 462.912 716.965 457.351 712.156 451.789C710.55 449.932 708.945 448.076 707.34 446.218C705.671 444.287 704.004 442.355 702.337 440.423L702.321 440.404L702.314 440.396L702.307 440.388L702.3 440.381L702.293 440.373L702.286 440.365L702.279 440.357C697.295 434.58 692.311 428.805 687.295 423.064ZM667.708 225.601C671.331 222.759 671.369 222.76 673.908 225.677C680.077 232.774 686.217 239.878 692.347 247.037C694.511 249.562 694.504 249.661 691.55 251.978C673.687 266.038 655.788 280.079 637.881 294.111C634.842 296.479 634.736 296.484 632.607 294.041C626.25 286.749 619.934 279.44 613.643 272.096C611.632 269.747 611.642 269.63 614.39 267.458C620.865 262.346 627.365 257.253 633.864 252.161L633.877 252.151L633.89 252.141L633.903 252.13L633.916 252.12L633.929 252.11L633.941 252.1C636.551 250.055 639.161 248.011 641.768 245.966L641.76 245.956C644.638 243.698 647.515 241.44 650.391 239.182L650.413 239.165L650.435 239.148L650.456 239.131L650.478 239.114L650.499 239.097L650.521 239.08C656.247 234.585 661.971 230.091 667.708 225.601ZM675.545 385.907C674.458 383.924 673.317 381.921 671.796 380.246C668.689 376.807 665.725 373.255 662.761 369.704C657.222 363.067 651.683 356.432 645.217 350.531C641.172 346.832 634.647 346.7 629.654 350.538C625.241 353.936 620.87 357.381 616.499 360.827C614.514 362.392 612.529 363.957 610.539 365.517L610.531 365.508C608.656 366.979 606.779 368.447 604.902 369.916C600.524 373.34 596.146 376.765 591.795 380.222C585.604 385.125 584.233 391.811 588.717 397.128C594.737 404.283 600.873 411.347 607.011 418.413L607.013 418.415L607.016 418.419C609.953 421.799 612.889 425.18 615.814 428.572C619.771 433.151 628.757 433.721 634.076 429.066C637.001 426.501 640.12 424.121 643.235 421.744L643.235 421.744L643.235 421.743L643.236 421.743L643.236 421.743L643.236 421.743L643.238 421.741L643.24 421.74L643.242 421.739L643.244 421.737L643.245 421.736C644.626 420.682 646.005 419.63 647.366 418.562C649.631 416.785 651.899 415.011 654.167 413.237C659.84 408.799 665.516 404.359 671.146 399.877C675.986 396.033 677.837 390.093 675.545 385.907ZM667.823 391.039C667.659 392.124 666.667 393.183 664.766 394.69C660.586 398.003 656.385 401.292 652.184 404.581L652.183 404.581L652.183 404.582L652.183 404.582L652.183 404.582L652.17 404.592C650.485 405.911 648.8 407.23 647.117 408.551C645.469 409.843 643.823 411.137 642.176 412.432L642.175 412.433C638.061 415.666 633.948 418.899 629.814 422.109C626.065 425.019 624.777 425 622.102 421.925C613.565 412.089 605.051 402.235 596.558 392.364C595.726 391.395 595.174 390.586 594.922 389.841C595.177 390.582 595.73 391.385 596.561 392.346C605.053 402.217 613.568 412.071 622.105 421.908C624.78 424.982 626.067 425.001 629.817 422.091C633.951 418.881 638.065 415.648 642.178 412.414C643.825 411.12 645.472 409.826 647.12 408.533C648.803 407.212 650.487 405.894 652.172 404.575C656.378 401.282 660.583 397.989 664.769 394.672C666.659 393.173 667.651 392.118 667.823 391.039ZM351.056 638.697C343.818 630.662 346.673 617.249 355.944 611.348C364.463 603.637 378.713 604.862 384.776 612.198C390.916 619.645 391.085 631.418 380.326 639.842C370.378 647.646 358.414 646.871 351.056 638.697ZM266.425 591.162C273.593 599.329 287.186 598.748 295.484 592.254C304.672 585.062 306.835 572.597 300.2 564.62C292.57 556.643 280.767 556.054 270.953 563.503C262.4 569.979 259.192 582.92 266.425 591.162ZM371.62 565.673C364.228 557.758 367.459 544.674 376.165 538.204C385.385 530.472 399.141 531.68 405.257 539.099C412.335 547.695 410.132 559.474 400.897 566.548C390.405 574.576 378.912 573.493 371.62 565.673ZM298.214 487.205C288.532 494.784 286.483 505.804 293.638 514.745C300.165 522.917 313.706 522.937 322.45 515.891C331.99 509.171 334.014 495.522 327.49 488.377C320.43 480.654 308.017 479.53 298.214 487.205Z" fill="#252525" fill-opacity="0.05"/>
</svg>
