<svg width="785" height="401" viewBox="0 0 785 401" fill="none" xmlns="http://www.w3.org/2000/svg">
<path d="M371.664 167.637C371.998 166.876 372.375 166.134 372.73 165.382C381.679 145.971 390.627 126.561 399.586 107.159C399.898 106.482 399.952 105.6 401.147 105.219C401.147 106.537 401.191 107.744 401.137 108.942C400.846 116.544 400.34 124.147 400.286 131.75C400.157 150.232 400.243 168.714 400.243 187.196C400.243 187.911 400.275 188.617 400.243 189.332C400.189 190.613 400.964 191.216 402.364 191.253C404.486 191.3 406.607 191.29 408.728 191.272C410.268 191.262 411.162 190.668 411.076 189.229C411.033 188.524 411.076 187.809 411.076 187.094C411.076 154.196 411.076 121.288 411.076 88.3893C411.076 87.7766 411.044 87.1732 411.076 86.5606C411.173 84.9732 410.193 84.3791 408.492 84.3791C405.896 84.3883 403.312 84.3791 400.717 84.3791C399.403 84.3791 398.488 84.8432 398.057 85.9757C397.766 86.7462 397.346 87.4796 397.002 88.2315C387.138 109.944 377.274 131.657 367.41 153.37C367.076 154.112 366.969 154.976 365.978 155.523C365.515 154.604 365.031 153.695 364.611 152.775C359.076 140.596 353.551 128.417 348.017 116.238C343.602 106.519 339.176 96.7903 334.75 87.0804C333.523 84.3976 333.501 84.3976 330.141 84.3791C328.375 84.3698 326.609 84.3605 324.843 84.3791C321.473 84.4162 321.225 84.639 321.171 87.4796C321.161 87.7859 321.171 88.0922 321.171 88.3893C321.171 121.288 321.171 154.196 321.171 187.094C321.171 187.707 321.139 188.31 321.182 188.923C321.301 190.854 321.634 191.17 323.939 191.253C325.823 191.327 327.708 191.253 329.592 191.262C331.38 191.272 332.166 190.501 332.112 188.997C332.09 188.385 332.112 187.781 332.112 187.169C332.112 168.686 332.112 150.204 332.112 131.722C332.112 130.812 332.047 129.893 332.015 128.983C331.681 120.982 331.337 112.97 331.003 104.969C331.197 104.922 331.401 104.866 331.595 104.82C331.875 105.34 332.198 105.841 332.446 106.37C341.179 125.307 349.912 144.235 358.613 163.182C361.499 169.457 361.445 169.448 369.23 168.974C370.426 168.928 371.233 168.621 371.664 167.637Z" fill="#252525" fill-opacity="0.03"/>
<path d="M749.997 88.8163C749.997 88.1015 749.976 87.396 749.997 86.6812C750.051 85.1959 749.287 84.3791 747.51 84.3791C745.507 84.3791 743.504 84.3605 741.501 84.3883C739.735 84.4069 738.949 85.2145 739.057 86.7183C739.089 87.2196 739.057 87.7302 739.057 88.2407C739.057 106.315 739.025 124.398 739.078 142.471C739.089 146.723 739.52 150.984 739.595 155.235C739.692 160.267 739.617 165.298 739.617 170.329C738.777 170.2 738.788 169.457 738.551 168.965C729.312 150.316 720.104 131.657 710.908 112.989C706.59 104.217 702.283 95.435 697.986 86.6534C697.426 85.493 696.888 84.3698 695.122 84.3698C692.645 84.3698 690.18 84.3512 687.703 84.3791C686.325 84.3976 685.517 85.0474 685.452 86.2635C685.409 86.969 685.431 87.6838 685.431 88.3985C685.431 121.297 685.431 154.205 685.431 187.104C685.431 187.818 685.441 188.524 685.441 189.239C685.441 190.446 686.131 191.188 687.541 191.225C689.781 191.281 692.021 191.262 694.25 191.235C695.65 191.216 696.425 190.575 696.468 189.341C696.49 188.728 696.49 188.125 696.49 187.512C696.425 160.118 696.856 132.715 695.574 105.331C695.811 105.275 696.048 105.219 696.285 105.163C696.63 105.869 696.985 106.584 697.33 107.289C710.327 133.486 723.281 159.691 736.332 185.869C739.541 192.302 737.689 191.16 745.647 191.253C749.911 191.3 749.965 191.207 749.987 187.512C749.987 187.308 749.987 187.104 749.987 186.899C749.997 154.214 749.997 121.52 749.997 88.8163Z" fill="#252525" fill-opacity="0.03"/>
<path d="M10.3335 84.3976C8.11525 84.4812 7.73832 84.8432 7.59833 86.774C7.55526 87.3774 7.58755 87.9901 7.58755 88.6028C7.58755 121.399 7.58755 154.205 7.58755 187.002C7.58755 187.716 7.6091 188.422 7.59833 189.137C7.57679 190.492 8.29815 191.253 9.90263 191.272C12.024 191.3 14.1455 191.309 16.2669 191.272C17.839 191.244 18.6142 190.511 18.5388 189.127C18.5065 188.524 18.5388 187.911 18.5388 187.299C18.5388 168.816 18.6249 150.334 18.5065 131.852C18.4527 123.033 17.9896 114.214 17.7204 105.396C17.9358 105.368 18.1513 105.331 18.3666 105.303C18.8512 106.194 19.3679 107.066 19.8094 107.967C32.7529 134.07 45.6749 160.183 58.64 186.277C61.5689 192.163 59.8783 191.207 67.5238 191.272C72.1542 191.309 72.1542 191.272 72.1542 187.15C72.1542 154.251 72.1542 121.344 72.1542 88.445C72.1542 87.7302 72.165 87.0247 72.1327 86.3099C72.0788 85.1031 71.3035 84.4255 69.9143 84.3976C67.6745 84.3605 65.4348 84.3419 63.2057 84.4069C61.8166 84.4533 61.1167 85.2145 61.0952 86.412C61.0844 87.1268 61.0844 87.8323 61.0844 88.5471C61.0844 102.462 61.1382 116.368 61.0628 130.283C60.9982 142.156 61.5906 154.019 62.0106 165.883C62.0644 167.489 62.0214 169.104 62.0214 170.719C61.1276 169.837 60.6323 168.928 60.18 168.009C52.2115 151.866 44.2427 135.732 36.2742 119.589C30.89 108.672 25.4413 97.7743 20.1541 86.8297C19.3034 85.066 18.2375 84.212 15.9869 84.3512C14.1132 84.4719 12.218 84.3234 10.3335 84.3976Z" fill="#252525" fill-opacity="0.03"/>
<path d="M373.359 209.79C373.381 208.778 372.788 208.296 371.647 208.286C369.407 208.268 367.167 208.305 364.927 208.258C363.269 208.221 362.537 208.843 362.644 210.263C362.698 210.969 362.655 211.684 362.655 212.399C362.655 228.746 362.73 245.102 362.623 261.449C362.558 271.401 363.301 281.333 363.43 291.275C363.441 292.204 363.43 293.141 363.43 294.07C362.44 293.401 362.085 292.686 361.729 291.972C349.023 266.221 336.337 240.461 323.588 214.719C322.543 212.603 322.306 209.734 320.013 208.62C317.644 207.479 314.478 208.37 311.657 208.258C311.538 208.249 311.42 208.268 311.301 208.258C309.643 208.193 308.932 208.89 309.018 210.291C309.061 210.997 309.018 211.712 309.018 212.426C309.018 245.232 309.018 278.038 309.018 310.844C309.018 311.456 309.061 312.069 309.008 312.672C308.878 314.195 309.643 314.956 311.452 314.928C313.455 314.9 315.458 314.9 317.461 314.928C319.054 314.947 319.894 314.362 319.83 312.932C319.808 312.32 319.83 311.716 319.83 311.104C319.83 291.805 319.83 272.515 319.83 253.216C319.83 252.306 319.744 251.396 319.722 250.477C319.528 243.394 319.345 236.311 319.151 228.69C320.605 229.915 320.874 231.039 321.37 232.032C334.152 257.755 346.858 283.515 359.683 309.219C363.075 316.033 360.771 314.798 369.805 314.9C373.316 314.937 373.326 314.854 373.369 311.846C373.369 311.642 373.369 311.438 373.369 311.234C373.369 278.122 373.369 245.019 373.369 211.907C373.369 211.21 373.348 210.505 373.359 209.79Z" fill="#252525" fill-opacity="0.03"/>
<path d="M295.22 191.272C296.867 191.29 298.515 191.29 300.162 191.272C303.619 191.225 303.931 190.9 302.833 188.078C300.066 180.968 297.233 173.885 294.423 166.783C291.623 159.701 288.813 152.618 285.894 145.247C296.157 142.323 300.83 136.029 301.239 127.461C301.627 119.357 301.552 111.216 301.272 103.103C300.916 92.7615 293.314 85.9107 281.437 84.639C277.56 84.2212 273.673 84.3976 269.796 84.379C261.558 84.3419 253.31 84.3512 245.072 84.379C241.992 84.3883 241.702 84.6946 241.626 87.3774C241.605 88.0922 241.626 88.7977 241.626 89.5125C241.626 121.696 241.626 153.871 241.626 186.055C241.626 191.624 241.077 191.29 247.775 191.281C252.674 191.272 252.685 191.272 252.685 187.169C252.685 174.479 252.685 161.789 252.685 149.099C252.685 146.175 252.243 146.157 256.174 146.166C261.353 146.175 266.544 146.25 271.713 146.129C273.694 146.082 274.62 146.621 275.234 148.273C277.474 154.354 279.897 160.387 282.266 166.44C285.152 173.838 288.037 181.237 290.945 188.626C291.925 191.142 292.108 191.235 295.22 191.272ZM277.086 136.995C269.667 137.171 262.237 136.995 254.817 137.06C253.051 137.078 252.48 136.456 252.685 135.064C252.696 134.962 252.685 134.859 252.685 134.757C252.685 128.259 252.685 121.752 252.685 115.254C252.685 108.654 252.739 102.054 252.653 95.4442C252.631 93.8847 253.127 93.3277 255.011 93.3556C262.312 93.4391 269.623 93.2999 276.924 93.4113C285.151 93.5413 290.04 97.8393 290.137 104.95C290.234 111.754 290.212 118.559 290.137 125.363C290.073 132.567 285.41 136.8 277.086 136.995Z" fill="#252525" fill-opacity="0.03"/>
<path d="M621.887 191.448C629.274 191.94 636.726 191.931 644.113 191.448C653.632 190.826 660.556 185.656 662.99 177.709C663.711 175.352 663.991 172.929 663.98 170.478C663.959 159.617 663.97 148.756 663.97 137.895C663.97 127.238 663.959 116.581 663.98 105.925C663.98 103.994 663.819 102.082 663.496 100.169C661.977 91.2391 654.634 84.9918 644.264 84.2584C636.758 83.7293 629.199 83.7293 621.693 84.2584C612.25 84.9175 605.207 90.2273 602.924 98.0992C602.267 100.364 601.987 102.685 601.987 105.034C602.009 126.858 602.009 148.682 601.987 170.497C601.987 172.232 602.213 173.931 602.526 175.639C604.13 184.597 611.463 190.752 621.887 191.448ZM613.186 104.904C613.283 97.4401 618.01 93.1793 626.679 92.9286C630.911 92.808 635.164 92.7894 639.396 92.9286C648.043 93.2071 652.749 97.4773 652.781 104.978C652.824 115.941 652.792 126.904 652.792 137.867C652.792 148.32 652.792 158.782 652.792 169.234C652.792 170.042 652.824 170.859 652.76 171.666C652.275 178.341 647.58 182.314 639.838 182.481C635.25 182.574 630.652 182.583 626.065 182.481C618.484 182.314 613.854 178.433 613.262 171.898C613.186 171.091 613.208 170.274 613.208 169.466C613.208 148.255 613.208 127.034 613.208 105.823C613.186 105.516 613.186 105.21 613.186 104.904Z" fill="#252525" fill-opacity="0.03"/>
<path d="M219.045 178.016C219.798 175.667 220.068 173.244 220.057 170.794C220.014 159.83 220.035 148.877 220.035 137.914C220.035 129.995 220.035 122.077 220.035 114.168C220.035 110.408 220.154 106.658 219.992 102.908C219.562 92.6779 211.981 85.2237 200.749 84.3047C193.018 83.6735 185.211 83.6828 177.479 84.3047C168.111 85.0566 161.477 90.2365 159.054 98.1084C158.322 100.485 158.182 102.908 158.182 105.34C158.171 126.96 158.171 148.57 158.193 170.19C158.193 171.703 158.311 173.226 158.494 174.739C159.571 184.003 167.26 190.752 177.996 191.457C185.383 191.94 192.835 191.94 200.222 191.448C209.644 190.817 216.568 185.748 219.045 178.016ZM182.982 182.499C174.561 182.416 169.92 178.628 169.274 171.378C169.209 170.673 169.263 169.958 169.263 169.243C169.263 148.227 169.263 127.22 169.252 106.203C169.252 104.671 169.349 103.168 169.715 101.664C170.857 97.013 174.162 93.9868 179.579 93.3185C185.878 92.5294 192.264 92.5387 198.563 93.3092C204.324 94.0147 207.986 97.5143 208.696 102.471C208.858 103.576 208.847 104.699 208.847 105.813C208.858 116.47 208.858 127.127 208.858 137.793C208.858 148.245 208.858 158.707 208.858 169.16C208.858 170.172 208.869 171.193 208.783 172.205C208.266 178.257 203.764 182.184 196.765 182.453C192.167 182.629 187.569 182.546 182.982 182.499Z" fill="#252525" fill-opacity="0.03"/>
<path d="M458.191 226.759C458.094 216.149 449.77 208.361 437.796 207.887C430.861 207.618 423.884 207.581 416.949 207.924C409.346 208.305 403.155 211.229 399.386 217.189C397.447 220.261 396.564 223.612 396.564 227.14C396.586 238.92 396.575 250.709 396.575 262.489C396.575 273.768 396.5 285.037 396.597 296.316C396.683 306.639 404.727 314.399 416.335 315.123C423.733 315.587 431.174 315.504 438.582 315.123C443.514 314.863 447.929 313.229 451.569 310.213C456.167 306.388 458.159 301.635 458.18 296.242C458.234 284.666 458.202 273.081 458.202 261.505C458.202 259.983 458.202 258.46 458.202 256.938C458.213 246.875 458.288 236.813 458.191 226.759ZM446.842 297.393C445.926 302.081 442.254 305.358 436.838 305.98C430.517 306.704 424.142 306.704 417.832 305.97C412.447 305.339 408.571 301.7 407.914 296.947C407.666 295.137 407.58 293.308 407.569 291.48C407.537 281.63 407.559 271.781 407.559 261.932C407.559 251.572 407.548 241.222 407.569 230.862C407.569 229.247 407.656 227.613 407.893 226.007C408.614 221.208 412.383 217.708 417.853 217.012C424.163 216.214 430.528 216.223 436.849 217.003C442.319 217.681 445.916 220.865 446.852 225.571C447.219 227.372 447.391 229.191 447.391 231.02C447.369 251.322 447.369 271.633 447.391 291.934C447.402 293.782 447.197 295.592 446.842 297.393Z" fill="#252525" fill-opacity="0.03"/>
<path d="M616.623 228.085C616.451 217.14 608.353 209.352 596.282 208.832C589.347 208.535 582.369 208.572 575.434 208.823C565.657 209.175 558.13 214.578 555.782 222.571C555.179 224.631 554.878 226.748 554.889 228.902C554.932 240.078 554.91 251.245 554.91 262.422C554.91 273.905 554.845 285.379 554.931 296.862C555.018 307.593 563.094 315.409 574.971 316.087C582.251 316.495 589.584 316.495 596.874 316.077C606.21 315.548 613.188 310.405 615.719 302.673C616.462 300.398 616.655 298.087 616.645 295.748C616.645 278.686 616.645 261.615 616.645 244.553C616.645 239.057 616.709 233.571 616.623 228.085ZM605.09 298.904C603.852 303.35 600.417 306.302 595.227 306.906C588.906 307.639 582.541 307.621 576.22 306.897C570.75 306.275 566.928 302.599 566.206 297.586C565.991 296.082 565.99 294.55 565.98 293.028C565.958 282.77 565.969 272.522 565.969 262.264C565.969 251.905 565.958 241.554 565.98 231.194C565.98 229.171 565.991 227.147 566.712 225.17C568.187 221.076 571.396 218.588 576.21 217.957C582.52 217.122 588.884 217.159 595.205 217.929C601.149 218.653 604.907 222.394 605.542 227.992C605.693 229.301 605.683 230.628 605.683 231.946C605.693 252.248 605.693 272.559 605.693 292.861C605.693 294.894 605.639 296.908 605.09 298.904Z" fill="#252525" fill-opacity="0.03"/>
<path d="M697.041 260.556C690.558 260.528 684.087 260.482 677.604 260.556C669.84 260.649 670.658 259.201 670.648 266.785C670.648 269.31 670.927 269.496 673.943 269.523C677.948 269.561 681.954 269.542 685.96 269.533C689.578 269.523 689.115 269.561 689.126 272.401C689.137 276.968 689.148 281.545 689.126 286.112C689.115 289.463 689.245 292.824 688.965 296.156C688.448 302.431 684.28 306.265 677.302 306.804C672.263 307.193 667.169 307.175 662.119 306.813C655.701 306.358 651.878 303.183 650.586 297.725C650.209 296.119 650.22 294.494 650.22 292.879C650.21 282.724 650.22 272.568 650.22 262.413C650.22 252.257 650.209 242.102 650.231 231.946C650.231 230.628 650.209 229.301 650.403 227.992C651.254 222.134 655.497 218.43 662.108 218.003C667.159 217.669 672.241 217.669 677.292 218.003C683.494 218.412 687.349 221.568 688.663 226.85C689.061 228.456 689.094 230.071 689.115 231.686C689.148 233.209 689.158 234.731 689.115 236.253C689.083 237.525 689.718 238.11 691.226 238.082C693.347 238.036 695.469 238.008 697.59 238.091C699.453 238.166 700.11 237.46 700.077 235.938C700.013 232.995 700.239 230.034 700.013 227.11C699.238 217.047 692.346 210.521 680.684 209.287C673.329 208.507 665.845 208.498 658.49 209.296C646.516 210.605 639.366 217.697 639.323 228.168C639.215 251.013 639.204 273.868 639.323 296.713C639.387 308.242 648.53 315.91 661.904 316.003C667.083 316.04 672.274 316.04 677.453 316.003C690.687 315.91 699.765 308.419 700.013 297.001C700.25 285.731 700.088 274.462 700.056 263.183C700.056 260.742 699.83 260.565 697.041 260.556Z" fill="#252525" fill-opacity="0.03"/>
<path d="M283.185 208.258C281.656 208.296 280.127 208.258 278.587 208.258C274.387 208.268 274.377 208.268 274.377 211.981C274.377 225.079 274.366 238.177 274.377 251.285C274.377 253.735 274.473 253.615 271.706 253.615C261.099 253.605 250.503 253.615 239.896 253.615C239.541 253.615 239.186 253.596 238.841 253.615C237.7 253.698 237.043 253.355 237.108 252.259C237.151 251.554 237.108 250.839 237.108 250.124C237.108 237.527 237.108 224.94 237.108 212.343C237.108 211.526 237.097 210.718 237.086 209.901C237.075 208.778 236.418 208.249 235.115 208.258C232.876 208.268 230.636 208.295 228.396 208.249C226.716 208.212 226.048 208.88 226.145 210.282C226.199 210.988 226.156 211.702 226.156 212.417C226.156 244.406 226.145 276.395 226.178 308.384C226.178 310.389 225.176 312.886 226.684 314.288C228.364 315.847 231.39 314.835 233.812 314.891C236.892 314.965 237.021 314.761 237.097 312.199C237.118 311.484 237.097 310.779 237.097 310.064C237.097 295.137 237.086 280.21 237.108 265.283C237.108 262.684 237.14 262.665 240.209 262.656C250.579 262.647 260.938 262.656 271.308 262.656C274.614 262.656 274.344 262.433 274.355 265.283C274.355 265.794 274.355 266.295 274.355 266.806C274.355 281.528 274.355 296.251 274.355 310.983C274.355 311.698 274.366 312.403 274.355 313.118C274.344 314.213 274.947 314.872 276.229 314.9C278.587 314.947 280.945 314.947 283.293 314.919C284.714 314.9 285.436 314.241 285.414 312.988C285.392 312.273 285.414 311.568 285.414 310.853C285.414 294.404 285.414 277.954 285.414 261.496C285.414 245.149 285.414 228.792 285.414 212.445C285.414 211.73 285.371 211.025 285.414 210.31C285.543 208.917 284.854 208.221 283.185 208.258Z" fill="#252525" fill-opacity="0.03"/>
<path d="M477.355 172.149C480.338 172.149 480.337 172.168 480.983 174.674C482.19 179.325 483.385 183.966 484.602 188.617C484.946 189.926 485.259 191.272 487.326 191.272C489.803 191.272 492.269 191.3 494.745 191.262C496.404 191.235 497.071 190.483 496.684 189.072C496.544 188.58 496.468 188.069 496.328 187.577C493.679 178.229 491.02 168.872 488.371 159.524C481.716 136.103 475.029 112.683 468.439 89.2433C466.888 83.7107 467.319 84.4441 461.364 84.3884C460.427 84.3884 459.479 84.3698 458.543 84.3884C455.592 84.4441 455.441 84.5555 454.709 86.9876C454.59 87.3775 454.472 87.7766 454.354 88.1665C445.857 117.983 437.35 147.8 428.854 177.617C427.896 180.958 426.938 184.3 425.99 187.651C425.085 190.882 425.398 191.244 429.113 191.29C430.642 191.309 432.171 191.309 433.7 191.29C436.834 191.244 437.07 191.086 437.76 188.543C438.987 184.003 440.15 179.455 441.432 174.925C442.347 171.713 441.873 172.177 445.2 172.168C455.915 172.13 466.629 172.14 477.355 172.149ZM444.662 162.857C449.874 141.812 456.141 121.177 461.213 100.234C466.436 121.112 472.466 141.803 477.689 162.857C466.543 162.857 455.764 162.857 444.662 162.857Z" fill="#252525" fill-opacity="0.03"/>
<path d="M205.266 284.833C203.586 283.292 200.56 284.295 198.137 284.239C195.079 284.174 195.014 284.313 194.96 286.978C194.885 290.524 195.197 294.088 194.411 297.616C193.377 302.322 189.77 305.413 184.246 306.026C178.625 306.648 172.95 306.685 167.351 305.989C162.365 305.367 159.07 302.814 157.638 298.581C156.938 296.511 156.873 294.385 156.884 292.241C156.895 271.726 156.884 251.21 156.895 230.686C156.895 229.47 156.884 228.245 157.034 227.038C157.788 220.948 161.751 217.495 168.804 216.808C173.37 216.362 177.957 216.52 182.545 216.734C189.899 217.068 194.379 221.338 194.799 227.502C194.971 230.045 194.939 232.58 194.95 235.114C194.95 236.488 195.413 237.212 197.157 237.156C199.279 237.091 201.4 237.091 203.521 237.156C205.19 237.212 205.847 236.627 205.815 235.188C205.74 231.837 205.976 228.477 205.718 225.135C204.964 215.406 196.565 208.249 185.312 207.85C179.077 207.627 172.821 207.646 166.586 207.841C156.313 208.175 148.549 213.995 146.482 222.638C146.051 224.429 145.943 226.258 145.954 228.087C145.975 239.161 145.965 250.226 145.965 261.301C145.965 272.775 145.9 284.258 145.986 295.731C146.062 306.49 153.75 314.269 165.412 315.095C172.336 315.587 179.325 315.55 186.249 315.105C195.919 314.483 202.757 309.154 205.147 301.023C206.159 297.606 205.75 294.153 205.783 290.718C205.761 288.732 206.773 286.226 205.266 284.833Z" fill="#252525" fill-opacity="0.03"/>
<path d="M90.0124 217.031C100.264 217.022 110.515 217.031 120.767 217.031C128.703 217.031 128.703 217.031 128.003 210.152C127.992 210.05 127.992 209.948 127.992 209.846C127.992 208.862 127.411 208.342 126.28 208.286C125.569 208.249 124.869 208.258 124.159 208.258C109.428 208.258 94.7073 208.258 79.9763 208.258C79.2655 208.258 78.5656 208.268 77.8549 208.277C76.7027 208.296 76.1427 208.806 76.1642 209.809C76.1858 210.616 76.1537 211.433 76.1537 212.25C76.1537 228.607 76.1537 244.954 76.1537 261.31C76.1537 277.862 76.1537 294.422 76.1537 310.974C76.1537 311.689 76.186 312.394 76.1537 313.109C76.0783 314.436 76.8967 314.919 78.3074 314.919C79.1365 314.91 79.9547 314.928 80.7839 314.928C94.2119 314.928 107.651 314.947 121.079 314.919C129.155 314.9 127.906 315.671 127.981 308.922C128.014 305.97 127.949 305.952 124.363 305.942C113.175 305.933 101.976 305.942 90.7877 305.933C89.9585 305.933 89.1401 305.933 88.3109 305.924C87.471 305.915 87.008 305.562 86.9972 304.81C86.9864 304.095 86.9864 303.39 86.9864 302.675C86.9864 289.976 86.9864 277.286 86.9864 264.587C86.9864 263.974 87.0187 263.371 86.9864 262.758C86.9218 261.737 87.4387 261.264 88.6232 261.282C89.797 261.301 90.9815 261.282 92.1553 261.282C99.8115 261.282 107.468 261.292 115.135 261.273C118.936 261.264 119.011 261.171 119.033 257.801C119.044 256.984 119.044 256.177 119.033 255.36C118.979 252.371 118.925 252.297 115.447 252.287C106.962 252.269 98.4763 252.287 90.0016 252.278C87.0511 252.269 87.008 252.25 87.008 249.864C86.9864 239.709 86.9972 229.553 87.008 219.398C87.008 217.059 87.0403 217.04 90.0124 217.031Z" fill="#252525" fill-opacity="0.03"/>
<path d="M782.185 209.222C780.064 209.147 777.932 209.324 775.832 209.166C773.355 208.98 772.095 209.769 771.105 211.802C765.656 223.025 760.003 234.174 754.425 245.342C752.336 249.51 750.247 253.678 747.824 258.533C747.059 257.001 746.639 256.184 746.23 255.349C739.565 241.935 732.985 228.484 726.212 215.107C722.561 207.904 725.081 209.333 715.928 209.203C710.888 209.129 710.802 209.315 712.913 213.39C722.378 231.724 731.833 250.067 741.33 268.4C742.17 270.015 742.569 271.621 742.558 273.394C742.504 286.186 742.526 298.987 742.526 311.779C742.526 312.494 742.547 313.2 742.526 313.914C742.494 315.13 743.097 315.845 744.593 315.845C746.833 315.854 749.073 315.864 751.302 315.845C752.702 315.836 753.509 315.279 753.466 313.989C753.434 313.283 753.466 312.568 753.466 311.854C753.466 299.062 753.488 286.261 753.434 273.469C753.423 271.594 753.876 269.913 754.759 268.205C764.181 249.853 773.539 231.473 782.918 213.093C783.252 212.443 783.639 211.802 783.854 211.125C784.296 209.788 783.876 209.277 782.185 209.222Z" fill="#252525" fill-opacity="0.03"/>
<path d="M120.396 137.644C124.757 137.644 129.118 137.691 133.479 137.626C135.859 137.589 136.344 137.097 136.473 135.082C136.516 134.377 136.484 133.662 136.484 132.947C136.484 128.519 136.484 128.519 131.509 128.51C123.853 128.51 116.186 128.519 108.529 128.51C105.417 128.51 105.385 128.491 105.374 125.92C105.364 115.867 105.364 105.804 105.374 95.7506C105.374 93.4392 105.417 93.4113 108.023 93.4021C118.156 93.3928 128.289 93.3928 138.422 93.3928C145.917 93.3928 146.272 93.0122 145.443 86.4863C145.271 85.1124 144.517 84.4719 143.01 84.3976C142.31 84.3605 141.599 84.3883 140.888 84.3883C126.749 84.3883 112.61 84.3883 98.4609 84.3883C97.7502 84.3883 97.0395 84.3512 96.3396 84.4069C94.9828 84.5183 94.1752 85.1031 94.1859 86.3656C94.1967 87.0804 94.1752 87.7859 94.1752 88.5007C94.1752 104.857 94.1752 121.214 94.1752 137.57C94.1752 154.029 94.1752 170.487 94.1752 186.946C94.1752 187.661 94.2182 188.366 94.1752 189.081C94.0782 190.659 95.0368 191.29 96.7382 191.3C98.2673 191.3 99.8071 191.318 101.336 191.3C105.17 191.272 105.353 191.132 105.353 187.874C105.364 180.968 105.353 174.061 105.353 167.155C105.353 158.011 105.385 148.867 105.32 139.724C105.31 138.192 105.73 137.57 107.657 137.626C111.911 137.719 116.153 137.644 120.396 137.644Z" fill="#252525" fill-opacity="0.03"/>
<path d="M528.127 191.262C529.667 191.235 530.507 190.529 530.453 189.137C530.432 188.431 530.453 187.716 530.453 187.002C530.453 172.075 530.453 157.148 530.453 142.221C530.453 127.09 530.453 111.968 530.453 96.8368C530.453 93.6527 530.044 93.9219 533.867 93.9034C534.459 93.9034 535.04 93.9034 535.633 93.9034C541.049 93.9034 546.466 93.9312 551.882 93.8848C554.574 93.8662 554.973 93.4949 555.059 91.2763C555.113 89.856 555.113 88.4357 555.059 87.0155C554.983 84.899 554.542 84.5091 552.227 84.3884C551.645 84.3605 551.053 84.3791 550.461 84.3791C533.382 84.3791 516.304 84.3791 499.225 84.3791C498.515 84.3791 497.815 84.3791 497.104 84.3884C495.403 84.4162 494.466 85.0846 494.498 86.6256C494.53 87.9437 494.487 89.2619 494.498 90.5894C494.53 93.662 494.767 93.8848 498.31 93.9034C504.082 93.9219 509.854 93.9034 515.625 93.9127C519.48 93.9219 519.104 93.6435 519.125 96.7718C519.125 97.2824 519.125 97.7836 519.125 98.2942C519.125 127.74 519.125 157.185 519.125 186.63C519.125 187.447 519.147 188.255 519.125 189.062C519.093 190.408 519.803 191.216 521.386 191.253C523.648 191.309 525.887 191.3 528.127 191.262Z" fill="#252525" fill-opacity="0.03"/>
<path d="M57.4274 217.532C60.0656 217.513 60.2486 217.328 60.3348 215.128C60.3886 213.707 60.3779 212.287 60.3348 210.867C60.2702 208.388 60.184 208.277 57.3412 208.277C39.2073 208.258 21.0735 208.258 2.93969 208.277C0.290691 208.277 0.0969147 208.49 0.0323049 210.663C-0.0107683 212.083 -0.0107683 213.503 0.0323049 214.923C0.0969147 217.337 0.269271 217.523 3.05826 217.541C8.94852 217.578 14.8279 217.532 20.7182 217.56C25.2409 217.578 24.638 217.142 24.638 220.957C24.6487 250.802 24.6488 280.637 24.6488 310.482C24.6488 311.289 24.6811 312.106 24.6488 312.914C24.5949 314.158 25.2732 314.863 26.7054 314.891C29.0637 314.937 31.4112 314.956 33.7695 314.9C35.1801 314.863 35.8692 314.13 35.8369 312.905C35.8154 312.199 35.8369 311.484 35.8369 310.769C35.8369 295.852 35.8369 280.925 35.8369 266.007C35.8369 250.988 35.8369 235.958 35.8369 220.939C35.8369 220.224 35.8692 219.518 35.8369 218.804C35.8046 217.922 36.2354 217.504 37.2799 217.541C38.0983 217.569 38.9276 217.541 39.7567 217.541C45.6577 217.541 51.5479 217.569 57.4274 217.532Z" fill="#252525" fill-opacity="0.03"/>
<path d="M529.025 305.942C518.181 305.933 507.349 305.961 496.505 305.924C492.122 305.915 492.381 306.583 492.381 302.331C492.381 272.366 492.381 242.401 492.381 212.436C492.381 211.619 492.37 210.811 492.37 209.994C492.37 208.908 491.853 208.258 490.496 208.258C488.138 208.268 485.78 208.258 483.432 208.258C482.172 208.258 481.419 208.713 481.451 209.883C481.472 210.598 481.44 211.303 481.44 212.018C481.44 228.477 481.44 244.926 481.44 261.384C481.44 277.843 481.44 294.292 481.44 310.751C481.44 311.466 481.483 312.171 481.429 312.886C481.322 314.316 482.097 314.956 483.712 314.919C484.305 314.91 484.886 314.919 485.478 314.919C499.735 314.919 513.993 314.919 528.25 314.919C529.079 314.919 529.897 314.938 530.727 314.882C531.814 314.808 532.45 314.316 532.45 313.322C532.45 311.8 532.471 310.277 532.45 308.755C532.417 305.97 532.406 305.942 529.025 305.942Z" fill="#252525" fill-opacity="0.03"/>
<path d="M569.241 189.304C569.187 190.566 569.919 191.197 571.33 191.244C572.74 191.29 574.151 191.281 575.562 191.281C580.537 191.281 580.537 191.272 580.537 187.15C580.537 154.27 580.537 121.39 580.537 88.5099C580.537 87.7951 580.537 87.0896 580.526 86.3749C580.504 85.1495 579.718 84.4626 578.351 84.4162C576.003 84.3512 573.645 84.3512 571.287 84.4069C569.876 84.444 569.176 85.1495 569.23 86.3934C569.262 87.0989 569.23 87.8137 569.23 88.5285C569.23 104.866 569.23 121.204 569.23 137.542C569.23 153.982 569.23 170.422 569.23 186.862C569.241 187.679 569.273 188.496 569.241 189.304Z" fill="#252525" fill-opacity="0.03"/>
<path d="M352.628 3.95106C352.628 23.0367 352.628 42.1224 352.628 61.208C352.628 61.8207 352.65 62.4241 352.628 63.0368C352.607 64.0393 353.156 64.4663 354.319 64.5684C356.828 64.7819 357.42 64.3921 357.442 62.1177C357.474 56.6315 357.485 51.1546 357.442 45.6684C357.377 36.5433 357.657 27.409 357.033 18.2839C356.85 15.6847 356.537 13.0205 357.172 9.80857C357.948 11.3217 358.443 12.2314 358.895 13.1504C364.43 24.6705 369.965 36.1906 375.5 47.7107C376.695 50.1985 376.954 50.2449 379.527 50.1707C381.713 50.115 381.767 48.5833 382.306 47.4693C388.282 35.1323 394.205 22.7768 400.149 10.4212C400.375 10.4212 400.601 10.4212 400.816 10.4212C400.816 11.3031 400.827 12.185 400.816 13.0669C400.676 19.862 400.461 26.657 400.397 33.4521C400.321 40.8599 400.375 48.2769 400.375 55.6847C400.375 58.024 400.397 60.354 400.375 62.6933C400.364 63.9093 400.816 64.5591 402.389 64.5777C404.736 64.6056 405.059 64.4292 405.059 62.0806C405.081 42.3823 405.059 22.684 405.081 2.99492C405.081 0.581368 405.145 0.442135 401.807 0.395721C399.891 0.367872 399.557 1.51895 399.018 2.65146C394.399 12.2964 389.758 21.9413 385.106 31.5863C383.146 35.6522 381.175 39.7088 379.215 43.7469C378.278 43.4684 378.203 42.9393 377.977 42.4751C375.899 38.1678 373.799 33.8699 371.72 29.5719C367.327 20.5025 362.944 11.4238 358.529 2.3544C357.614 0.479253 356.548 0.0708271 354.093 0.43286C351.875 0.767045 352.876 2.28013 352.628 3.33839C352.585 3.54261 352.628 3.74684 352.628 3.95106Z" fill="#252525" fill-opacity="0.03"/>
<path d="M179.193 377.543C179.323 372.54 177.503 368.362 171.936 365.717C177.331 361.419 178.02 360.054 178.02 353.797C178.02 352.071 178.041 350.344 178.009 348.627C177.869 340.848 173.174 336.531 164.15 336.234C158.271 336.039 152.381 336.151 146.501 336.188C144.078 336.206 144.024 336.29 143.981 338.518C143.938 340.551 143.97 342.575 143.97 344.607C143.97 362.264 143.97 379.92 143.97 397.566C143.97 400.249 144.003 400.277 147.007 400.286C153.242 400.305 159.487 400.342 165.722 400.277C173.217 400.203 177.761 396.759 178.87 390.307C179.613 386.065 179.075 381.795 179.193 377.543ZM148.773 362.059C148.859 358.708 148.805 355.357 148.805 352.006C148.805 348.655 148.848 345.304 148.784 341.953C148.751 340.69 149.128 340.133 150.744 340.161C155.223 340.244 159.703 340.096 164.172 340.226C169.793 340.393 172.851 342.946 173.217 347.801C173.422 350.53 173.443 353.296 173.206 356.016C172.808 360.611 168.737 363.832 163.375 363.934C159.251 364.018 155.126 363.888 151.002 363.981C149.268 364.027 148.73 363.507 148.773 362.059ZM174.315 388.692C174.111 393.491 170.687 396.341 165.066 396.48C160.36 396.601 155.654 396.452 150.948 396.545C149.258 396.582 148.719 396.155 148.751 394.67C148.859 390.511 148.795 386.353 148.795 382.194C148.795 378.035 148.859 373.876 148.762 369.718C148.73 368.251 149.247 367.787 150.959 367.833C155.072 367.935 159.197 367.824 163.31 367.898C164.71 367.926 166.121 368.13 167.478 368.427C171.645 369.365 174.175 371.908 174.315 375.612C174.477 379.966 174.498 384.329 174.315 388.692Z" fill="#252525" fill-opacity="0.03"/>
<path d="M9.09816 25.803C9.09816 37.9822 9.0874 50.1707 9.10894 62.3498C9.10894 64.3735 9.3675 64.5406 11.3919 64.5592C13.4918 64.5777 13.7071 64.4014 13.7933 62.4427C13.8256 61.83 13.804 61.2266 13.7933 60.6139C13.6748 43.6912 14.1162 26.7685 13.9223 9.75289C14.1915 10.1892 14.4823 10.6162 14.7192 11.0711C19.888 21.1802 25.0569 31.2892 30.2257 41.4076C33.8761 48.5462 37.5158 55.694 41.1877 62.8326C42.0492 64.5128 43.2013 64.9212 45.4196 64.5592C47.3902 64.2343 46.6041 62.8697 46.7764 61.8764C46.8626 61.3751 46.7872 60.8646 46.7872 60.354C46.7872 45.9377 46.7872 31.5213 46.7872 17.105C46.7872 12.2314 46.7549 7.35792 46.798 2.48439C46.8088 1.16622 46.4857 0.358617 44.6659 0.405031C42.6091 0.460729 42.243 0.637086 42.2107 2.4751C42.1676 5.92834 42.1676 9.38158 42.1999 12.8348C42.3291 26.2301 41.8769 39.6253 42.5338 53.0205C42.5661 53.7724 42.8892 54.645 42.0493 55.2948C41.4247 55.0535 41.36 54.5151 41.1339 54.0881C36.7835 45.5478 32.444 37.0075 28.1044 28.458C23.6786 19.732 19.2527 10.9968 14.8054 2.27088C13.8901 0.469993 12.9534 0.1451 10.649 0.423587C8.39842 0.702074 9.10893 2.18734 9.09816 3.26415C9.07662 10.774 9.09816 18.2839 9.09816 25.803Z" fill="#252525" fill-opacity="0.03"/>
<path d="M258.955 62.0992C258.966 64.4663 259.052 64.5406 261.658 64.5591C267.903 64.587 274.138 64.6705 280.384 64.5406C288.665 64.3642 293.715 59.9084 293.92 52.7977C293.941 52.0829 293.93 51.3774 293.93 50.6626C293.93 39.5974 293.93 28.5322 293.93 17.467C293.93 15.434 294.017 13.401 293.898 11.3774C293.543 5.24138 289.031 1.17547 281.978 0.562799C281.041 0.479253 280.104 0.423561 279.156 0.423561C273.503 0.414278 267.85 0.404995 262.196 0.423561C258.977 0.432844 258.955 0.460688 258.944 3.31982C258.933 13.0669 258.944 22.8139 258.944 32.5517C258.944 42.4008 258.933 52.25 258.955 62.0992ZM263.618 6.36461C263.618 4.7958 264.113 4.23884 265.987 4.28525C270.692 4.38736 275.409 4.23884 280.115 4.34095C285.768 4.45234 289.031 7.33005 289.085 12.2407C289.16 18.943 289.106 25.6452 289.106 32.3382C289.106 38.8362 289.128 45.3343 289.106 51.8323C289.085 57.7177 285.994 60.3633 279.167 60.3911C274.806 60.4097 270.456 60.354 266.095 60.419C264.415 60.4468 263.596 60.2055 263.607 58.451C263.682 41.0827 263.672 23.7236 263.618 6.36461Z" fill="#252525" fill-opacity="0.03"/>
<path d="M148.892 62.4798C148.924 64.3828 149.237 64.5871 151.336 64.5592C153.329 64.5314 153.544 64.3921 153.544 62.2756C153.576 54.8679 153.544 47.4508 153.576 40.0431C153.576 38.9477 153.253 37.8059 154.072 36.627C158.099 36.627 162.223 36.7476 166.337 36.5806C168.533 36.4877 169.373 37.2304 170.009 38.9291C172.927 46.7453 175.996 54.5244 179.032 62.3035C179.948 64.6335 180.055 64.6706 182.758 64.5778C184.977 64.5035 185.138 64.355 184.373 62.3592C183.092 58.9895 181.735 55.6383 180.411 52.2872C178.333 47.0238 176.254 41.7511 174.198 36.5527C174.542 36.2928 174.693 36.0978 174.897 36.0421C181.391 34.0649 183.792 29.8226 183.749 24.1971C183.717 20.4376 183.76 16.6873 183.738 12.9277C183.706 4.91655 178.925 0.609281 169.729 0.451472C163.72 0.34936 157.711 0.414331 151.703 0.44218C148.946 0.451463 148.946 0.497876 148.87 2.79075C148.849 3.40343 148.87 4.00682 148.87 4.61949C148.87 20.2519 148.87 35.8936 148.87 51.526C148.87 55.1649 148.838 58.8224 148.892 62.4798ZM153.576 6.45751C153.576 6.15118 153.598 5.85411 153.598 5.54778C153.576 4.6659 154.061 4.30388 155.095 4.31316C160.382 4.34101 165.68 4.16464 170.956 4.406C175.662 4.6195 178.634 7.3951 178.968 11.5446C179.162 13.8653 179 16.2046 179 18.5346C179.011 18.5346 179.022 18.5346 179.032 18.5346C179.032 20.4561 179.076 22.387 179.022 24.3085C178.871 29.7947 175.77 32.5703 169.481 32.7003C165.012 32.7931 160.554 32.7467 156.085 32.7096C153.641 32.691 153.576 32.6539 153.566 30.4724C153.555 22.4612 153.576 14.4594 153.576 6.45751Z" fill="#252525" fill-opacity="0.03"/>
<path d="M60.6353 52.8998C60.7323 60.2519 65.8579 64.6056 74.3218 64.7727C77.0247 64.8284 79.7383 64.8005 82.4519 64.782C91.6158 64.7263 96.3753 60.8646 96.9784 52.9927C97.0322 52.2872 96.9999 51.5724 96.9999 50.8576C96.9999 44.768 96.9999 38.6784 96.9999 32.5796C96.9676 32.5796 96.9244 32.5796 96.8921 32.5796C96.8921 25.4781 97.1936 18.3582 96.8059 11.266C96.4182 4.10889 91.411 0.275064 83.0871 0.0522742C80.2658 -0.021989 77.4339 -0.0127061 74.6126 0.0522742C65.761 0.265781 60.7107 4.70301 60.6246 12.38C60.5707 17.3556 60.6138 22.3312 60.6138 27.3069C60.603 35.8379 60.5169 44.3689 60.6353 52.8998ZM65.438 12.6306C65.4703 6.79165 68.5823 4.14602 75.4202 4.07176C78.123 4.04391 80.8367 3.98821 83.5395 4.09961C88.4176 4.31311 91.0234 6.35537 92.0248 10.4677C92.294 11.5816 92.294 12.677 92.294 13.791C92.294 26.2672 92.294 38.7434 92.294 51.2196C92.294 51.7302 92.3263 52.2315 92.2833 52.742C91.9064 58.024 88.8591 60.6696 82.6996 60.9017C79.7706 61.0131 76.8094 61.0317 73.8804 60.846C68.5932 60.5118 65.5134 57.6898 65.4487 53.0855C65.3518 46.1883 65.4272 39.2911 65.4272 32.3939C65.4272 25.8216 65.3949 19.2307 65.438 12.6306Z" fill="#252525" fill-opacity="0.03"/>
<path d="M302.491 64.4385C304.397 65.2368 306.583 64.3735 307.1 62.5634C307.865 59.9084 308.651 57.2535 309.243 54.5615C309.555 53.1505 310.331 52.7977 311.871 52.807C318.935 52.8627 326.009 52.8627 333.073 52.807C334.646 52.7977 335.388 53.2526 335.69 54.6265C336.293 57.3185 337.154 59.9548 337.79 62.6376C338.134 64.095 338.963 64.8005 340.503 64.5592C342.883 64.5592 343.131 64.3085 342.732 62.4148C342.625 61.9136 342.463 61.4308 342.323 60.9389C339.846 52.38 337.37 43.8212 334.893 35.2623C331.76 24.4385 328.637 13.6146 325.492 2.80002C324.814 0.479295 324.469 0.395752 321.982 0.395752C319.731 0.395752 319.731 1.79748 319.376 3.04139C314.703 19.0637 310.029 35.0767 305.356 51.099C304.236 54.9328 303.159 58.7759 302.039 62.6005C301.834 63.2874 301.468 64.0115 302.491 64.4385ZM322.251 7.71995C322.391 7.73851 322.531 7.75708 322.66 7.77564C326.419 21.3565 330.176 34.9282 333.978 48.6761C326.268 48.6761 318.773 48.6761 310.912 48.6761C314.713 34.9467 318.482 21.338 322.251 7.71995Z" fill="#252525" fill-opacity="0.03"/>
<path d="M130.165 355.561C130.165 350.075 130.187 344.589 130.154 339.112C130.144 336.429 129.831 336.114 127.516 336.179C125.535 336.234 125.492 336.299 125.47 339.205C125.47 339.715 125.47 340.217 125.47 340.727C125.47 355.96 125.47 371.194 125.481 386.427C125.481 387.856 125.416 389.258 125.029 390.66C124.103 394.03 121.734 396.072 117.835 396.452C113.97 396.833 110.061 396.833 106.195 396.443C101.984 396.016 99.2494 393.473 98.7756 389.759C98.6572 388.859 98.7109 387.931 98.7109 387.021C98.7109 371.379 98.7109 355.738 98.7109 340.096C98.7109 339.381 98.6786 338.676 98.7109 337.961C98.7648 336.401 97.645 336.179 96.1805 336.151C94.5438 336.123 93.7468 336.661 93.8868 338.119C93.9406 338.722 93.8975 339.335 93.8975 339.947C93.8975 351.625 93.8975 363.303 93.8975 374.99C93.8975 379.558 93.8222 384.134 93.9191 388.701C94.0699 396.146 99.3032 400.593 107.907 400.676C110.965 400.704 114.034 400.76 117.093 400.667C123.672 400.453 128.518 397.074 129.691 391.792C130.09 390.01 130.144 388.163 130.154 386.334C130.208 378.917 130.176 371.509 130.176 364.092C130.165 361.242 130.165 358.402 130.165 355.561Z" fill="#252525" fill-opacity="0.03"/>
<path d="M42.0592 381.98C40.4655 381.971 39.6576 382.38 39.6684 383.874C39.6791 385.898 39.6468 387.94 39.3992 389.954C38.9361 393.779 36.4703 395.895 32.0015 396.61C29.3094 397.046 26.5958 396.944 23.9037 396.852C16.8935 396.61 13.9754 393.983 13.7493 387.921C13.7277 387.216 13.7385 386.501 13.7385 385.786C13.7385 374.108 13.7385 362.431 13.7385 350.753C13.7385 349.639 13.7383 348.515 13.846 347.402C14.2767 342.779 17.2813 340.142 22.6223 339.864C25.3252 339.725 28.0496 339.715 30.7417 339.864C35.9751 340.142 38.85 342.584 39.4207 347.123C39.6253 348.729 39.6686 350.363 39.6579 351.978C39.6471 353.408 40.5946 353.64 41.9406 353.612C43.2113 353.584 44.3095 353.519 44.2665 352.024C44.2018 350.094 44.3851 348.153 44.1805 346.241C43.6098 340.709 39.2487 336.791 32.9277 336.16C28.7065 335.742 24.4422 335.705 20.2426 336.188C15.3107 336.754 11.7464 339.056 9.99114 343.15C9.25889 344.867 9.00028 346.677 9.01105 348.525C9.05412 355.125 9.03261 361.725 9.03261 368.325C9.03261 375.232 8.94648 382.138 9.05417 389.035C9.17262 395.951 14.3846 400.453 22.3423 400.658C25.2821 400.732 28.2326 400.741 31.1723 400.658C38.9793 400.425 44.0726 395.923 44.2449 389.184C44.288 387.457 44.1803 385.731 44.2665 384.004C44.3634 382.584 43.739 381.99 42.0592 381.98Z" fill="#252525" fill-opacity="0.03"/>
<path d="M421.233 64.5685C429.944 64.5406 438.667 64.5406 447.378 64.5685C448.843 64.5777 449.51 64.1415 449.51 62.8047C449.51 61.0224 449.381 60.781 447.088 60.7718C440.379 60.7346 433.66 60.7717 426.951 60.7532C423.968 60.7439 423.936 60.7253 423.925 58.3675C423.903 50.1428 423.957 41.9182 423.882 33.6935C423.871 32.1618 424.302 31.5677 426.219 31.6049C431.28 31.7163 436.352 31.6606 441.413 31.6327C443.771 31.6141 444.126 31.3264 444.169 29.7576C444.212 28.0402 443.75 27.6411 441.284 27.6132C436.804 27.5761 432.335 27.6039 427.856 27.6039C427.145 27.6039 426.434 27.5575 425.734 27.6132C424.377 27.7153 423.882 27.2512 423.893 26.0537C423.936 19.3514 423.957 12.6492 423.882 5.94692C423.871 4.52664 424.55 4.27599 425.982 4.28528C431.043 4.34097 436.115 4.30383 441.176 4.30383C443.179 4.30383 445.182 4.24815 447.185 4.32242C448.8 4.37811 449.575 3.93253 449.51 2.4287C449.446 0.664944 449.338 0.432868 447.002 0.423585C438.872 0.386453 430.752 0.40501 422.622 0.414293C419.122 0.423576 419.101 0.442162 419.09 3.39413C419.079 13.0391 419.09 22.684 419.09 32.3289C419.09 41.7696 419.09 51.2196 419.09 60.6603C419.09 61.3751 419.133 62.0806 419.09 62.7954C419.004 64.1414 419.779 64.5777 421.233 64.5685Z" fill="#252525" fill-opacity="0.03"/>
<path d="M196.37 62.1084C196.38 64.4849 196.434 64.522 199.105 64.5498C202.518 64.587 205.932 64.5591 209.356 64.5591C214.417 64.5591 219.489 64.5406 224.55 64.5684C225.929 64.5777 226.769 64.2992 226.779 62.8882C226.79 61.0502 226.671 60.781 224.442 60.7717C217.497 60.7346 210.541 60.716 203.595 60.7903C201.786 60.8088 201.129 60.3911 201.14 58.748C201.215 50.3191 201.215 41.8903 201.14 33.4614C201.129 31.9483 201.743 31.5863 203.391 31.6141C208.57 31.6884 213.76 31.6698 218.94 31.6234C221.126 31.6048 221.837 30.7137 221.384 28.9221C221.04 27.5482 219.834 27.6039 218.638 27.6039C213.459 27.6039 208.269 27.5853 203.089 27.6132C201.861 27.6225 201.14 27.4368 201.151 26.1372C201.215 19.3328 201.194 12.5284 201.161 5.72406C201.161 4.70295 201.56 4.25737 202.788 4.30378C204.554 4.35948 206.319 4.31307 208.085 4.31307C213.502 4.31307 218.918 4.34091 224.335 4.30378C226.564 4.28522 226.65 4.04386 226.758 2.21513C226.876 0.284284 225.433 0.414242 223.99 0.414242C215.86 0.414242 207.73 0.404969 199.611 0.423534C196.37 0.432817 196.348 0.460662 196.337 3.3198C196.327 13.0668 196.337 22.8139 196.337 32.5609C196.337 36.9239 196.337 41.2962 196.337 45.6591C196.359 51.1453 196.337 56.6315 196.37 62.1084Z" fill="#252525" fill-opacity="0.03"/>
<path d="M83.5385 396.518C76.9483 396.49 70.3472 396.499 63.757 396.508C61.0218 396.508 61.1188 396.62 61.1188 394.16C61.1296 385.025 61.1188 375.891 61.1188 366.747C61.1188 357.817 61.1188 348.878 61.1188 339.947C61.1188 339.233 61.108 338.527 61.108 337.812C61.0973 336.856 60.548 336.346 59.4389 336.169C57.1022 335.807 56.3162 336.346 56.3054 338.564C56.2731 344.348 56.2946 350.14 56.2946 355.923C56.2946 369.829 56.2946 383.735 56.3054 397.65C56.3054 400.249 56.3376 400.277 59.4065 400.277C65.1784 400.296 70.9502 400.286 76.7221 400.277C79.1988 400.277 81.6646 400.231 84.1413 400.286C85.7135 400.323 86.1766 399.711 86.1335 398.448C86.0474 396.722 85.929 396.527 83.5385 396.518Z" fill="#252525" fill-opacity="0.03"/>
<path d="M106.885 4.41525C110.298 4.46166 113.712 4.41526 117.125 4.43383C119.828 4.45239 119.871 4.48022 119.871 6.76382C119.893 15.991 119.882 25.2275 119.882 34.4547C119.882 43.7841 119.893 53.1227 119.871 62.452C119.871 63.733 120.076 64.6149 121.939 64.5685C124.049 64.5221 124.405 64.355 124.555 62.5541C124.609 61.8486 124.566 61.1338 124.566 60.4283C124.566 44.0997 124.566 27.7617 124.566 11.4331C124.566 9.80861 124.534 8.1841 124.577 6.55959C124.631 4.48022 124.663 4.45239 127.215 4.43383C130.629 4.40598 134.042 4.3874 137.456 4.44309C139.007 4.46166 139.879 4.13676 139.804 2.58651C139.717 0.702082 139.642 0.442163 137.424 0.442163C127.183 0.405031 116.942 0.442164 106.713 0.414316C105.087 0.405033 104.354 0.88774 104.408 2.35444C104.483 4.18317 104.57 4.37811 106.885 4.41525Z" fill="#252525" fill-opacity="0.03"/>
</svg>
