<svg width="485" height="708" viewBox="0 0 485 708" fill="none" xmlns="http://www.w3.org/2000/svg">
<path fill-rule="evenodd" clip-rule="evenodd" d="M234.436 477.456C232.45 478.999 230.383 480.455 228.309 481.903C221.078 486.964 213.389 487.786 205.425 485.926C200.09 484.682 196.978 481.263 193.845 477.821C193.684 477.645 193.524 477.469 193.363 477.293C193.092 476.997 192.846 476.724 192.619 476.472C191.426 475.147 190.788 474.438 190.065 474.338C189.234 474.222 188.291 474.91 186.264 476.389C185.962 476.61 185.636 476.848 185.282 477.104C167.243 490.185 149.207 503.278 131.173 516.37L131.164 516.376L131.155 516.382C122.159 522.913 113.162 529.444 104.167 535.972C92.2744 544.603 80.3792 553.25 68.503 561.898C65.6343 563.994 65.6468 564.028 66.6307 566.681L66.6538 566.743C66.8243 567.207 67.005 567.668 67.1856 568.128C68.0074 570.225 68.83 572.323 68.7068 574.682C68.33 581.774 66.1405 588.365 59.9047 594.116C51.9728 601.444 42.7271 604.564 32.1142 603.617C24.8137 602.961 19.5345 599.657 15.1338 594.965C10.072 589.585 8.68724 583.151 10.4519 576.263C13.3648 564.922 21.1974 557.883 33.7656 554.355C42.3381 551.954 50.2311 553.145 57.3087 556.817C60.3366 558.382 60.3856 558.375 63.4053 556.184C102.706 527.662 141.995 499.148 181.279 470.609C184.738 468.099 184.736 468.057 182.091 465.205C175.866 458.521 169.631 451.845 163.384 445.177C160.519 442.11 160.497 442.126 156.561 444.954L156.561 444.954L154.76 446.261C149.605 450.006 144.449 453.75 139.293 457.495L139.03 457.685C123.372 469.058 107.712 480.431 92.0588 491.823C91.5095 492.222 90.8936 492.595 90.2759 492.969C88.7453 493.896 87.2036 494.83 86.6365 496.177C86.0967 497.446 86.7631 498.665 87.4352 499.895C87.768 500.504 88.1021 501.115 88.292 501.736C91.8728 513.539 85.1715 525.755 72.3221 532.197C57.5709 539.601 39.8018 535.529 32.9937 523.546C25.473 510.306 35.6584 491.583 53.8971 486.65C63.0084 484.175 71.2562 485.253 78.627 489.318C81.4108 490.858 81.4678 490.86 84.276 488.836C86.2745 487.404 88.2566 485.954 90.2379 484.504L90.2436 484.5C93.0524 482.445 95.8595 480.391 98.7098 478.39C107.666 472.118 116.306 465.517 124.947 458.915L124.948 458.914L124.948 458.914L124.948 458.914L124.949 458.914L124.949 458.913L124.949 458.913L124.95 458.913L124.95 458.912L124.95 458.912L124.951 458.912L124.951 458.912L124.951 458.911L124.952 458.911L124.952 458.911L124.953 458.91L124.953 458.91L124.953 458.91L124.954 458.91L124.954 458.909L124.954 458.909L124.955 458.909C133.817 452.137 142.681 445.365 151.889 438.945C155.294 436.575 155.247 436.465 152.802 433.828C146.737 427.295 140.639 420.786 134.541 414.277L134.529 414.264L134.517 414.251L134.505 414.239L134.493 414.226L134.481 414.213L134.469 414.2L134.457 414.187L134.445 414.174L134.432 414.161L134.42 414.148L134.408 414.135L134.396 414.122L134.384 414.109L134.372 414.096L134.36 414.084C134.056 413.76 133.784 413.464 133.535 413.194C132.377 411.935 131.756 411.26 131.056 411.166C130.248 411.057 129.334 411.723 127.365 413.161L127.365 413.161L127.14 413.326C126.977 413.444 126.807 413.568 126.629 413.697C102.955 430.879 79.2819 448.062 55.6093 465.246C31.9367 482.43 8.264 499.614 -15.4106 516.796C-16.2452 517.401 -17.0613 518.008 -17.8877 518.622L-17.9202 518.646C-18.8675 519.348 -19.2256 520.069 -18.6389 521.013C-18.1798 521.761 -17.8684 522.587 -17.5761 523.413C-13.1953 535.875 -18.4918 548.253 -32.9748 555.708C-48.3009 563.601 -64.6242 560.051 -72.06 547.514C-80.8111 532.76 -69.3822 515.585 -51.3365 510.288C-42.3996 507.665 -34.2848 508.739 -27.0273 512.742C-23.9981 514.407 -23.9461 514.384 -21.0911 512.312C26.8621 477.51 74.7964 442.708 122.742 407.898C126.168 405.411 126.187 405.354 123.788 402.784C117.574 396.093 111.339 389.417 105.081 382.757C102.59 380.11 102.536 380.091 99.2232 382.481C69.6628 403.935 40.1024 425.388 10.5581 446.858C7.61525 448.994 7.49154 449.098 8.89094 451.701C14.4441 461.986 9.11058 478.053 -5.86028 485.242C-21.0089 492.516 -38.7628 489.269 -45.5579 475.445C-49.0389 468.385 -48.358 460.928 -43.4536 453.317C-36.8569 443.081 -22.8689 436.792 -10.4448 438.732C-6.39015 439.365 -2.65855 440.361 0.483025 442.522C1.96514 443.536 3.516 443.737 5.14918 442.191C5.50839 441.852 5.92858 441.569 6.35042 441.285L6.35056 441.285L6.3507 441.285L6.35084 441.285L6.35098 441.285L6.35113 441.284L6.35127 441.284L6.35141 441.284L6.35155 441.284L6.35169 441.284L6.35183 441.284L6.35197 441.284L6.35212 441.284L6.35226 441.284L6.3524 441.283L6.35254 441.283L6.35268 441.283L6.35282 441.283L6.35296 441.283L6.35311 441.283L6.35325 441.283L6.35339 441.283C6.55126 441.149 6.74947 441.016 6.942 440.876C21.3679 430.399 35.793 419.927 50.2168 409.455L50.3899 409.33C64.7428 398.91 79.0943 388.49 93.4439 378.069C93.6859 377.894 93.9231 377.715 94.1598 377.537C94.6322 377.181 95.103 376.827 95.6071 376.499C97.1786 375.46 97.3889 374.442 96.2215 373.271C95.6423 372.69 95.1039 372.075 94.566 371.461L94.5654 371.46C93.748 370.526 92.9316 369.594 91.9753 368.784C86.1677 363.888 86.5147 352.464 90.988 346.305C93.0272 343.492 95.7266 341.503 98.4666 339.484L98.4695 339.482L98.474 339.479C98.9008 339.164 99.3285 338.849 99.7548 338.53C100.163 338.223 100.538 337.947 100.878 337.696L100.884 337.692L100.886 337.69L100.888 337.689C102.621 336.41 103.476 335.779 103.535 335.081C103.592 334.402 102.896 333.66 101.522 332.195C101.387 332.052 101.247 331.902 101.1 331.744C96.3183 326.629 91.5362 321.514 86.7543 316.4C64.4688 292.565 42.187 268.735 20.0039 244.822C17.832 242.477 15.7933 242.011 12.2642 242.986C5.40911 244.902 -1.46483 246.745 -8.33963 248.588C-16.0439 250.654 -23.7493 252.72 -31.4304 254.889C-35.7071 256.09 -38.2396 255.391 -40.7966 252.633C-58.8197 233.146 -76.9599 213.753 -95.1033 194.356L-95.1138 194.345C-99.382 189.782 -103.65 185.218 -107.918 180.654C-108.307 180.237 -108.65 179.86 -108.959 179.522C-110.227 178.13 -110.892 177.399 -111.637 177.307C-112.461 177.205 -113.382 177.884 -115.32 179.313C-115.702 179.595 -116.123 179.905 -116.591 180.244C-183.055 228.466 -249.511 276.695 -315.958 324.934C-316.393 325.249 -316.838 325.559 -317.283 325.868L-317.283 325.868L-317.283 325.868L-317.283 325.868L-317.283 325.868L-317.283 325.868L-317.283 325.869L-317.284 325.869L-317.284 325.869L-317.284 325.869L-317.284 325.869L-317.284 325.869L-317.284 325.869L-317.284 325.869L-317.284 325.869L-317.284 325.869L-317.284 325.869L-317.284 325.869L-317.284 325.869L-317.284 325.869L-317.284 325.869L-317.284 325.869C-318.436 326.67 -319.59 327.473 -320.58 328.389C-325.712 333.151 -328.606 338.495 -328.232 344.754C-327.953 349.511 -325.643 353.168 -322.374 356.649C-279.527 402.426 -236.742 448.239 -193.954 494.056C-183.262 505.505 -172.569 516.955 -161.874 528.405L-90.4743 604.848C-82.3605 613.534 -74.2331 622.211 -66.1059 630.888L-66.1037 630.891L-66.1015 630.893L-66.0993 630.895L-66.0971 630.898L-66.0949 630.9L-66.0927 630.902L-66.0905 630.905L-66.0883 630.907L-66.0861 630.909L-66.0839 630.912L-66.0817 630.914L-66.0795 630.916L-66.0773 630.919L-66.0751 630.921L-66.0729 630.923L-66.0707 630.926L-66.0685 630.928L-66.0663 630.93L-66.0642 630.933L-66.062 630.935L-66.0598 630.937C-44.0261 654.461 -21.9935 677.984 -0.234525 701.697C6.37654 708.894 22.8916 709.71 32.341 702.823C95.2227 656.998 158.22 611.296 221.217 565.594L221.251 565.569C239.612 552.248 257.973 538.928 276.331 525.605C277.177 524.991 278.004 524.377 278.833 523.746C279.827 522.996 279.942 522.192 279.234 521.394C278.638 520.717 278.039 520.056 277.421 519.394L239.743 479.055L239.696 479.005L239.648 478.955C239.618 478.923 239.588 478.892 239.558 478.861C239.512 478.813 239.465 478.766 239.419 478.718L239.291 478.589C238.988 478.282 238.686 477.976 238.427 477.646C237.352 476.278 236.112 476.154 234.436 477.456ZM124.191 5.47004C119.928 8.78265 115.502 11.9394 111.076 15.0959C109.085 16.5162 107.093 17.9365 105.117 19.3709C104.434 19.8665 103.756 20.3673 103.078 20.868L103.077 20.8684C101.608 21.9537 100.138 23.039 98.6193 24.0721C96.8032 25.3036 96.2133 26.4669 97.8094 27.8602C98.213 28.2111 98.5635 28.6074 98.9151 29.0049C99.0752 29.186 99.2356 29.3674 99.4014 29.5448L136.028 68.7586C136.607 69.3782 137.193 69.9927 137.778 70.607L137.786 70.6152L137.794 70.6233L137.801 70.6314L137.809 70.6393C139.17 72.0672 140.53 73.4938 141.8 74.978C144.108 77.6855 144.053 78.1002 142.103 81.3179C142.029 81.4363 141.938 81.5458 141.847 81.6552C141.755 81.7647 141.664 81.8741 141.59 81.9924C139.619 85.233 137.655 88.4757 135.692 91.718C130.555 100.201 125.42 108.681 120.153 117.113C118.412 119.905 118.672 121.662 120.735 123.87C149.109 154.109 177.409 184.402 205.709 214.695C213.422 222.952 221.135 231.208 228.849 239.463C229.467 240.125 230.088 240.77 230.739 241.407C231.51 242.174 232.434 242.196 233.449 241.488C233.917 241.16 234.383 240.827 234.849 240.493C235.47 240.048 236.092 239.603 236.72 239.171C237.5 238.627 238.262 238.043 239.025 237.457C240.761 236.125 242.502 234.79 244.462 233.928C254.582 229.495 265.839 230.422 272.424 238.084C273.597 239.438 274.836 240.745 276.116 242.036C278.012 243.948 278.896 244.026 281.011 241.872C282.866 239.992 284.924 238.369 287.076 236.807L332.866 203.575C333.017 203.466 333.162 203.361 333.303 203.259L333.528 203.097L333.778 202.917C335.736 201.509 336.662 200.842 336.712 200.115C336.757 199.462 336.092 198.759 334.83 197.425C334.572 197.153 334.289 196.854 333.982 196.524C314.361 175.504 294.731 154.492 275.1 133.479C265.307 122.996 255.513 112.513 245.721 102.029C237.944 93.7035 230.16 85.3839 222.375 77.0644C200.443 53.6252 178.511 30.186 156.764 6.61226C150.31 -0.395687 134.244 -2.32973 124.191 5.47004ZM433.288 302.824L456.465 327.638C458.721 330.053 460.971 332.474 463.221 334.896L463.23 334.906C468.852 340.958 474.478 347.013 480.215 352.987C488.476 361.653 484.059 375.209 475.024 381.593C459.897 392.284 444.962 403.179 430.027 414.075C423.989 418.479 417.951 422.884 411.9 427.275C411.658 427.451 411.411 427.622 411.165 427.792L411.165 427.793C410.674 428.133 410.185 428.472 409.737 428.845C408.145 430.159 406.849 430.133 405.726 428.714C405.352 428.248 404.933 427.821 404.513 427.393L404.512 427.392L404.511 427.391L404.511 427.391L404.51 427.39L404.51 427.389L404.508 427.387C404.297 427.173 404.086 426.958 403.881 426.738L367.278 387.55L366.748 386.982C366.57 386.792 366.402 386.613 366.244 386.445L366.243 386.445C365.009 385.134 364.363 384.447 364.409 383.811C364.459 383.112 365.343 382.474 367.198 381.134L367.2 381.132C367.358 381.018 367.523 380.899 367.695 380.774L367.873 380.645L368.056 380.512C368.539 380.161 369.02 379.809 369.5 379.457C370.458 378.756 371.413 378.056 372.382 377.372C381.612 370.861 384.019 357.106 377.183 350.202C376.112 349.118 375.09 348.003 374.068 346.887C373.182 345.92 372.297 344.953 371.378 344.007C370.214 342.819 370.432 341.81 371.993 340.778C372.491 340.445 372.964 340.093 373.438 339.739L373.443 339.735C373.584 339.63 373.726 339.524 373.869 339.419C373.916 339.384 373.964 339.349 374.012 339.314C374.059 339.279 374.108 339.243 374.156 339.208L425.315 302.08C425.477 301.963 425.636 301.845 425.795 301.728C426.112 301.495 426.427 301.264 426.754 301.036C428.28 299.989 428.996 299.498 429.643 299.577C430.215 299.647 430.732 300.162 431.707 301.131C431.904 301.328 432.095 301.528 432.283 301.73C432.445 301.904 432.604 302.079 432.764 302.254L432.916 302.421C432.971 302.481 433.027 302.541 433.082 302.601C433.15 302.676 433.219 302.75 433.288 302.824ZM116.215 326.584C124.272 320.751 132.321 314.91 140.362 309.06C140.67 308.836 140.958 308.63 141.224 308.438L141.225 308.437C142.987 307.171 143.848 306.553 143.907 305.865C143.964 305.208 143.287 304.488 141.964 303.08C141.815 302.921 141.657 302.753 141.491 302.575C129.282 289.511 117.074 276.445 104.866 263.379L104.804 263.312L104.742 263.246L104.68 263.179L104.617 263.112L104.531 263.021L104.445 262.928L104.359 262.836C79.5849 236.321 54.8096 209.805 30.0282 183.299C29.8481 183.106 29.6782 182.904 29.5061 182.699C28.8578 181.925 28.1788 181.115 26.8092 180.662C26.6445 180.848 26.4958 181.004 26.3633 181.143C26.1206 181.398 25.9326 181.595 25.8012 181.811C23.9398 184.863 22.0895 187.919 20.2392 190.976L20.2384 190.977C15.924 198.103 11.609 205.231 7.14981 212.301C5.39001 215.092 5.58188 216.855 7.67434 219.056C18.3748 230.335 28.9595 241.689 39.5465 253.046L39.5487 253.049L39.5508 253.051L39.5529 253.053L39.555 253.055L39.5571 253.058L39.5593 253.06L39.6066 253.111C43.1205 256.88 46.6346 260.65 50.1533 264.417L50.1757 264.441L50.1981 264.465L50.2204 264.489C69.4264 285.051 88.6404 305.622 107.857 326.177C108.232 326.574 108.562 326.933 108.859 327.256C110.084 328.587 110.729 329.289 111.452 329.38C112.258 329.481 113.159 328.82 115.066 327.422C115.414 327.167 115.795 326.888 116.215 326.584ZM181.101 279.494C172.576 285.695 164.044 291.887 155.504 298.07C151.826 300.74 151.788 300.739 149.014 297.749L105.277 250.923L105.255 250.939C101.318 246.724 97.3795 242.511 93.441 238.297L93.4407 238.297L93.439 238.295L93.4373 238.293L93.4356 238.292L93.4339 238.29L93.4322 238.288L93.4306 238.286L93.4289 238.284L93.4272 238.283L93.4255 238.281L93.4238 238.279L93.4221 238.277L93.4205 238.276L93.4188 238.274L93.4171 238.272L93.4154 238.27L93.4137 238.269L93.4121 238.267C83.5667 227.734 73.7213 217.201 63.9039 206.648C62.3225 204.946 60.5637 203.386 58.8055 201.827C56.3825 199.678 53.9606 197.53 52.0056 195.014C51.8206 194.767 51.5994 194.542 51.377 194.315L51.3766 194.314C51.2371 194.172 51.0971 194.029 50.9653 193.88C48.9666 191.583 49.0835 191.195 52.3728 190.278C57.1703 188.945 61.9859 187.67 66.8015 186.395C69.3128 185.728 71.829 185.077 74.3456 184.425C79.863 182.996 85.3827 181.567 90.8585 179.979C93.2072 179.298 94.5342 179.574 95.7055 181.045C96.0284 181.459 96.4024 181.843 96.7777 182.228C96.9448 182.399 97.1122 182.571 97.2755 182.746C125.317 212.768 153.361 242.773 181.413 272.787L181.867 273.272L182.132 273.556C185.002 276.648 185.01 276.657 181.101 279.494ZM107.101 181.51L107.127 181.537C107.748 182.204 108.373 182.876 109.062 183.49C109.805 184.148 110.661 183.959 111.292 183.155C111.658 182.686 111.946 182.181 112.236 181.672C112.357 181.459 112.479 181.245 112.607 181.033C114.234 178.346 115.858 175.658 117.482 172.969L117.484 172.965C121.798 165.822 126.113 158.676 130.494 151.559C131.679 149.633 131.735 148.193 130.241 146.712C128.839 145.321 127.509 143.871 126.178 142.421L126.176 142.419L126.175 142.418L126.174 142.417L126.172 142.415L126.171 142.414L126.17 142.413L126.168 142.411L126.167 142.41L126.166 142.409L126.164 142.407L126.163 142.406L126.162 142.405L126.161 142.404L126.159 142.402L126.158 142.401L126.157 142.4L126.155 142.399L126.151 142.394L126.147 142.39C125.575 141.767 125.003 141.143 124.425 140.524C112.401 127.651 100.374 114.78 88.3468 101.908L88.3443 101.906L88.3418 101.903C76.3135 89.0299 64.2852 76.1569 52.2596 63.282C52.0955 63.1063 51.9406 62.9395 51.794 62.7813L51.7778 62.7639C50.5502 61.4402 49.8979 60.7369 49.1674 60.6431C48.3392 60.5368 47.4104 61.214 45.4287 62.6589C45.2251 62.8074 45.0103 62.964 44.7834 63.1287L20.2852 80.908C19.8624 81.2148 19.4465 81.5239 19.0305 81.833C18.6145 82.1422 18.1985 82.4513 17.7757 82.7581C16.5788 83.6268 16.4792 84.5064 17.3488 85.4178C17.6965 85.79 18.0408 86.1684 18.385 86.5468L18.3897 86.5519C18.7351 86.9316 19.0806 87.3113 19.4295 87.6848L62.8778 134.202L62.8998 134.186C77.5668 149.908 92.2288 165.606 106.894 181.287L107.101 181.51ZM190.117 269.461C188.408 268.381 186.998 267.069 185.682 265.66L179.564 259.103C159.143 237.221 138.718 215.334 118.216 193.527C116.479 191.687 116.145 190.186 117.614 187.793C122.34 180.093 126.96 172.359 131.629 164.542L131.631 164.539C133.471 161.457 135.32 158.363 137.186 155.252C138.793 155.748 139.505 156.594 140.171 157.385L140.171 157.385L140.172 157.386L140.172 157.387L140.173 157.387L140.173 157.388C140.332 157.577 140.489 157.762 140.654 157.939C167.624 186.775 194.573 215.627 221.522 244.479C221.688 244.657 221.847 244.826 221.997 244.986L221.998 244.987C223.324 246.399 224.003 247.122 223.947 247.782C223.889 248.475 223.02 249.1 221.241 250.38C220.989 250.561 220.719 250.755 220.431 250.965C218.325 252.493 216.22 254.021 214.116 255.549L214.106 255.557C207.809 260.13 201.514 264.7 195.2 269.261C192.668 271.085 192.608 271.047 190.364 269.618L190.117 269.461ZM-30.4592 247.25C-25.3627 245.86 -20.2617 244.481 -15.1599 243.101C-11.5311 242.12 -7.9019 241.139 -4.27356 240.154C-3.08599 239.832 -1.89674 239.513 -0.707354 239.194L-0.704149 239.193L-0.70298 239.193C2.3315 238.379 5.36689 237.566 8.37792 236.695C10.6556 236.037 10.8672 235.494 9.68878 233.956C9.24985 233.389 8.74118 232.865 8.23419 232.343L8.23386 232.342L8.23352 232.342C8.02307 232.125 7.8129 231.909 7.60816 231.689L-30.054 191.367L-30.076 191.383L-68.003 150.778C-68.1203 150.652 -68.2331 150.531 -68.3416 150.414L-68.5493 150.189C-69.8093 148.829 -70.473 148.112 -71.2143 148.02C-72.0391 147.918 -72.9601 148.589 -74.9059 150.006L-74.9069 150.006C-75.0759 150.129 -75.2526 150.258 -75.4377 150.392L-99.947 168.18C-100.263 168.409 -100.558 168.621 -100.832 168.818C-102.72 170.176 -103.641 170.838 -103.703 171.572C-103.762 172.271 -103.046 173.036 -101.647 174.527L-101.646 174.529L-101.374 174.819L-101.243 174.959C-80.3452 197.332 -59.4557 219.697 -38.5691 242.079C-38.4512 242.205 -38.3329 242.33 -38.2148 242.456L-38.2076 242.464C-37.275 243.454 -36.3522 244.434 -35.6838 245.621C-34.3169 248.032 -33.6746 248.128 -30.4592 247.25ZM62.9384 180.041L62.9358 180.041L62.9349 180.042L62.934 180.042L62.9331 180.042L62.9323 180.042L62.9314 180.043L62.9305 180.043L62.9297 180.043L62.9288 180.043L62.9279 180.044L62.9271 180.044L62.9262 180.044L62.9253 180.044L62.9245 180.044C57.4942 181.49 52.0633 182.935 46.6464 184.444C43.8889 185.219 42.3203 184.743 40.7051 182.975C26.3464 167.52 11.9364 152.095 -2.47209 136.672C-8.87886 129.815 -15.2853 122.957 -21.6869 116.097C-24.287 113.313 -24.2701 113.272 -20.7204 110.682C-11.8419 104.209 -2.95847 97.7623 5.95203 91.3245C9.44098 88.8068 9.498 88.8087 12.1463 91.644L12.1503 91.6482L12.1555 91.6538L12.1614 91.6602L12.1666 91.6658L12.1712 91.6707L12.1739 91.6735L12.1778 91.6777L12.1831 91.6833L12.1896 91.6903L12.1949 91.6959L12.2001 91.7016L12.2053 91.7072L12.2105 91.7128L12.2158 91.7185L12.221 91.7241C36.697 117.929 61.1729 144.133 85.638 170.346C85.7729 170.49 85.9184 170.63 86.0655 170.771C86.6622 171.343 87.2854 171.941 87.3356 172.992C85.5706 174.21 83.6874 174.608 81.8608 174.995C81.183 175.139 80.5129 175.281 79.8596 175.462C74.231 177.035 68.585 178.538 62.9384 180.041ZM-0.421672 209.304C1.10531 207.823 2.07892 206.068 3.04501 204.326C3.46115 203.576 3.87588 202.828 4.33285 202.106C7.44156 197.171 10.4314 192.19 13.4218 187.208C15.5501 183.663 17.6788 180.116 19.8509 176.586C21.0499 174.635 20.962 173.199 19.3768 171.798C18.5739 171.088 17.8678 170.294 17.162 169.5C16.8445 169.143 16.5271 168.786 16.201 168.437L-28.2666 120.829C-30.8426 118.071 -30.8916 118.078 -34.4684 120.659L-34.4699 120.66C-43.3609 127.098 -52.2409 133.529 -61.0998 140.001C-63.9139 142.058 -63.8687 142.126 -62.0014 144.303C-61.781 144.565 -61.5447 144.809 -61.3072 145.055L-61.3066 145.055L-61.3036 145.058C-61.1854 145.181 -61.067 145.303 -60.9501 145.428C-54.6817 152.133 -48.4136 158.839 -42.1453 165.546L-42.1063 165.588L-42.0669 165.63L-42.0277 165.672L-41.989 165.713L-41.9492 165.756L-41.9103 165.797L-41.871 165.839L-41.8328 165.88C-29.0784 179.527 -16.3229 193.174 -3.56117 206.811C-3.38443 207.009 -3.2211 207.218 -3.05662 207.43L-3.05608 207.43L-3.05554 207.431L-3.05499 207.432L-3.05443 207.432L-3.05388 207.433C-2.44021 208.221 -1.81065 209.029 -0.421672 209.304ZM102.663 104.454C96.9251 98.3902 91.1875 92.3268 85.6542 86.115C81.4774 81.4263 76.9627 76.9971 72.4481 72.568C67.9336 68.1391 63.4191 63.7101 59.2424 59.0215L59.0435 58.7948L59.0419 58.7929C58.514 58.1908 57.9868 57.5896 57.3967 57.0454C56.07 55.8025 56.3272 54.7365 58.0262 53.5178C67.5377 46.6582 77.0142 39.7807 86.4776 32.8695C88.1057 31.6735 89.3745 31.4736 90.5436 32.9028C90.926 33.3648 91.3438 33.7946 91.7628 34.2257C91.9728 34.4417 92.1831 34.6581 92.3894 34.879C95.2878 37.9821 98.1856 41.0857 101.083 44.1893L101.083 44.1895L101.084 44.1897L101.084 44.19L101.084 44.1904L101.085 44.1908L101.085 44.1914L101.085 44.192L101.086 44.1927L101.087 44.1936L101.087 44.1944L101.088 44.195L101.089 44.1957C109.767 53.4901 118.445 62.7846 127.141 72.0656C127.505 72.4503 127.857 72.8438 128.208 73.2372L128.209 73.238L128.209 73.2388L128.21 73.2396L128.211 73.2405L128.212 73.2413L128.212 73.2421L128.213 73.243L128.214 73.2438L128.214 73.2446L128.215 73.2455L128.216 73.2463L128.216 73.2471C129.478 74.6604 130.738 76.0713 132.537 77.0733C134.041 77.9138 134.043 79.0799 133.047 80.6965C129.193 86.9718 125.415 93.2699 121.637 99.5657L121.619 99.5957L121.607 99.6161L121.606 99.6175L121.605 99.6188C119.992 102.308 118.379 104.996 116.761 107.682C116.046 108.864 115.322 110.043 114.569 111.27C113.98 112.231 113.373 113.22 112.738 114.263C111.115 113.63 110.332 112.71 109.599 111.849C109.416 111.633 109.236 111.422 109.047 111.219C106.926 108.959 104.794 106.706 102.663 104.454ZM338.881 303.237C345.467 298.479 352.045 293.702 358.621 288.927L358.664 288.896L358.706 288.865L358.748 288.835C360.895 287.276 363.042 285.717 365.188 284.16L365.172 284.142C367.422 282.509 369.673 280.877 371.923 279.244L371.93 279.239L371.937 279.234L371.944 279.229L371.951 279.224L371.958 279.219L371.965 279.214L371.972 279.209L371.979 279.204L371.986 279.199L371.993 279.194L372 279.189C378.731 274.307 385.463 269.424 392.188 264.522C395.298 262.25 395.31 262.183 392.975 259.683C386.504 252.716 380.012 245.765 373.49 238.822C371.135 236.321 371.062 236.302 367.955 238.557C350.059 251.53 332.16 264.52 314.296 277.528C311.375 279.648 311.369 279.739 313.549 282.093C320.107 289.154 326.677 296.208 333.299 303.238C335.521 305.618 335.609 305.612 338.881 303.237ZM386.232 321.841C380.388 326.085 374.543 330.331 368.695 334.565C365.06 337.203 365.022 337.202 362.472 334.511C356.046 327.671 349.634 320.806 343.252 313.933C340.807 311.296 340.808 311.238 344.157 308.807C361.798 295.976 379.437 283.16 397.102 270.355C400.539 267.86 400.596 267.862 403.006 270.423C409.529 277.367 416.021 284.318 422.492 291.284C424.792 293.767 424.78 293.833 421.647 296.121C414.988 300.975 408.322 305.811 401.658 310.645L401.654 310.647L401.522 310.743C399.346 312.322 397.17 313.9 394.994 315.479C392.074 317.598 389.153 319.719 386.232 321.841ZM298.292 470.412C296.414 468.401 294.537 466.389 292.661 464.376L292.655 464.371C287.959 459.334 283.261 454.297 278.531 449.275C276.474 447.092 276.352 447.08 273.62 449.047C264.471 455.644 255.346 462.267 246.245 468.915C243.354 471.027 243.339 471.11 245.535 473.481C258.594 487.502 271.667 501.498 284.77 515.487C286.953 517.824 287.059 517.819 289.999 515.7C299.028 509.191 308.032 502.656 317.023 496.088C320.134 493.816 320.145 493.749 317.813 491.233C312.969 486.017 308.102 480.811 303.238 475.606L303.235 475.603L303.232 475.6L303.229 475.596L303.226 475.593L303.223 475.59L303.22 475.587L303.217 475.584L303.214 475.58L303.211 475.577C301.586 473.839 299.962 472.101 298.339 470.363C298.325 470.388 298.303 470.404 298.292 470.412ZM313.994 419.761C316.736 417.785 316.85 417.789 318.908 419.972C324.419 425.824 329.898 431.709 335.378 437.595L335.381 437.598C336.476 438.774 337.57 439.95 338.666 441.125L338.688 441.109L357.651 461.412C357.916 461.696 358.177 461.98 358.437 462.264C358.697 462.547 358.956 462.83 359.221 463.113C360.075 464.007 360.013 464.888 358.805 465.765C358.267 466.155 357.73 466.552 357.193 466.949C356.657 467.345 356.12 467.742 355.582 468.133L354.133 469.184C352.544 470.337 350.956 471.491 349.368 472.644C343.15 477.159 336.933 481.674 330.702 486.174C327.419 488.557 327.321 488.571 325.114 486.208C312.011 472.219 298.919 458.222 285.849 444.209C283.658 441.863 283.684 441.773 286.608 439.636C295.709 432.988 304.845 426.358 313.994 419.761ZM358.596 391.155C356.546 388.98 356.432 388.976 353.668 390.968C344.75 397.398 335.855 403.853 326.996 410.325C324.061 412.47 324.046 412.553 326.218 414.898C339.296 428.919 352.377 442.924 365.488 456.921C367.671 459.259 367.777 459.254 370.717 457.135C379.515 450.793 388.288 444.425 397.038 438.032C400.17 435.744 400.182 435.678 397.866 433.179C393.075 428.02 388.266 422.875 383.457 417.73L382.454 416.657L380.71 414.791C380.02 414.053 379.33 413.314 378.641 412.576C376.981 410.799 375.324 409.022 373.666 407.245L373.627 407.203C368.627 401.842 363.627 396.483 358.596 391.155ZM339.008 208.474C342.632 205.844 342.67 205.845 345.209 208.544C351.378 215.109 357.517 221.682 363.648 228.305C365.812 230.641 365.805 230.733 362.851 232.876C344.987 245.884 327.089 258.874 309.182 271.855C306.143 274.046 306.037 274.051 303.907 271.79C297.551 265.044 291.235 258.282 284.944 251.488C282.932 249.314 282.942 249.207 285.69 247.198C292.192 242.448 298.721 237.716 305.247 232.986C307.855 231.095 310.463 229.205 313.069 227.314L313.06 227.305C315.917 225.232 318.771 223.159 321.625 221.086L321.642 221.074L321.659 221.061L321.676 221.049L321.693 221.037L321.711 221.024L321.712 221.023L321.713 221.023L321.714 221.022L321.715 221.021L321.716 221.02C327.477 216.836 333.237 212.653 339.008 208.474ZM346.846 356.779C345.759 354.944 344.617 353.091 343.097 351.542C339.99 348.361 337.027 345.075 334.063 341.791L334.062 341.789C328.523 335.649 322.984 329.51 316.517 324.052C312.473 320.629 305.947 320.507 300.955 324.058C296.542 327.201 292.172 330.388 287.801 333.576C285.816 335.024 283.83 336.472 281.84 337.916L281.832 337.907C279.958 339.267 278.082 340.625 276.207 341.982C271.827 345.152 267.448 348.321 263.096 351.52C256.905 356.056 255.533 362.241 260.018 367.161C266.039 373.781 272.176 380.317 278.315 386.855C281.252 389.983 284.189 393.112 287.115 396.25C291.071 400.486 300.058 401.014 305.376 396.707C308.302 394.334 311.421 392.132 314.537 389.932C315.92 388.956 317.303 387.98 318.667 386.99C320.931 385.346 323.199 383.705 325.467 382.064C331.14 377.958 336.817 373.851 342.446 369.703C347.287 366.147 349.137 360.652 346.846 356.779ZM339.124 361.529C338.958 362.532 337.966 363.512 336.067 364.905C331.886 367.97 327.684 371.013 323.483 374.056L323.481 374.057L323.48 374.059L323.478 374.06L323.476 374.061L323.475 374.062C321.789 375.284 320.102 376.505 318.418 377.728C316.768 378.925 315.121 380.123 313.473 381.321C309.36 384.312 305.248 387.302 301.115 390.271C297.365 392.963 296.078 392.946 293.403 390.101C284.866 381.001 276.351 371.885 267.858 362.753C267.026 361.856 266.473 361.106 266.222 360.416C266.477 361.102 267.03 361.846 267.861 362.737C276.354 371.869 284.869 380.985 293.405 390.085C296.081 392.929 297.368 392.947 301.118 390.254C305.252 387.285 309.366 384.293 313.48 381.301C315.127 380.104 316.773 378.907 318.42 377.711C320.101 376.492 321.782 375.274 323.464 374.056C327.673 371.007 331.881 367.959 336.07 364.888C337.958 363.503 338.95 362.526 339.124 361.529ZM22.3565 590.645C15.1187 583.212 17.9736 570.804 27.2448 565.344C35.7633 558.21 50.0137 559.343 56.0765 566.13C62.2166 573.02 62.3853 583.911 51.6271 591.704C41.6784 598.925 29.7147 598.208 22.3565 590.645ZM-62.2745 546.669C-55.1064 554.225 -41.5137 553.687 -33.2152 547.679C-24.0272 541.026 -21.8641 529.494 -28.4997 522.114C-36.1295 514.734 -47.9326 514.189 -57.7461 521.08C-66.2997 527.072 -69.5069 539.044 -62.2745 546.669ZM42.9206 523.088C35.529 515.766 38.7598 503.662 47.4655 497.675C56.6852 490.523 70.4413 491.64 76.5574 498.503C83.6356 506.456 81.4327 517.353 72.1974 523.897C61.7052 531.324 50.2129 530.323 42.9206 523.088ZM-30.4854 450.494C-40.1675 457.506 -42.2163 467.701 -35.0612 475.972C-28.5341 483.533 -14.9931 483.551 -6.24979 477.033C3.29047 470.816 5.31463 458.189 -1.20983 451.578C-8.26985 444.434 -20.6825 443.394 -30.4854 450.494Z" fill="#252525" fill-opacity="0.05"/>
</svg>
