<svg width="572" height="471" viewBox="0 0 572 471" fill="none" xmlns="http://www.w3.org/2000/svg">
<path fill-rule="evenodd" clip-rule="evenodd" d="M404.707 470.862H353.818C353.62 470.632 353.423 470.401 353.225 470.171C351.219 467.818 351.233 467.736 353.873 465.64C362.185 459.043 370.52 452.472 378.876 445.926C381.37 443.973 381.482 443.985 383.361 446.152C387.68 451.134 391.971 456.132 396.26 461.129L396.263 461.133L397.459 462.527C397.941 463.089 398.423 463.65 398.905 464.211C399.739 465.183 400.574 466.154 401.409 467.126C401.419 467.118 401.439 467.102 401.452 467.077C402.536 468.339 403.622 469.601 404.707 470.862ZM446.129 470.862H415.62C407.087 460.956 398.561 451.044 390.045 441.125C388.044 438.797 388.067 438.707 390.738 436.587C399.05 429.99 407.394 423.411 415.75 416.865C418.255 414.905 418.359 414.908 420.238 417.074C425.266 422.874 430.265 428.708 435.264 434.542L435.266 434.544L435.267 434.546L435.269 434.548L435.271 434.55L435.272 434.551L435.274 434.553L435.275 434.555L435.277 434.557L435.288 434.57L437.007 436.576L438.283 438.065L438.304 438.049L455.623 458.195C455.707 458.292 455.789 458.389 455.872 458.486L455.993 458.629L456.146 458.809L456.341 459.04C456.441 459.158 456.54 459.275 456.64 459.393C456.707 459.472 456.773 459.551 456.841 459.63L456.925 459.729L457.057 459.883C457.837 460.77 457.781 461.644 456.677 462.514C456.592 462.581 456.507 462.648 456.422 462.716C456.297 462.816 456.171 462.916 456.045 463.016L455.873 463.154C455.751 463.251 455.63 463.348 455.509 463.446L455.205 463.689C455.043 463.82 454.88 463.951 454.717 464.081C454.389 464.344 454.062 464.605 453.734 464.864C451.844 466.354 449.956 467.844 448.067 469.334C447.421 469.843 446.775 470.353 446.129 470.862ZM290.052 470.862H235.215C242.145 465.391 249.075 459.923 256.006 454.454L256.094 454.385L256.181 454.316C260.894 450.597 265.606 446.879 270.318 443.16L271.963 441.864L271.963 441.863C275.558 439.058 275.578 439.042 278.194 442.085C283.899 448.702 289.595 455.327 295.28 461.959C297.696 464.789 297.698 464.83 294.538 467.321C293.043 468.502 291.547 469.682 290.052 470.862ZM224.521 470.862C230.8 465.917 236.944 460.818 243.087 455.718L243.088 455.717L243.089 455.717L243.089 455.716L243.089 455.716L243.09 455.716L243.09 455.716L243.09 455.715L243.091 455.715L243.091 455.715L243.091 455.714L243.092 455.714L243.092 455.714L243.092 455.714L243.093 455.713L243.093 455.713L243.094 455.713L243.094 455.712L243.094 455.712L243.095 455.712L243.095 455.712L243.095 455.711L243.096 455.711C251.19 448.992 259.286 442.272 267.695 435.901C270.805 433.549 270.762 433.44 268.529 430.824C262.936 424.278 257.312 417.756 251.689 411.235L251.686 411.231C251.409 410.911 251.16 410.617 250.933 410.349L250.932 410.348C249.866 409.09 249.298 408.419 248.653 408.334C247.918 408.237 247.083 408.899 245.297 410.316L245.032 410.526C244.901 410.63 244.766 410.737 244.625 410.848C223.002 427.897 201.382 444.948 179.761 462C176.015 464.954 172.269 467.908 168.523 470.862H224.521ZM157.692 470.862C185.487 448.941 213.279 427.019 241.074 405.093C244.204 402.626 244.222 402.569 242.03 400.019C236.355 393.379 230.66 386.755 224.945 380.146C222.67 377.519 222.621 377.501 219.594 379.873C192.596 401.161 165.598 422.448 138.614 443.753C135.927 445.873 135.814 445.976 137.092 448.559C140.261 454.936 139.548 463.554 135.23 470.862H157.692ZM86.8338 470.862H17.3092C7.74958 470.862 0 463.113 0 453.553V196.92C7.49527 191.012 14.9906 185.103 22.4861 179.195C22.9132 178.858 23.2978 178.55 23.6464 178.271C25.4055 176.862 26.2468 176.188 26.9955 176.278C27.6818 176.361 28.2903 177.087 29.4566 178.477L29.4567 178.478C29.7382 178.813 30.0521 179.187 30.4075 179.601C34.3066 184.132 38.2068 188.663 42.1069 193.193L42.1107 193.197L42.1145 193.202L42.1184 193.206L42.1222 193.211L42.126 193.215L42.1298 193.22L42.1336 193.224L42.1375 193.229L42.1412 193.233L42.145 193.237L42.1487 193.242L42.1523 193.246L42.1559 193.25L42.1595 193.254L42.163 193.259L42.1665 193.263L42.1699 193.267L42.1734 193.271L42.1769 193.275L42.1804 193.279L42.1839 193.283L42.1878 193.288C58.7331 212.505 75.2754 231.718 91.7107 251.026C94.0462 253.762 96.3592 254.456 100.265 253.264C107.281 251.112 114.318 249.062 121.355 247.012L121.358 247.011L121.36 247.01L121.361 247.01L121.363 247.01L121.364 247.009L121.366 247.009L121.367 247.008L121.369 247.008L121.37 247.007L121.372 247.007L121.373 247.006L121.375 247.006L121.377 247.005L121.378 247.005L121.38 247.005L121.381 247.004L121.383 247.004L121.384 247.003L121.386 247.003L121.387 247.002L121.389 247.002C127.656 245.176 133.923 243.351 140.173 241.453C143.396 240.485 145.258 240.948 147.241 243.275C167.504 267.005 187.857 290.655 208.213 314.309C212.579 319.381 216.944 324.453 221.308 329.527C221.443 329.683 221.571 329.832 221.694 329.973C222.955 331.434 223.591 332.171 223.532 332.847C223.472 333.536 222.691 334.162 221.115 335.425L220.837 335.648L220.656 335.794L220.481 335.935C220.351 336.039 220.218 336.148 220.08 336.26C219.688 336.579 219.295 336.893 218.903 337.207C216.401 339.21 213.935 341.184 212.073 343.975C207.987 350.086 207.671 361.423 212.975 366.281C213.847 367.083 214.591 368.007 215.336 368.931L215.337 368.932L215.337 368.932L215.337 368.932L215.337 368.933L215.337 368.933L215.338 368.933L215.338 368.933L215.338 368.934L215.338 368.934L215.338 368.934L215.338 368.934L215.339 368.934L215.339 368.935L215.339 368.935L215.339 368.935L215.339 368.935L215.34 368.935L215.34 368.936L215.34 368.936L215.34 368.936L215.34 368.936L215.34 368.936C215.832 369.546 216.324 370.157 216.853 370.734C217.919 371.895 217.727 372.905 216.292 373.937C215.831 374.262 215.401 374.613 214.97 374.966C214.832 375.079 214.694 375.192 214.555 375.304C214.476 375.368 214.396 375.431 214.316 375.495C201.373 385.707 188.428 395.918 175.481 406.129L175.019 406.494L175.017 406.496L175.002 406.508L174.987 406.52L174.971 406.532L174.956 406.544L174.937 406.559L174.913 406.578L174.893 406.593L174.861 406.619L174.828 406.645L174.795 406.671L174.404 406.98C161.374 417.257 148.343 427.535 135.312 437.817C135.136 437.956 134.955 438.088 134.774 438.221L134.774 438.221L134.774 438.221L134.774 438.221L134.773 438.221L134.773 438.222L134.773 438.222L134.773 438.222L134.772 438.222L134.772 438.222L134.772 438.222L134.772 438.223L134.772 438.223L134.771 438.223L134.771 438.223L134.771 438.223L134.771 438.224L134.771 438.224L134.77 438.224L134.77 438.224L134.77 438.224L134.77 438.224C134.385 438.506 134.002 438.786 133.674 439.123C132.183 440.656 130.766 440.457 129.413 439.45C126.543 437.307 123.135 436.318 119.432 435.69C108.085 433.765 95.309 440.005 89.2841 450.163C85.0719 457.264 84.2708 464.231 86.8338 470.862ZM126.43 470.862H95.6802C90.716 463.01 92.9151 453.824 101.128 447.361C110.081 440.316 121.418 441.348 127.866 448.437C133.016 454.106 132.335 464.234 126.43 470.862ZM230.42 15.3193C234.463 12.1871 238.505 9.05466 242.399 5.76757C251.58 -1.97207 266.254 -0.0529174 272.148 6.90099C292.008 30.2908 312.037 53.5471 332.067 76.8034L332.073 76.8113L332.074 76.8117L332.074 76.8122L332.075 76.8126L332.075 76.8131L332.075 76.8136L332.076 76.814L332.076 76.8145L332.076 76.8149L332.077 76.8154L332.077 76.8159L332.078 76.8163L332.078 76.8168L332.078 76.8172L332.079 76.8177L332.079 76.8182L332.079 76.8186L332.08 76.8191L332.08 76.8195L332.081 76.82L332.081 76.8205L332.081 76.8209C339.188 85.0727 346.295 93.3245 353.395 101.582C362.352 112.001 371.31 122.419 380.268 132.837C398.183 153.672 416.099 174.506 434.005 195.348C434.107 195.467 434.206 195.582 434.301 195.692L434.402 195.808C434.53 195.956 434.653 196.098 434.77 196.232L434.78 196.244L434.781 196.244C435.938 197.572 436.545 198.269 436.499 198.92C436.448 199.638 435.601 200.3 433.82 201.692L433.82 201.693C433.562 201.894 433.285 202.111 432.987 202.345L391.166 235.321C389.2 236.871 387.321 238.482 385.626 240.347C383.695 242.485 382.887 242.407 381.156 240.51C379.987 239.229 378.855 237.933 377.784 236.589C371.769 228.986 361.488 228.066 352.245 232.464C350.455 233.319 348.865 234.645 347.279 235.967L347.279 235.967L347.279 235.967L347.278 235.967L347.278 235.968L347.278 235.968L347.277 235.968L347.277 235.968L347.277 235.969L347.277 235.969L347.276 235.969L347.276 235.969L347.276 235.97L347.275 235.97L347.275 235.97L347.275 235.97L347.275 235.971L347.274 235.971L347.274 235.971L347.274 235.971L347.273 235.971L347.273 235.972L347.272 235.973C346.577 236.552 345.884 237.13 345.174 237.667C344.601 238.095 344.035 238.536 343.469 238.976L343.465 238.979C343.04 239.31 342.614 239.641 342.187 239.966C341.259 240.669 340.416 240.647 339.712 239.886C339.117 239.254 338.55 238.614 337.986 237.957C330.936 229.762 323.889 221.565 316.841 213.369L316.841 213.368L316.84 213.368L316.84 213.368L316.84 213.367L316.839 213.367L316.839 213.367L316.839 213.366L316.838 213.366L316.838 213.366L316.838 213.365L316.838 213.365L316.837 213.364L316.837 213.364L316.837 213.364L316.836 213.363L316.836 213.363L316.836 213.363L316.836 213.362L316.835 213.362L316.835 213.362L316.835 213.361C290.993 183.308 265.151 153.255 239.242 123.255C237.358 121.064 237.121 119.32 238.711 116.55C243.521 108.183 248.211 99.769 252.902 91.3521L252.903 91.3506L252.917 91.326C254.705 88.1169 256.494 84.9074 258.29 81.7001C258.357 81.5827 258.44 81.4741 258.524 81.3655C258.607 81.2569 258.69 81.1483 258.758 81.0308C260.539 77.8379 260.589 77.4264 258.482 74.7397C257.321 73.2671 256.079 71.8515 254.836 70.4347C254.292 69.8145 253.748 69.1939 253.21 68.5683L219.757 29.6568C219.606 29.4808 219.46 29.301 219.314 29.1214L219.313 29.1212L219.313 29.121C218.992 28.7265 218.672 28.3333 218.303 27.9852C216.846 26.6027 217.384 25.4482 219.043 24.2262C220.43 23.2012 221.772 22.1243 223.115 21.0474L223.115 21.0473C223.734 20.5502 224.354 20.0532 224.978 19.5613C226.783 18.138 228.601 16.7287 230.42 15.3194L230.42 15.3193ZM545.873 325.452L524.705 300.83C524.545 300.644 524.388 300.457 524.232 300.271L524.227 300.265C523.911 299.889 523.597 299.514 523.261 299.15C521.363 297.099 521.363 297.099 518.737 299.055C518.439 299.28 518.153 299.509 517.865 299.74L517.862 299.742L517.859 299.744C517.767 299.817 517.675 299.891 517.582 299.965C517.529 300.007 517.476 300.049 517.423 300.091L470.698 336.933C470.477 337.107 470.26 337.283 470.044 337.458L470.043 337.459L470.043 337.459L470.042 337.46L470.042 337.46C469.609 337.811 469.177 338.161 468.722 338.491C467.297 339.515 467.097 340.516 468.161 341.695C468.999 342.633 469.808 343.592 470.616 344.551L470.617 344.552L470.617 344.552L470.617 344.552L470.617 344.553L470.617 344.553L470.618 344.553C471.551 345.66 472.484 346.767 473.463 347.842C479.706 354.693 477.507 368.342 469.078 374.803C468.193 375.482 467.321 376.175 466.446 376.871L466.446 376.872C466.216 377.055 465.986 377.238 465.755 377.421C465.637 377.515 465.518 377.609 465.4 377.703C465.309 377.775 465.218 377.847 465.126 377.919C464.856 378.133 464.603 378.331 464.368 378.516L464.352 378.529L464.342 378.536C462.655 379.86 461.848 380.494 461.796 381.184C461.749 381.818 462.339 382.499 463.471 383.806L463.719 384.092L463.813 384.202L463.932 384.339L464.416 384.902L497.846 423.788C498.034 424.007 498.227 424.22 498.419 424.433L498.42 424.434L498.421 424.435C498.806 424.861 499.189 425.285 499.532 425.749C500.558 427.157 501.741 427.183 503.194 425.879C503.604 425.508 504.051 425.172 504.499 424.834L504.658 424.715C504.716 424.671 504.774 424.627 504.831 424.583C504.945 424.497 505.058 424.41 505.17 424.321C510.687 419.971 516.193 415.608 521.698 411.244L521.716 411.23L521.717 411.23L521.717 411.23L521.718 411.229L521.718 411.229L521.719 411.228L521.719 411.228L521.72 411.227L521.72 411.227L521.721 411.227L521.721 411.226L521.722 411.226L521.722 411.225L521.723 411.225L521.723 411.225L521.724 411.224L521.724 411.224L521.725 411.223L521.725 411.223L521.726 411.223L521.726 411.222L521.732 411.218C535.371 400.408 549.01 389.598 562.823 378.991C571.075 372.657 575.109 359.205 567.565 350.605C562.324 344.677 557.185 338.668 552.05 332.662L552.04 332.652L552.004 332.61C549.962 330.221 547.92 327.834 545.873 325.452ZM257.168 307.017C249.824 312.822 242.473 318.618 235.114 324.406C234.731 324.707 234.383 324.984 234.066 325.236L234.065 325.238C232.334 326.616 231.51 327.272 230.778 327.182C230.112 327.101 229.522 326.404 228.395 325.073L228.394 325.072C228.123 324.752 227.822 324.395 227.48 324.002C209.95 303.631 192.423 283.243 174.902 262.863L174.778 262.719C171.591 259.012 168.408 255.302 165.226 251.593L165.219 251.585L165.203 251.567L165.189 251.55L165.174 251.533L165.16 251.516L165.145 251.499L165.13 251.482L165.115 251.465L165.101 251.448L165.095 251.441C155.424 240.17 145.755 228.901 135.981 217.707C134.07 215.524 133.894 213.774 135.502 211.004C139.574 203.99 143.514 196.918 147.454 189.848L147.455 189.846L147.456 189.844L147.458 189.841C149.147 186.809 150.837 183.777 152.536 180.75C152.656 180.535 152.828 180.339 153.05 180.086C153.171 179.948 153.307 179.793 153.457 179.609C154.708 180.058 155.328 180.862 155.92 181.63C156.077 181.834 156.233 182.035 156.397 182.226C178.876 208.348 201.35 234.481 223.823 260.612L223.854 260.649L223.886 260.685L223.917 260.722L223.949 260.759L223.985 260.8L224.02 260.842L224.238 261.095C235.558 274.258 246.878 287.421 258.199 300.582L258.303 300.703L258.404 300.821L258.631 301.083C259.845 302.487 260.463 303.202 260.405 303.856C260.345 304.535 259.558 305.149 257.956 306.4C257.829 306.499 257.697 306.602 257.559 306.709C257.433 306.808 257.303 306.911 257.168 307.017ZM270.997 296.112C278.797 289.976 286.59 283.832 294.375 277.679C297.946 274.864 297.938 274.855 295.317 271.787L295.075 271.505L294.869 271.266L294.863 271.259L294.857 271.252L294.851 271.245L294.845 271.237L294.839 271.23L294.828 271.218L294.818 271.206L294.808 271.194L294.797 271.183L294.787 271.171L294.785 271.168L294.783 271.166L294.781 271.163L294.779 271.161L294.777 271.159C269.117 241.331 243.465 211.512 217.816 181.677C217.668 181.505 217.516 181.336 217.364 181.167L217.363 181.165L217.361 181.163L217.36 181.162C217.018 180.781 216.676 180.4 216.382 179.989C215.312 178.53 214.1 178.255 211.955 178.931C206.954 180.507 201.913 181.925 196.875 183.343L196.874 183.343C194.575 183.99 192.277 184.636 189.983 185.298C185.585 186.563 181.186 187.828 176.805 189.151C173.801 190.061 173.694 190.446 175.519 192.726C175.64 192.873 175.768 193.015 175.895 193.156C176.098 193.381 176.3 193.605 176.469 193.85C178.255 196.347 180.467 198.478 182.68 200.611C184.286 202.158 185.892 203.706 187.337 205.395C196.311 215.875 205.311 226.336 214.31 236.796C217.909 240.979 221.507 245.161 225.103 249.344L225.123 249.328L265.07 295.794C267.603 298.76 267.638 298.761 270.997 296.112ZM226.813 180.477L226.6 180.229C213.206 164.669 199.815 149.093 186.419 133.491L186.399 133.507L146.717 87.3486C146.398 86.9778 146.082 86.6008 145.767 86.2238C145.451 85.8469 145.135 85.4699 144.817 85.099C144.022 84.1947 144.113 83.3219 145.206 82.4599C145.593 82.1555 145.972 81.8487 146.352 81.542L146.354 81.5404C146.734 81.2342 147.113 80.928 147.498 80.6241L169.873 62.9818C169.995 62.8857 170.113 62.7924 170.227 62.7019C170.308 62.6385 170.386 62.5764 170.463 62.5156C172.261 61.0914 173.109 60.4189 173.862 60.5134C174.535 60.5979 175.132 61.2964 176.261 62.6199L176.262 62.6201L176.267 62.6258L176.283 62.6451L176.332 62.7023C176.449 62.8397 176.572 62.9836 176.701 63.1339C187.685 75.9097 198.671 88.6836 209.657 101.457C220.643 114.231 231.628 127.005 242.612 139.781C243.142 140.397 243.666 141.018 244.191 141.639L244.192 141.64L244.193 141.642C245.416 143.088 246.637 144.534 247.924 145.921C249.289 147.391 249.238 148.819 248.155 150.731C244.154 157.792 240.213 164.882 236.273 171.97L236.269 171.978L236.254 172.005C234.777 174.663 233.299 177.321 231.819 179.977C231.702 180.187 231.591 180.399 231.48 180.61L231.48 180.611L231.479 180.612C231.215 181.117 230.952 181.618 230.617 182.083C230.041 182.881 229.259 183.068 228.581 182.416C227.952 181.806 227.38 181.139 226.813 180.477L226.813 180.477ZM298.559 263.951C299.761 265.35 301.049 266.652 302.61 267.724L302.835 267.879C304.885 269.297 304.94 269.335 307.252 267.526C313.001 263.014 318.732 258.493 324.465 253.969L324.468 253.967L324.471 253.964L324.475 253.962L324.478 253.959L324.481 253.957L324.484 253.954L324.487 253.952L324.49 253.95L324.494 253.947L324.497 253.945L324.5 253.942L324.503 253.94L324.506 253.937L324.509 253.935L324.513 253.932L324.53 253.919L324.787 253.715C326.623 252.267 328.459 250.818 330.296 249.37C330.559 249.163 330.804 248.971 331.033 248.792L331.036 248.79C332.654 247.525 333.447 246.905 333.507 246.221C333.565 245.563 332.944 244.845 331.727 243.437L331.721 243.431C331.586 243.274 331.443 243.109 331.293 242.934C306.68 214.304 282.067 185.675 257.434 157.061C257.286 156.889 257.146 156.709 257.004 156.525L257.004 156.524L257.003 156.524L257.002 156.523L257.001 156.522L257.001 156.521L257 156.52L256.999 156.519L256.998 156.518L256.997 156.517L256.996 156.516L256.996 156.515L256.995 156.514L256.994 156.512L256.993 156.511C256.385 155.726 255.735 154.887 254.267 154.395C252.575 157.459 250.899 160.508 249.229 163.544L249.198 163.601L249.194 163.609L249.194 163.609L249.193 163.609L249.193 163.61L249.193 163.61L249.193 163.611L249.193 163.611L249.193 163.611L249.192 163.612L249.187 163.622L249.184 163.627L249.181 163.631L249.18 163.634C244.919 171.384 240.704 179.051 236.391 186.686C235.049 189.059 235.355 190.55 236.941 192.375C255.666 214.014 274.321 235.732 292.971 257.446L298.559 263.951ZM115.123 241.568C110.464 242.936 105.806 244.304 101.152 245.684C98.2155 246.555 97.6288 246.459 96.3804 244.068C95.77 242.89 94.9274 241.917 94.0758 240.935L94.0756 240.935L93.8942 240.725C93.8445 240.668 93.7948 240.61 93.7452 240.552C74.7172 218.399 55.6864 196.263 36.6484 174.118L36.6398 174.108L36.5037 173.95C36.4438 173.88 36.3851 173.812 36.3275 173.745C36.2618 173.669 36.1975 173.594 36.1348 173.522L36.1347 173.522C34.8512 172.035 34.1963 171.276 34.2574 170.58C34.321 169.855 35.1618 169.198 36.8787 167.857C37.1294 167.661 37.3988 167.451 37.6872 167.223L60.0721 149.573C60.2399 149.441 60.4002 149.314 60.5535 149.192L60.5549 149.191L60.5571 149.19L60.5579 149.189C62.3235 147.792 63.1652 147.126 63.9148 147.217C64.5978 147.3 65.2044 148.012 66.3635 149.372C66.5194 149.554 66.6852 149.749 66.8625 149.955L101.502 190.248L101.522 190.232L135.92 230.243C136.016 230.355 136.114 230.467 136.212 230.577C136.303 230.68 136.395 230.783 136.487 230.886L136.489 230.888L136.49 230.89L136.492 230.892C136.955 231.41 137.42 231.93 137.82 232.493C138.897 234.019 138.703 234.557 136.623 235.211C133.872 236.075 131.098 236.883 128.325 237.69C127.239 238.007 126.153 238.323 125.068 238.642C121.774 239.614 118.479 240.582 115.185 241.55L115.141 241.563L115.132 241.565L115.123 241.568ZM186.451 178.993L186.454 178.993L186.455 178.992L186.455 178.992L186.455 178.992L186.456 178.992L186.456 178.992L186.456 178.992L186.456 178.992L186.457 178.992L186.457 178.992L186.457 178.992L186.458 178.992L186.458 178.992L186.458 178.991L186.458 178.991L186.459 178.991C191.615 177.5 196.77 176.009 201.909 174.449C202.506 174.269 203.118 174.128 203.737 173.986C205.405 173.602 207.125 173.206 208.737 171.998C208.691 170.956 208.122 170.362 207.577 169.794L207.577 169.794C207.443 169.654 207.31 169.516 207.187 169.372C184.819 143.335 162.442 117.306 140.065 91.2773C137.646 88.4638 137.594 88.462 134.407 90.9602C126.269 97.3485 118.156 103.746 110.047 110.168C106.805 112.739 106.789 112.78 109.164 115.542C114.837 122.147 120.515 128.75 126.193 135.353L126.25 135.42L126.283 135.458L126.315 135.496L126.348 135.534L126.381 135.572L126.414 135.611L126.448 135.649L126.481 135.688L126.514 135.726L126.547 135.764L126.579 135.803L126.612 135.841L126.644 135.878L126.677 135.916L126.709 135.954C139.87 151.259 153.033 166.567 166.148 181.904C167.624 183.659 169.056 184.131 171.575 183.362C176.525 181.864 181.488 180.429 186.451 178.993ZM131.753 203.091C130.87 204.819 129.981 206.561 128.586 208.031C127.318 207.758 126.743 206.956 126.182 206.174C126.031 205.963 125.881 205.754 125.719 205.557C114.071 192.034 102.43 178.501 90.7888 164.97L90.5327 164.672L90.2804 164.379C84.6216 157.801 78.963 151.223 73.3042 144.647C73.1965 144.522 73.0874 144.399 72.9786 144.277C72.7615 144.033 72.5455 143.79 72.344 143.53C70.6385 141.37 70.5973 141.302 73.1674 139.262C81.2584 132.839 89.3685 126.459 97.4888 120.07L97.4906 120.069C100.757 117.507 100.802 117.501 103.155 120.237L143.768 167.479C144.066 167.825 144.356 168.179 144.646 168.533L144.646 168.534C145.291 169.321 145.936 170.109 146.669 170.813C148.117 172.204 148.197 173.628 147.102 175.564C145.118 179.068 143.174 182.587 141.23 186.106L141.229 186.106L141.228 186.108C138.498 191.051 135.767 195.992 132.929 200.887C132.512 201.604 132.133 202.346 131.753 203.09L131.753 203.091ZM207.202 85.7909C212.256 91.9551 217.496 97.9722 222.737 103.989C224.683 106.224 226.63 108.459 228.567 110.701C228.739 110.902 228.904 111.112 229.071 111.326C229.741 112.181 230.455 113.094 231.938 113.722C232.517 112.688 233.071 111.708 233.609 110.756L233.611 110.752C234.298 109.534 234.959 108.364 235.612 107.192C237.1 104.509 238.583 101.823 240.066 99.1371C243.516 92.8901 246.967 86.6408 250.487 80.4141C251.396 78.8101 251.394 77.6529 250.021 76.8189C248.378 75.8247 247.227 74.4248 246.075 73.0225L246.075 73.0223L246.074 73.0214C245.751 72.6281 245.427 72.2346 245.093 71.8498C237.144 62.6329 229.212 53.4026 221.28 44.1723L221.19 44.0681C218.578 41.0285 215.966 37.9889 213.353 34.9498C213.165 34.7307 212.973 34.5161 212.781 34.3018L212.781 34.3015L212.781 34.3013L212.78 34.3011L212.78 34.3008L212.78 34.3006L212.78 34.3004L212.78 34.3001L212.779 34.2999L212.779 34.2997L212.779 34.2995L212.779 34.2993L212.779 34.299L212.778 34.2986C212.396 33.8719 212.016 33.4463 211.667 32.9889C210.599 31.5707 209.441 31.7691 207.954 32.9559C199.31 39.8138 190.655 46.6383 181.968 53.445C180.416 54.6543 180.182 55.7121 181.393 56.9454C181.932 57.4849 182.413 58.081 182.895 58.6779L182.895 58.6781L182.895 58.6783L182.895 58.6785L182.895 58.6787L182.895 58.6789L182.896 58.6791L182.896 58.6793L182.896 58.6795L182.896 58.6797L182.896 58.68L182.896 58.6802L182.897 58.681L182.974 58.7761L183.079 58.9063C186.894 63.5587 191.017 67.9535 195.14 72.3484L195.14 72.3485L195.141 72.3495C199.264 76.7441 203.387 81.1387 207.202 85.7909ZM456.5 287.047C450.497 291.783 444.492 296.521 438.48 301.24C435.491 303.596 435.412 303.602 433.381 301.24C427.334 294.264 421.333 287.265 415.343 280.258C413.352 277.923 413.359 277.832 416.026 275.728C432.342 262.821 448.689 249.931 465.034 237.058C467.872 234.82 467.939 234.839 470.089 237.321C476.046 244.211 481.976 251.108 487.885 258.021C490.018 260.502 490.007 260.568 487.166 262.822C481.005 267.702 474.837 272.562 468.671 277.422L466.201 279.368C464.965 280.343 463.728 281.317 462.492 282.292L462.507 282.309C461.246 283.303 459.985 284.297 458.724 285.292L456.5 287.047ZM465.71 332.326C471.054 328.122 476.396 323.906 481.737 319.692L484.884 317.209C486.5 315.934 488.115 314.66 489.73 313.387C491.754 311.79 493.78 310.194 495.805 308.598L495.857 308.557C501.93 303.771 508.005 298.984 514.073 294.178C516.934 291.908 516.945 291.842 514.844 289.379C508.934 282.466 503.005 275.568 497.048 268.678C494.846 266.137 494.794 266.135 491.655 268.61C475.521 281.318 459.411 294.034 443.299 306.767C440.24 309.179 440.24 309.236 442.472 311.853C448.301 318.673 454.158 325.485 460.027 332.272C462.356 334.942 462.39 334.943 465.71 332.326ZM451.986 388.294C454.51 386.318 454.614 386.322 456.486 388.479C461.084 393.769 465.653 399.09 470.222 404.413L470.241 404.435C471.758 406.202 473.275 407.969 474.794 409.735C475.791 410.896 476.789 412.056 477.787 413.216L479.179 414.834L479.191 414.848C483.584 419.954 487.977 425.06 492.353 430.179C494.468 432.66 494.457 432.725 491.596 434.996C483.605 441.339 475.592 447.658 467.557 453.951C464.872 456.053 464.775 456.058 462.781 453.739C450.806 439.849 438.859 425.953 426.915 412.039C424.931 409.712 424.945 409.63 427.625 407.502C435.717 401.079 443.84 394.674 451.986 388.294ZM444.26 207.276C441.941 204.598 441.906 204.597 438.596 207.207C433.324 211.354 428.063 215.506 422.8 219.658C420.167 221.736 417.533 223.815 414.898 225.893L414.905 225.901C412.525 227.778 410.142 229.654 407.759 231.531L407.758 231.532L407.757 231.533L407.756 231.534L407.755 231.534L407.754 231.535L407.754 231.536C401.796 236.227 395.836 240.921 389.9 245.632C387.39 247.625 387.381 247.732 389.218 249.889C394.964 256.631 400.732 263.341 406.538 270.035C408.483 272.278 408.58 272.273 411.355 270.099C427.71 257.218 444.057 244.328 460.373 231.421C463.071 229.294 463.077 229.203 461.1 226.885C455.501 220.313 449.894 213.791 444.26 207.276ZM442.331 349.172C443.719 350.709 444.762 352.548 445.755 354.369C447.847 358.212 446.157 363.664 441.736 367.193C436.595 371.308 431.41 375.384 426.228 379.459L426.183 379.495C424.126 381.111 422.071 382.728 420.018 384.346C418.772 385.329 417.509 386.297 416.246 387.266L416.246 387.266L416.246 387.267L416.245 387.267L416.245 387.267L416.245 387.267L416.245 387.267L416.244 387.268C413.4 389.45 410.551 391.635 407.879 393.989C403.022 398.263 394.814 397.739 391.201 393.536C388.538 390.433 385.865 387.339 383.193 384.247L383.186 384.24L383.18 384.233L383.174 384.226L383.168 384.219L383.162 384.211C377.555 377.724 371.951 371.238 366.452 364.67C362.356 359.789 363.609 353.651 369.263 349.15C373.232 345.98 377.226 342.84 381.22 339.7L381.227 339.694L381.237 339.687C382.95 338.339 384.664 336.992 386.376 335.642L386.383 335.651C388.201 334.218 390.015 332.781 391.828 331.343L391.835 331.339C395.824 328.178 399.813 325.017 403.841 321.9C408.401 318.376 414.361 318.497 418.055 321.893C423.961 327.31 429.019 333.401 434.078 339.494L434.078 339.494L434.079 339.495C436.786 342.754 439.493 346.015 442.331 349.172ZM435.91 362.432C437.653 361.043 438.559 360.068 438.704 359.068C438.552 360.062 437.646 361.034 435.912 362.415C432.093 365.457 428.255 368.478 424.417 371.498L424.405 371.507C422.868 372.717 421.33 373.928 419.793 375.14C418.29 376.325 416.788 377.511 415.286 378.697L415.26 378.718C411.51 381.681 407.759 384.644 403.99 387.586C400.565 390.257 399.389 390.24 396.946 387.418C389.149 378.388 381.372 369.342 373.616 360.28C372.862 359.404 372.359 358.67 372.124 357.994C372.356 358.674 372.859 359.413 373.613 360.297C381.37 369.358 389.147 378.404 396.943 387.434C399.387 390.257 400.563 390.274 403.987 387.602C407.751 384.665 411.497 381.706 415.242 378.747L415.259 378.734L415.271 378.724L417.105 377.275C418 376.569 418.895 375.862 419.79 375.156C421.329 373.943 422.869 372.731 424.408 371.519C428.248 368.497 432.088 365.475 435.91 362.432Z" fill="#F6F6F6"/>
</svg>
